<svg width="312" height="312" viewBox="0 0 312 312" fill="none" xmlns="http://www.w3.org/2000/svg">
<circle cx="156" cy="156" r="156" fill="url(#paint0_linear_516_12178)"/>
<path fill-rule="evenodd" clip-rule="evenodd" d="M156.504 73.4688C149.515 73.4688 143.848 79.1351 143.848 86.125V87.5868C146.982 87.5312 150.42 87.5312 154.193 87.5312H158.815C162.589 87.5312 166.027 87.5312 169.161 87.5868V86.125C169.161 79.1351 163.494 73.4688 156.504 73.4688ZM177.598 87.9696V86.125C177.598 74.4752 168.154 65.0312 156.504 65.0312C144.855 65.0312 135.411 74.4752 135.411 86.125V87.9696C134.608 88.0387 133.832 88.1187 133.082 88.2113C127.401 88.9133 122.718 90.3878 118.739 93.6897C114.761 96.9916 112.448 101.323 110.711 106.778C109.028 112.063 107.754 118.859 106.152 127.402L106.036 128.022C103.776 140.075 101.995 149.574 101.668 157.063C101.333 164.739 102.475 171.096 106.805 176.314C111.135 181.531 117.173 183.825 124.779 184.91C132.2 185.969 141.864 185.969 154.127 185.969H158.881C171.145 185.969 180.809 185.969 188.23 184.91C195.836 183.825 201.874 181.531 206.204 176.314C210.534 171.096 211.676 164.739 211.341 157.063C211.014 149.574 209.233 140.076 206.973 128.022L206.856 127.402C205.255 118.859 203.981 112.063 202.297 106.778C200.561 101.323 198.248 96.9916 194.27 93.6897C190.291 90.3878 185.608 88.9133 179.926 88.2113C179.177 88.1187 178.401 88.0387 177.598 87.9696ZM134.117 96.5852C129.304 97.1798 126.398 98.2982 124.128 100.182C121.857 102.067 120.222 104.717 118.751 109.338C117.244 114.069 116.059 120.351 114.393 129.234C112.055 141.706 110.395 150.614 110.097 157.431C109.805 164.132 110.88 168.012 113.298 170.925C115.716 173.838 119.331 175.61 125.971 176.557C132.726 177.521 141.787 177.531 154.476 177.531H158.533C171.222 177.531 180.283 177.521 187.038 176.557C193.678 175.61 197.293 173.838 199.711 170.925C202.129 168.012 203.204 164.132 202.911 157.431C202.614 150.614 200.954 141.706 198.615 129.234C196.95 120.351 195.764 114.069 194.258 109.338C192.786 104.717 191.151 102.067 188.881 100.182C186.611 98.2982 183.704 97.1798 178.892 96.5852C173.964 95.9763 167.571 95.9688 158.533 95.9688H154.476C145.438 95.9688 139.045 95.9763 134.117 96.5852ZM142.271 122.517C143.919 120.869 146.59 120.869 148.237 122.517L156.504 130.784L164.771 122.517C166.419 120.869 169.09 120.869 170.737 122.517C172.385 124.165 172.385 126.836 170.737 128.483L162.471 136.75L170.737 145.017C172.385 146.664 172.385 149.335 170.737 150.983C169.09 152.631 166.419 152.631 164.771 150.983L156.504 142.716L148.237 150.983C146.59 152.631 143.919 152.631 142.271 150.983C140.624 149.336 140.624 146.664 142.271 145.017L150.538 136.75L142.271 128.483C140.624 126.836 140.624 124.164 142.271 122.517Z" fill="url(#paint1_linear_516_12178)"/>
<defs>
<linearGradient id="paint0_linear_516_12178" x1="156" y1="0" x2="156" y2="312" gradientUnits="userSpaceOnUse">
<stop stop-color="#353535"/>
<stop offset="0.641458" stop-color="#1C1C1C"/>
</linearGradient>
<linearGradient id="paint1_linear_516_12178" x1="156.504" y1="65.0312" x2="156.504" y2="185.969" gradientUnits="userSpaceOnUse">
<stop stop-color="#A9A9A9"/>
<stop offset="0.988383" stop-color="#1C1C1C"/>
</linearGradient>
</defs>
</svg>
