<svg width="13" height="14" viewBox="0 0 13 14" fill="none" xmlns="http://www.w3.org/2000/svg">
<path d="M0.723145 6.99972C0.723145 7.3643 1.0282 7.66192 1.38535 7.66192H6.19934V12.4759C6.19934 12.8331 6.49695 13.1381 6.86154 13.1381C7.22612 13.1381 7.53118 12.8331 7.53118 12.4759V7.66192H12.3377C12.6949 7.66192 12.9999 7.3643 12.9999 6.99972C12.9999 6.63514 12.6949 6.33008 12.3377 6.33008H7.53118V1.52353C7.53118 1.16639 7.22612 0.861328 6.86154 0.861328C6.49695 0.861328 6.19934 1.16639 6.19934 1.52353V6.33008H1.38535C1.0282 6.33008 0.723145 6.63514 0.723145 6.99972Z" fill="#0A0A0A"/>
</svg>
