<svg width="38" height="25" viewBox="0 0 38 25" fill="none" xmlns="http://www.w3.org/2000/svg">
<g clip-path="url(#clip0_511_11448)">
<rect y="0.5" width="38" height="24" rx="8" fill="white"/>
<g clip-path="url(#clip1_511_11448)">
<path d="M2 -4H36V30H2V-4Z" fill="#FEFEFE"/>
<path d="M31.1442 10.5327C31.4898 10.5186 31.8135 10.5848 32.0921 10.8C32.4108 11.0463 32.5881 11.4232 32.635 11.8178C32.6877 12.2605 32.591 12.764 32.3075 13.1174C32.0516 13.4363 31.7242 13.5666 31.3281 13.6124C30.9491 13.6262 30.6021 13.5711 30.3024 13.3209C29.992 13.0619 29.8213 12.6796 29.7883 12.2809C29.751 11.8313 29.8599 11.3392 30.1589 10.9913C30.4158 10.6924 30.7587 10.5604 31.1442 10.5327Z" fill="#223E79"/>
<path d="M31.096 11.1953C31.2443 11.191 31.3767 11.1988 31.5096 11.2741C31.6803 11.3709 31.7801 11.5389 31.8304 11.7243C31.9067 12.0061 31.9069 12.4065 31.7531 12.662C31.6574 12.8211 31.5265 12.9035 31.3508 12.9504C31.1924 12.9648 31.034 12.9512 30.8954 12.8663C30.7297 12.7648 30.6356 12.5917 30.5904 12.4074C30.5203 12.121 30.5234 11.7256 30.6854 11.4702C30.7862 11.3114 30.9181 11.2377 31.096 11.1953Z" fill="#FEFEFE"/>
<path d="M7.61822 9.70267C7.78384 9.68147 7.96504 9.69661 8.12752 9.73348C8.4456 9.80578 8.72743 9.98428 8.9011 10.2645C9.09147 10.5715 9.10714 10.9284 9.02351 11.2731C8.8192 12.1151 8.12937 12.7204 7.41741 13.155C7.12885 13.3311 6.66906 13.5889 6.3161 13.494C6.30254 13.4905 6.28919 13.4863 6.27606 13.4814C6.26292 13.4764 6.25007 13.4709 6.2375 13.4647C6.22492 13.4585 6.2127 13.4517 6.20082 13.4442C6.18894 13.4368 6.17746 13.4287 6.1664 13.4201C6.15533 13.4115 6.14473 13.4024 6.13459 13.3927C6.12445 13.383 6.11482 13.3728 6.10571 13.3622C6.0966 13.3515 6.08806 13.3404 6.08007 13.3289C6.07209 13.3174 6.0647 13.3055 6.05792 13.2932C5.98226 13.1539 5.99326 12.9826 6.03388 12.8346C6.10992 12.5574 6.29931 12.2808 6.55506 12.1417C6.66906 12.0797 6.80174 12.0464 6.92795 12.0903C7.00419 12.1168 7.08591 12.173 7.11694 12.2503C7.23435 12.5425 6.66233 12.809 6.5393 13.1379L6.53168 13.1589C6.53837 13.1658 6.54439 13.1735 6.55178 13.1797C6.58561 13.2081 6.63023 13.2079 6.67145 13.202C7.13921 13.1352 7.83617 12.4663 8.10091 12.0923C8.2721 11.8505 8.4417 11.5466 8.38194 11.2373C8.36126 11.1304 8.30783 11.0227 8.21331 10.963C7.8429 10.7292 6.90329 11.4756 6.56037 11.668C6.40264 11.7565 6.23288 11.8304 6.05469 11.8654C5.88622 11.8985 5.66904 11.8979 5.52333 11.7949C5.42743 11.7271 5.377 11.6208 5.361 11.5065C5.32252 11.2315 5.49162 10.938 5.65775 10.7308C6.08706 10.1952 6.94057 9.77488 7.61822 9.70267Z" fill="#EC2025"/>
<path d="M11.4585 10.3676C11.48 10.3662 11.5008 10.3652 11.5224 10.3654C11.8323 10.3682 12.149 10.4435 12.37 10.6752C12.4869 10.7978 12.5622 10.9527 12.6001 11.1168C12.6632 11.39 12.6374 11.689 12.6375 11.9677L12.6366 13.0822C12.5715 13.1476 12.5003 13.2055 12.4231 13.256C12.0491 13.5044 11.5074 13.629 11.0649 13.5342C10.7465 13.4659 10.4963 13.285 10.3201 13.014C10.2977 12.9752 10.2779 12.935 10.2606 12.8936C10.2434 12.8523 10.2289 12.8099 10.217 12.7667C10.2052 12.7234 10.1961 12.6796 10.1899 12.6352C10.1836 12.5908 10.1802 12.5462 10.1797 12.5014C10.1778 12.246 10.2739 11.9864 10.4573 11.8064C10.8215 11.4489 11.3712 11.4854 11.841 11.4828C11.8435 11.3857 11.8504 11.2754 11.8212 11.1821C11.7913 11.0865 11.7308 11.0102 11.6386 10.9691C11.3339 10.8332 10.885 11.0403 10.6017 11.1551C10.5284 11.0013 10.4616 10.8442 10.3927 10.6884C10.7246 10.5071 11.0805 10.3909 11.4585 10.3676Z" fill="#EC2025"/>
<path d="M11.6771 12.0116L11.8379 12.0173C11.8409 12.3263 11.8389 12.6352 11.832 12.9442C11.6338 13.0031 11.4492 13.0388 11.2453 12.9802C11.2121 12.9551 11.1783 12.9283 11.1488 12.899C11.0539 12.8047 10.9975 12.6668 10.9962 12.5335C10.9959 12.5173 10.9964 12.501 10.9978 12.4847C10.9992 12.4685 11.0013 12.4524 11.0043 12.4363C11.0073 12.4203 11.0111 12.4045 11.0156 12.3888C11.0202 12.3732 11.0256 12.3578 11.0317 12.3427C11.0378 12.3276 11.0447 12.3128 11.0523 12.2984C11.0599 12.284 11.0682 12.2699 11.0772 12.2564C11.0862 12.2428 11.0958 12.2297 11.1062 12.2171C11.1165 12.2044 11.1274 12.1924 11.1389 12.1808C11.2916 12.0286 11.4747 12.0162 11.6771 12.0116Z" fill="#FEFEFE"/>
<path d="M19.3712 10.3998C19.4097 10.397 19.4484 10.395 19.487 10.3938C19.7874 10.3858 20.0894 10.4528 20.311 10.6695C20.6658 11.0163 20.6965 11.5919 20.7073 12.0565L19.0323 12.0588C19.0292 12.2999 19.0479 12.5924 19.1954 12.7936C19.286 12.9172 19.4184 12.9881 19.5691 13.0084C19.8778 13.0498 20.2487 12.9217 20.4962 12.7412L20.5744 12.8845C20.6274 12.9921 20.6753 13.1017 20.7234 13.2116C20.4628 13.3719 20.1923 13.4991 19.8875 13.5459C19.5139 13.6033 19.1084 13.5664 18.7974 13.3346C18.473 13.0929 18.3002 12.6984 18.2468 12.3059C18.1813 11.8232 18.2706 11.2253 18.577 10.8328C18.7842 10.5675 19.0402 10.4388 19.3712 10.3998Z" fill="#EC2025"/>
<path d="M19.4206 10.9767C19.5184 10.9674 19.6108 10.974 19.6931 11.0334C19.8563 11.1511 19.8737 11.3904 19.8993 11.5728L19.5562 11.5729L19.0586 11.5747C19.069 11.4717 19.086 11.3672 19.1235 11.2703C19.1821 11.1192 19.2745 11.0387 19.4206 10.9767Z" fill="#FEFEFE"/>
<path d="M28.4581 10.5504C28.4621 10.55 28.4661 10.5496 28.4702 10.5495C28.7334 10.5419 29.0394 10.5883 29.2329 10.7822C29.4312 10.9807 29.4169 11.2158 29.4121 11.4729C29.3119 11.4422 29.2201 11.3903 29.1248 11.3473C28.924 11.2567 28.726 11.2082 28.5055 11.2025C28.228 11.1953 27.9587 11.2666 27.7561 11.4661C27.5812 11.6385 27.4993 11.8745 27.4995 12.117C27.4998 12.3735 27.5697 12.6506 27.7602 12.8331C27.9515 13.0162 28.244 13.0787 28.5027 13.063C28.5758 13.0586 28.6506 13.0323 28.6978 12.974C28.8374 12.8015 28.7267 12.326 28.6975 12.1165C28.8203 12.1151 28.9458 12.1094 29.0683 12.1165C29.2239 12.1255 29.3248 12.1843 29.4271 12.2976C29.4519 12.3483 29.4612 12.4004 29.4658 12.4562C29.4903 12.7494 29.5099 13.1774 29.3063 13.4113C29.1105 13.6363 28.82 13.6911 28.5371 13.7105C28.07 13.7426 27.5846 13.626 27.2267 13.312C26.9314 13.0529 26.7622 12.6876 26.7382 12.297C26.7115 11.8637 26.8229 11.4413 27.1163 11.1133C27.4671 10.7211 27.9472 10.5757 28.4581 10.5504Z" fill="#223E79"/>
<path d="M23.517 9.91772C23.5674 9.9191 23.606 9.92158 23.654 9.94004C23.6926 10.1327 23.6612 10.3897 23.6603 10.5897L24.6775 10.5889C24.6813 10.7698 24.7064 10.9942 24.5704 11.1374C24.4074 11.3092 23.8936 11.2496 23.6569 11.2523C23.6611 11.5615 23.6134 12.3966 23.6926 12.6365C23.7291 12.7475 23.8024 12.8405 23.9099 12.8899C24.1386 12.995 24.455 12.902 24.6777 12.8192L24.6784 13.0706C24.6801 13.165 24.6637 13.2617 24.6145 13.3434C24.5421 13.464 24.4096 13.5366 24.2749 13.5652C23.977 13.6286 23.5789 13.5799 23.323 13.4091C23.1046 13.2634 22.9998 13.0532 22.9513 12.8015C22.8773 12.4171 22.9168 11.9216 22.9167 11.5263C22.9166 11.2068 22.8868 10.8532 22.9353 10.5376C22.9537 10.418 22.9893 10.3124 23.0601 10.2131C23.1756 10.051 23.3204 9.94818 23.517 9.91772Z" fill="#223E79"/>
<path d="M17.3671 9.58574C17.3901 9.58042 17.404 9.58388 17.427 9.58759C17.4809 9.70991 17.443 10.2486 17.4483 10.4246L17.9544 10.4236L17.9561 10.9943L17.4455 10.9948C17.4501 11.3627 17.445 11.7313 17.4453 12.0993C17.4453 12.2949 17.4317 12.5042 17.461 12.6974C17.4736 12.7808 17.4922 12.8501 17.5532 12.9109C17.6607 13.0181 17.8137 13.0123 17.9545 13.0159C17.9528 13.1729 17.9774 13.3306 17.9436 13.4854C17.9108 13.5231 17.8969 13.5164 17.8485 13.5216C17.7858 13.5256 17.7226 13.527 17.6598 13.5278C17.3809 13.5315 17.0861 13.4739 16.8829 13.2677C16.7836 13.167 16.7122 13.0306 16.6834 12.8923C16.6117 12.5471 16.6517 12.0849 16.6521 11.7231L16.654 9.6946C16.8922 9.66409 17.1297 9.62279 17.3671 9.58574Z" fill="#EC2025"/>
<path d="M16.7808 14.0293L17.2448 14.0304C17.4112 14.6055 17.6345 15.1646 17.7866 15.7443C17.9724 15.1711 18.1629 14.5994 18.3581 14.0293L18.8132 14.0308C18.9273 14.7576 18.9944 15.4928 19.12 16.2179C18.9561 16.2214 18.7918 16.2194 18.6279 16.2199C18.5992 15.957 18.568 15.6944 18.5344 15.4321C18.5039 15.2235 18.4817 15.0129 18.4557 14.8036C18.3172 15.2788 18.1448 15.7436 18.0072 16.2191L17.5274 16.219C17.3983 15.7412 17.2254 15.2626 17.0663 14.7936C17.0534 15.2674 16.9691 15.7497 16.9107 16.2198L16.4844 16.2205C16.5678 15.4886 16.692 14.7608 16.7808 14.0293Z" fill="#223E79"/>
<path d="M27.5176 14.1256C27.6332 14.2007 27.7365 14.3598 27.8331 14.4633C27.9372 14.5748 28.0556 14.6769 28.1783 14.7674C28.6686 15.1291 29.2849 15.2355 29.879 15.1452C30.5982 15.0357 31.0917 14.6828 31.5172 14.1096C31.5214 14.3873 31.5288 14.6344 31.4406 14.9013C31.3696 15.0746 31.2618 15.2238 31.1283 15.3545C31.1015 15.3803 31.074 15.4054 31.0459 15.4299C31.0179 15.4543 30.9892 15.4781 30.96 15.5012C30.9308 15.5243 30.901 15.5467 30.8708 15.5683C30.8404 15.59 30.8096 15.6109 30.7783 15.631C30.747 15.6512 30.7152 15.6706 30.683 15.6892C30.6507 15.7078 30.6181 15.7256 30.5849 15.7427C30.5518 15.7597 30.5183 15.7759 30.4844 15.7913C30.4505 15.8067 30.4163 15.8213 30.3817 15.8351C30.3471 15.8489 30.3122 15.8618 30.277 15.8739C30.2417 15.8859 30.2062 15.8971 30.1704 15.9075C30.1347 15.9178 30.0987 15.9273 30.0624 15.9359C30.0262 15.9445 29.9898 15.9523 29.9532 15.9591C29.9166 15.966 29.8799 15.9719 29.843 15.977C29.8061 15.9821 29.7691 15.9863 29.732 15.9895C29.6949 15.9928 29.6577 15.9952 29.6205 15.9967C29.5833 15.9982 29.5461 15.9988 29.5089 15.9984C28.8975 15.9882 28.2928 15.746 27.8671 15.3021C27.5286 14.9491 27.5068 14.5882 27.5176 14.1256Z" fill="#223E79"/>
<path d="M21.8471 9.5849C21.8597 9.58251 21.8753 9.57923 21.8877 9.57875C21.8927 9.57857 21.9361 9.58039 21.9373 9.58136C21.9682 9.60704 21.9546 9.83694 21.9545 9.88599L21.953 11.765C21.9528 12.0681 21.9255 12.3963 21.962 12.696C21.9716 12.7745 21.9831 12.8454 22.0402 12.9038C22.1467 13.0125 22.3097 13.0125 22.4515 13.0137L22.4529 13.5128C22.241 13.5438 22.038 13.5388 21.8263 13.5103C21.678 13.4715 21.5423 13.4169 21.428 13.3106C21.3079 13.1989 21.2375 13.057 21.2046 12.898C21.1335 12.5545 21.1689 12.1608 21.1693 11.8106C21.17 11.108 21.1868 10.4012 21.165 9.69916C21.3917 9.65804 21.6199 9.62288 21.8471 9.5849Z" fill="#EC2025"/>
<path d="M15.7677 10.3831C16.0013 10.3531 16.2427 10.3944 16.4656 10.4621C16.388 10.6265 16.3147 10.7929 16.2457 10.9611C15.9243 10.9131 15.6743 10.9381 15.3957 11.1155C15.3799 11.6754 15.3906 12.2378 15.3907 12.798C15.3908 13.0231 15.4119 13.2696 15.3893 13.4926L15.3629 13.5111L14.5977 13.5096L14.5994 10.966C14.911 10.6316 15.3152 10.4329 15.7677 10.3831Z" fill="#EC2025"/>
<path d="M13.9328 10.4333C13.9433 10.4308 13.9645 10.4335 13.9756 10.4338C14.0068 10.4858 13.9869 13.1326 13.9879 13.5113L13.2688 13.5106C13.2325 13.5097 13.2509 13.5139 13.2144 13.494C13.1708 13.3598 13.2026 12.811 13.2026 12.626L13.2029 10.5468C13.4456 10.5047 13.6889 10.4669 13.9328 10.4333Z" fill="#EC2025"/>
<path d="M25.2003 10.6551C25.2829 10.6548 25.3664 10.6562 25.449 10.6607C25.5933 10.6685 25.7423 10.7068 25.8338 10.8269C26.1225 11.2059 25.7801 12.6125 26.0399 12.8768C26.1515 12.9903 26.378 12.9757 26.526 12.9826C26.5258 13.1646 26.5403 13.3271 26.43 13.4823C26.325 13.5588 26.2012 13.5884 26.0726 13.5877C25.8478 13.5866 25.592 13.5135 25.4329 13.3501C25.3301 13.2445 25.2704 13.1175 25.2394 12.9748C25.1725 12.6677 25.2016 12.3215 25.2016 12.0073L25.2003 10.6551Z" fill="#223E79"/>
<path d="M20.1367 14.5946C20.1502 14.5924 20.1636 14.5905 20.1771 14.5889C20.1907 14.5874 20.2043 14.5862 20.2178 14.5853C20.2314 14.5844 20.245 14.5839 20.2586 14.5836C20.2722 14.5834 20.2859 14.5835 20.2995 14.5839C20.3131 14.5844 20.3267 14.5852 20.3402 14.5863C20.3538 14.5874 20.3673 14.5888 20.3808 14.5906C20.3943 14.5923 20.4078 14.5944 20.4212 14.5969C20.4346 14.5993 20.4479 14.6021 20.4611 14.6051C20.4744 14.6082 20.4876 14.6116 20.5007 14.6153C20.5138 14.6191 20.5268 14.6231 20.5397 14.6274C20.5526 14.6318 20.5654 14.6365 20.578 14.6415C20.5907 14.6465 20.6032 14.6518 20.6156 14.6573C20.628 14.6629 20.6403 14.6688 20.6524 14.675C20.6646 14.6812 20.6765 14.6877 20.6883 14.6945C20.7001 14.7013 20.7117 14.7084 20.7232 14.7157C20.7347 14.7231 20.7459 14.7307 20.757 14.7386C20.7681 14.7465 20.779 14.7547 20.7897 14.7631C20.8004 14.7715 20.8108 14.7802 20.8211 14.7892C20.8314 14.7981 20.8414 14.8073 20.8512 14.8167C20.861 14.8262 20.8706 14.8359 20.8799 14.8458C20.8893 14.8557 20.8983 14.8658 20.9072 14.8762C20.916 14.8865 20.9246 14.8971 20.9329 14.9079C20.9413 14.9186 20.9493 14.9296 20.9571 14.9408C20.9649 14.952 20.9724 14.9633 20.9796 14.9748C20.9869 14.9864 20.9938 14.9981 21.0005 15.0099C21.0071 15.0218 21.0135 15.0338 21.0196 15.046C21.0257 15.0582 21.0314 15.0705 21.0369 15.083C21.0423 15.0955 21.0475 15.1081 21.0524 15.1208C21.0572 15.1335 21.0618 15.1463 21.066 15.1593C21.0702 15.1722 21.0741 15.1853 21.0777 15.1984C21.0813 15.2115 21.0845 15.2247 21.0875 15.238C21.0904 15.2513 21.0931 15.2647 21.0953 15.2781C21.0976 15.2915 21.0996 15.305 21.1012 15.3185C21.1028 15.332 21.1041 15.3456 21.1051 15.3592C21.1061 15.3727 21.1067 15.3863 21.107 15.3999C21.1073 15.4135 21.1073 15.4271 21.1069 15.4407C21.1065 15.4544 21.1058 15.4679 21.1048 15.4815C21.1038 15.4951 21.1024 15.5086 21.1007 15.5222C21.099 15.5357 21.097 15.5491 21.0947 15.5625C21.0923 15.5759 21.0896 15.5893 21.0866 15.6026C21.0836 15.6158 21.0803 15.629 21.0766 15.6422C21.073 15.6553 21.069 15.6683 21.0647 15.6812C21.0604 15.6942 21.0558 15.707 21.0509 15.7197C21.046 15.7323 21.0408 15.7449 21.0353 15.7574C21.0297 15.7698 21.0239 15.7821 21.0178 15.7943C21.0116 15.8064 21.0052 15.8184 20.9985 15.8302C20.9918 15.8421 20.9848 15.8537 20.9775 15.8653C20.9702 15.8767 20.9626 15.8881 20.9548 15.8992C20.947 15.9103 20.9388 15.9213 20.9305 15.932C20.9221 15.9427 20.9134 15.9532 20.9046 15.9635C20.8957 15.9739 20.8865 15.984 20.8772 15.9938C20.8678 16.0037 20.8582 16.0133 20.8483 16.0227C20.8384 16.0321 20.8284 16.0412 20.8181 16.0501C20.8078 16.059 20.7972 16.0677 20.7865 16.076C20.7758 16.0844 20.7649 16.0925 20.7537 16.1004C20.7426 16.1082 20.7313 16.1158 20.7198 16.1231C20.7083 16.1304 20.6966 16.1374 20.6848 16.1442C20.673 16.1509 20.661 16.1573 20.6489 16.1635C20.6367 16.1696 20.6244 16.1754 20.6119 16.181C20.5995 16.1865 20.5869 16.1917 20.5743 16.1967C20.5616 16.2016 20.5488 16.2062 20.5358 16.2105C20.5229 16.2148 20.5099 16.2188 20.4968 16.2224C20.4837 16.2261 20.4705 16.2294 20.4572 16.2324C20.4439 16.2355 20.4306 16.2381 20.4172 16.2405C20.4037 16.2429 20.3901 16.2449 20.3765 16.2467C20.3629 16.2484 20.3493 16.2497 20.3356 16.2508C20.3219 16.2518 20.3082 16.2525 20.2946 16.2529C20.2808 16.2532 20.2671 16.2533 20.2534 16.2529C20.2397 16.2526 20.226 16.252 20.2123 16.251C20.1987 16.25 20.185 16.2487 20.1714 16.2471C20.1578 16.2454 20.1442 16.2434 20.1308 16.2411C20.1172 16.2387 20.1038 16.2361 20.0904 16.2331C20.077 16.2301 20.0637 16.2268 20.0505 16.2231C20.0373 16.2195 20.0241 16.2155 20.0111 16.2112C19.9981 16.207 19.9852 16.2024 19.9724 16.1974C19.9596 16.1925 19.947 16.1873 19.9344 16.1817C19.9219 16.1762 19.9095 16.1703 19.8972 16.1641C19.885 16.158 19.8729 16.1515 19.861 16.1448C19.849 16.138 19.8373 16.131 19.8257 16.1236C19.8141 16.1163 19.8027 16.1087 19.7915 16.1008C19.7803 16.0929 19.7693 16.0847 19.7585 16.0763C19.7477 16.0678 19.7371 16.0591 19.7267 16.0502C19.7163 16.0412 19.7062 16.032 19.6962 16.0226C19.6863 16.0131 19.6766 16.0034 19.6672 15.9934C19.6577 15.9835 19.6486 15.9733 19.6396 15.9629C19.6307 15.9525 19.622 15.9419 19.6136 15.9311C19.6051 15.9203 19.597 15.9093 19.5891 15.8981C19.5812 15.8868 19.5736 15.8754 19.5663 15.8638C19.559 15.8522 19.552 15.8405 19.5452 15.8285C19.5385 15.8166 19.5321 15.8045 19.5259 15.7922C19.5198 15.78 19.5139 15.7676 19.5084 15.755C19.5029 15.7425 19.4977 15.7298 19.4928 15.717C19.4879 15.7042 19.4833 15.6913 19.479 15.6783C19.4747 15.6652 19.4708 15.6521 19.4672 15.6389C19.4635 15.6256 19.4603 15.6123 19.4573 15.599C19.4543 15.5856 19.4517 15.5721 19.4494 15.5586C19.4471 15.5451 19.4451 15.5315 19.4435 15.5179C19.4418 15.5043 19.4405 15.4907 19.4396 15.477C19.4386 15.4633 19.438 15.4496 19.4377 15.4359C19.4374 15.4222 19.4374 15.4085 19.4378 15.3947C19.4382 15.3811 19.439 15.3674 19.44 15.3537C19.4411 15.34 19.4425 15.3264 19.4442 15.3128C19.4459 15.2992 19.448 15.2856 19.4504 15.2721C19.4528 15.2586 19.4555 15.2452 19.4586 15.2318C19.4617 15.2185 19.4651 15.2052 19.4688 15.192C19.4725 15.1788 19.4765 15.1657 19.4809 15.1527C19.4853 15.1397 19.4899 15.1268 19.4949 15.114C19.4999 15.1013 19.5052 15.0886 19.5109 15.0761C19.5165 15.0636 19.5224 15.0513 19.5286 15.039C19.5349 15.0268 19.5414 15.0148 19.5482 15.0029C19.5551 14.991 19.5622 14.9793 19.5696 14.9677C19.577 14.9562 19.5846 14.9448 19.5926 14.9337C19.6006 14.9225 19.6088 14.9115 19.6173 14.9008C19.6258 14.89 19.6346 14.8795 19.6436 14.8692C19.6526 14.8588 19.6619 14.8487 19.6714 14.8388C19.6809 14.829 19.6907 14.8194 19.7007 14.81C19.7106 14.8006 19.7208 14.7915 19.7313 14.7826C19.7417 14.7737 19.7524 14.7651 19.7633 14.7567C19.7741 14.7483 19.7852 14.7402 19.7965 14.7324C19.8077 14.7246 19.8192 14.7171 19.8308 14.7098C19.8424 14.7026 19.8543 14.6956 19.8662 14.6889C19.8782 14.6823 19.8904 14.6759 19.9027 14.6698C19.9149 14.6637 19.9274 14.658 19.9399 14.6525C19.9525 14.647 19.9653 14.6419 19.9781 14.6371C19.9909 14.6323 20.0038 14.6277 20.0169 14.6236C20.03 14.6194 20.0431 14.6155 20.0564 14.612C20.0696 14.6084 20.0829 14.6051 20.0963 14.6023C20.1097 14.5994 20.1232 14.5968 20.1367 14.5946Z" fill="#223E79"/>
<path d="M20.2115 14.9093C20.2624 14.9097 20.3093 14.9132 20.3579 14.9301C20.4534 14.9633 20.5231 15.0487 20.5617 15.1397C20.6329 15.3071 20.6311 15.5549 20.5599 15.7223C20.5129 15.8328 20.4572 15.8799 20.3471 15.9237C20.291 15.9243 20.2306 15.9283 20.1773 15.9077C20.0905 15.8743 20.0248 15.7998 19.987 15.7165C19.9139 15.5558 19.9113 15.3058 19.9761 15.1429C20.0241 15.0221 20.0948 14.9607 20.2115 14.9093Z" fill="#FEFEFE"/>
<path d="M24.0478 14.5819C24.0808 14.5791 24.1139 14.5773 24.147 14.5765C24.3277 14.5731 24.5136 14.6215 24.6437 14.7526C24.8493 14.9598 24.8447 15.2526 24.8443 15.5229L23.8209 15.5236C23.851 15.6466 23.88 15.7703 23.987 15.8497C24.207 16.013 24.4286 15.8581 24.6523 15.8268L24.6839 15.8624L24.7967 16.1098C24.7045 16.1591 24.6078 16.197 24.5067 16.2236C24.247 16.2903 23.9457 16.2825 23.7133 16.1374C23.5345 16.0258 23.4187 15.84 23.3773 15.6352C23.3267 15.3851 23.3609 15.0985 23.512 14.8886C23.6455 14.703 23.8299 14.6222 24.0478 14.5819Z" fill="#223E79"/>
<path d="M24.0418 14.9109C24.1117 14.9022 24.1859 14.8961 24.2516 14.9267C24.3617 14.9779 24.3925 15.1062 24.4286 15.2111L24.1748 15.2144C24.0569 15.2163 23.9383 15.2119 23.8203 15.2103C23.8663 15.0705 23.9072 14.9803 24.0418 14.9109Z" fill="#FEFEFE"/>
<path d="M26.2963 14.6147L26.7569 14.6155L26.2245 16.0515C26.1263 16.3134 26.0344 16.6674 25.8069 16.8494C25.6062 17.0101 25.3412 16.9947 25.1016 16.9636L25.1522 16.6167C25.2654 16.6211 25.3853 16.6334 25.4902 16.5821C25.6399 16.5089 25.6846 16.3274 25.7331 16.1822C25.536 15.6715 25.2972 15.138 25.1399 14.6168C25.2974 14.614 25.4553 14.6161 25.6129 14.6158C25.7195 14.9731 25.8508 15.3258 25.9675 15.6801L26.2963 14.6147Z" fill="#223E79"/>
<path d="M22.3679 14.5807C22.3743 14.5801 22.3807 14.5792 22.3871 14.5788C22.5309 14.5695 22.6788 14.5872 22.7872 14.6914C22.8557 14.7571 22.8971 14.844 22.9172 14.936C22.9743 15.1962 22.9369 15.9112 22.9374 16.2202L22.486 16.219C22.485 15.9899 22.5423 15.18 22.4346 15.0242C22.4046 14.9807 22.3632 14.9565 22.3107 14.9488C22.2179 14.9353 22.1198 15.0065 22.0476 15.0553C22.0329 15.0681 22.0183 15.0811 22.0049 15.0954C21.9201 15.1858 21.9632 16.0365 21.9643 16.2203L21.5131 16.2204C21.502 15.6862 21.5118 15.1498 21.5122 14.6154C21.6077 14.6146 21.8388 14.5913 21.9181 14.6164C21.9714 14.6332 21.935 14.718 21.9666 14.7633C22.106 14.7091 22.1895 14.6183 22.3456 14.5852L22.3679 14.5807Z" fill="#223E79"/>
<path d="M31.0998 9.02228C31.1469 9.01835 31.1941 9.01665 31.2414 9.01718C31.6449 9.01962 32.0786 9.15469 32.3658 9.44989C32.604 9.69466 32.5818 9.94036 32.5759 10.253C32.5637 10.2372 32.5514 10.2217 32.5385 10.2064C32.2387 9.85244 31.8667 9.64596 31.4036 9.60577C31.3438 9.59744 31.2774 9.5997 31.217 9.60107C30.6569 9.61378 30.2955 9.84186 29.9219 10.2346C29.9229 9.94935 29.9087 9.70861 30.1071 9.47543C30.3437 9.19732 30.7466 9.05698 31.0998 9.02228Z" fill="#223E79"/>
<path d="M13.4892 9.20294C13.4971 9.20114 13.5051 9.19953 13.5131 9.19811C13.5211 9.1967 13.5292 9.19548 13.5373 9.19448C13.5453 9.19345 13.5534 9.19262 13.5615 9.192C13.5696 9.19138 13.5778 9.19095 13.5859 9.19072C13.594 9.19051 13.6022 9.1905 13.6103 9.19067C13.6185 9.19085 13.6266 9.19122 13.6347 9.19178C13.6428 9.19237 13.6509 9.19315 13.659 9.19413C13.6671 9.19507 13.6751 9.19624 13.6831 9.19763C13.6912 9.19898 13.6992 9.20053 13.7071 9.20227C13.715 9.20405 13.7229 9.20601 13.7308 9.20816C13.7386 9.21029 13.7464 9.21262 13.7542 9.21516C13.7619 9.21769 13.7696 9.22041 13.7772 9.2233C13.7848 9.22619 13.7923 9.22928 13.7998 9.23256C13.8072 9.23583 13.8146 9.23928 13.8219 9.24291C13.8292 9.24655 13.8363 9.25035 13.8435 9.25434C13.8505 9.25832 13.8575 9.26248 13.8644 9.26682C13.8713 9.27113 13.8781 9.27562 13.8848 9.28028C13.8914 9.28494 13.898 9.28977 13.9044 9.29476C13.9108 9.29974 13.9172 9.30488 13.9234 9.31016C13.9295 9.31544 13.9356 9.32088 13.9415 9.32645C13.9474 9.33206 13.9532 9.3378 13.9588 9.34368C13.9645 9.34955 13.9699 9.35555 13.9753 9.36169C13.9806 9.36783 13.9858 9.37409 13.9909 9.38046C13.9959 9.38687 14.0008 9.39339 14.0055 9.40003C14.0102 9.40664 14.0147 9.41339 14.0191 9.42026C14.0235 9.42711 14.0277 9.43406 14.0318 9.44111C14.0358 9.4482 14.0397 9.45535 14.0434 9.46259C14.0471 9.46985 14.0506 9.4772 14.0539 9.48463C14.0572 9.49204 14.0604 9.49954 14.0634 9.50712C14.0663 9.51471 14.0691 9.52235 14.0717 9.53006C14.0743 9.53779 14.0767 9.54556 14.0789 9.55339C14.0811 9.56121 14.0831 9.56909 14.0849 9.57703C14.0868 9.58497 14.0884 9.59293 14.0898 9.60093C14.0913 9.60896 14.0925 9.617 14.0935 9.62506C14.0946 9.63315 14.0954 9.64123 14.0961 9.64932C14.0967 9.65744 14.0972 9.66557 14.0974 9.67371C14.0976 9.68183 14.0977 9.68996 14.0975 9.69811C14.0973 9.70625 14.097 9.71438 14.0965 9.7225C14.0959 9.73062 14.0951 9.73872 14.0942 9.7468C14.0932 9.75489 14.0921 9.76295 14.0907 9.77098C14.0894 9.779 14.0878 9.78699 14.0861 9.79493C14.0844 9.80287 14.0824 9.81076 14.0803 9.81861C14.0782 9.82649 14.0759 9.8343 14.0733 9.84203C14.0709 9.84976 14.0682 9.85744 14.0653 9.86505C14.0624 9.87267 14.0593 9.88021 14.0561 9.88767C14.0528 9.89511 14.0494 9.90248 14.0458 9.90977C14.0422 9.91706 14.0384 9.92426 14.0344 9.93137C14.0304 9.93848 14.0263 9.94549 14.022 9.9524C14.0177 9.95931 14.0132 9.96609 14.0085 9.97276C14.0039 9.97943 13.9991 9.986 13.9941 9.99246C13.9892 9.9989 13.9841 10.0052 13.9788 10.0114C13.9735 10.0176 13.9681 10.0237 13.9625 10.0296C13.9569 10.0355 13.9512 10.0413 13.9454 10.047C13.9395 10.0526 13.9335 10.0581 13.9274 10.0635C13.9212 10.0688 13.915 10.0741 13.9086 10.0791C13.9022 10.0841 13.8957 10.089 13.8891 10.0938C13.8825 10.0985 13.8758 10.1031 13.8689 10.1075C13.8621 10.1119 13.8552 10.1161 13.8481 10.1202C13.841 10.1242 13.8339 10.1281 13.8266 10.1318C13.8194 10.1355 13.8121 10.1391 13.8047 10.1424C13.7972 10.1458 13.7897 10.1489 13.7822 10.1519C13.7746 10.1549 13.7669 10.1577 13.7592 10.1603C13.7515 10.1629 13.7438 10.1653 13.736 10.1676C13.7281 10.1698 13.7203 10.1718 13.7123 10.1737C13.7044 10.1755 13.6964 10.1772 13.6883 10.1786C13.6803 10.1801 13.6722 10.1813 13.6642 10.1824C13.6561 10.1834 13.6479 10.1843 13.6398 10.185C13.6317 10.1856 13.6235 10.1861 13.6154 10.1863C13.6072 10.1866 13.599 10.1867 13.5909 10.1865C13.5827 10.1864 13.5745 10.186 13.5664 10.1855C13.5583 10.185 13.5501 10.1842 13.5421 10.1833C13.5339 10.1823 13.5259 10.1812 13.5178 10.1798C13.5097 10.1785 13.5017 10.177 13.4938 10.1752C13.4858 10.1735 13.4779 10.1715 13.47 10.1694C13.4621 10.1673 13.4543 10.165 13.4465 10.1625C13.4387 10.16 13.431 10.1573 13.4234 10.1544C13.4158 10.1515 13.4082 10.1484 13.4007 10.1452C13.3932 10.1419 13.3858 10.1385 13.3785 10.1348C13.3712 10.1312 13.364 10.1274 13.3568 10.1234C13.3497 10.1194 13.3427 10.1153 13.3358 10.111C13.3288 10.1066 13.322 10.1022 13.3153 10.0975C13.3086 10.0929 13.302 10.088 13.2956 10.083C13.2891 10.0781 13.2828 10.0729 13.2766 10.0676C13.2703 10.0623 13.2643 10.0569 13.2583 10.0513C13.2524 10.0457 13.2466 10.04 13.2409 10.0341C13.2353 10.0282 13.2297 10.0222 13.2244 10.016C13.219 10.0099 13.2138 10.0036 13.2087 9.9972C13.2037 9.9908 13.1988 9.98426 13.194 9.97759C13.1893 9.97095 13.1847 9.96419 13.1803 9.95731C13.1759 9.95047 13.1717 9.9435 13.1676 9.93642C13.1635 9.92933 13.1597 9.92215 13.156 9.91486C13.1522 9.9076 13.1487 9.90025 13.1454 9.89281C13.142 9.88534 13.1389 9.87782 13.1359 9.87023C13.1329 9.86262 13.1301 9.85494 13.1275 9.84721C13.1249 9.83948 13.1225 9.83169 13.1203 9.82384C13.1181 9.81599 13.1161 9.80808 13.1142 9.80011C13.1124 9.79214 13.1108 9.78414 13.1093 9.77611C13.1079 9.76808 13.1067 9.76003 13.1056 9.75194C13.1046 9.74382 13.1037 9.73571 13.1031 9.72759C13.1025 9.71945 13.102 9.71128 13.1018 9.70311C13.1015 9.69496 13.1015 9.6868 13.1016 9.67863C13.1018 9.67048 13.1022 9.66234 13.1028 9.65419C13.1033 9.64604 13.1041 9.63791 13.1051 9.6298C13.106 9.62171 13.1072 9.61364 13.1085 9.60558C13.1099 9.59752 13.1115 9.58951 13.1132 9.58154C13.1149 9.57357 13.1169 9.56565 13.119 9.55777C13.1212 9.54989 13.1235 9.54207 13.126 9.53431C13.1286 9.52654 13.1313 9.51886 13.1342 9.51124C13.1371 9.50363 13.1402 9.49607 13.1435 9.48857C13.1468 9.48111 13.1502 9.47371 13.1538 9.46639C13.1575 9.4591 13.1613 9.4519 13.1653 9.44479C13.1693 9.43768 13.1735 9.43065 13.1778 9.42372C13.1822 9.41681 13.1867 9.41001 13.1913 9.40331C13.196 9.39664 13.2009 9.39007 13.2059 9.38361C13.2108 9.37714 13.216 9.37081 13.2213 9.36462C13.2266 9.35842 13.2321 9.35235 13.2377 9.34642C13.2433 9.34049 13.2491 9.3347 13.255 9.32907C13.2608 9.32343 13.2669 9.31792 13.273 9.31255C13.2792 9.30721 13.2855 9.30202 13.2919 9.29697C13.2983 9.29192 13.3049 9.28704 13.3115 9.28232C13.3182 9.27759 13.3249 9.27303 13.3318 9.26864C13.3387 9.26427 13.3457 9.26006 13.3528 9.25602C13.3599 9.25198 13.3671 9.24811 13.3744 9.24442C13.3816 9.2407 13.389 9.23719 13.3964 9.23388C13.4039 9.23055 13.4114 9.2274 13.419 9.22445C13.4266 9.22147 13.4343 9.2187 13.442 9.21613C13.4498 9.21353 13.4576 9.21114 13.4655 9.20896C13.4733 9.20675 13.4812 9.20474 13.4892 9.20294Z" fill="#EC2025"/>
<path d="M25.4547 9.54023C25.4616 9.53831 25.4685 9.53657 25.4755 9.53501C25.4824 9.53341 25.4894 9.53201 25.4965 9.5308C25.5035 9.52956 25.5106 9.5285 25.5177 9.52761C25.5247 9.52673 25.5318 9.52602 25.539 9.52549C25.5461 9.52496 25.5532 9.5246 25.5603 9.52442C25.5675 9.52425 25.5746 9.52425 25.5818 9.52442C25.5889 9.52457 25.596 9.52491 25.6031 9.52544C25.6103 9.52597 25.6174 9.52667 25.6245 9.52752C25.6316 9.52841 25.6386 9.52946 25.6456 9.53067C25.6527 9.53191 25.6597 9.53331 25.6667 9.53487C25.6736 9.53644 25.6806 9.53816 25.6874 9.54005C25.6943 9.54197 25.7011 9.54405 25.7079 9.5463C25.7147 9.54854 25.7214 9.55094 25.7281 9.55351C25.7347 9.55608 25.7413 9.55882 25.7479 9.56175C25.7544 9.56464 25.7608 9.56769 25.7672 9.57091C25.7736 9.57413 25.7799 9.57751 25.7861 9.58105C25.7923 9.58456 25.7984 9.58823 25.8044 9.59207C25.8105 9.59591 25.8164 9.59988 25.8222 9.60398C25.8281 9.60811 25.8338 9.61238 25.8394 9.61677C25.845 9.62117 25.8505 9.62572 25.8559 9.63041C25.8613 9.63507 25.8666 9.63987 25.8718 9.6448C25.8769 9.64973 25.882 9.65479 25.8869 9.65998C25.8918 9.66518 25.8966 9.67048 25.9012 9.67588C25.9059 9.68131 25.9104 9.68684 25.9148 9.69248C25.9191 9.69811 25.9234 9.70387 25.9275 9.70974C25.9316 9.71559 25.9355 9.72153 25.9393 9.72758C25.9431 9.73361 25.9468 9.73973 25.9503 9.74596C25.9538 9.75218 25.9571 9.7585 25.9603 9.7649C25.9635 9.77128 25.9665 9.77774 25.9694 9.7843C25.9723 9.79082 25.975 9.79741 25.9775 9.80408C25.9801 9.81075 25.9825 9.81748 25.9847 9.82427C25.9869 9.83109 25.9889 9.83794 25.9908 9.84481C25.9927 9.85169 25.9944 9.85863 25.9959 9.86562C25.9975 9.87259 25.9988 9.8796 26 9.88665C26.0012 9.89367 26.0022 9.90073 26.003 9.90781C26.0039 9.91492 26.0045 9.92204 26.005 9.92915C26.0055 9.93626 26.0058 9.94339 26.006 9.95053C26.0061 9.95767 26.0061 9.96482 26.0058 9.97196C26.0056 9.9791 26.0052 9.98623 26.0047 9.99334C26.0041 10.0005 26.0034 10.0076 26.0025 10.0146C26.0016 10.0217 26.0005 10.0288 25.9992 10.0358C25.998 10.0428 25.9965 10.0498 25.9949 10.0568C25.9933 10.0637 25.9915 10.0707 25.9896 10.0775C25.9876 10.0844 25.9855 10.0912 25.9832 10.098C25.9809 10.1048 25.9785 10.1115 25.9759 10.1181C25.9733 10.1247 25.9705 10.1313 25.9675 10.1378C25.9646 10.1443 25.9615 10.1508 25.9582 10.1571C25.955 10.1635 25.9516 10.1698 25.948 10.176C25.9445 10.1821 25.9408 10.1882 25.9369 10.1942C25.933 10.2002 25.929 10.2061 25.9249 10.212C25.9207 10.2178 25.9164 10.2235 25.912 10.229C25.9076 10.2346 25.903 10.2401 25.8983 10.2455C25.8936 10.2509 25.8887 10.2561 25.8837 10.2613C25.8788 10.2664 25.8737 10.2714 25.8685 10.2763C25.8633 10.2811 25.8579 10.2859 25.8525 10.2905C25.847 10.2951 25.8415 10.2996 25.8358 10.3039C25.8302 10.3083 25.8244 10.3125 25.8185 10.3166C25.8127 10.3206 25.8067 10.3245 25.8006 10.3283C25.7945 10.3321 25.7884 10.3357 25.7821 10.3391C25.7759 10.3426 25.7695 10.3459 25.7631 10.3491C25.7567 10.3522 25.7503 10.3552 25.7437 10.358C25.7372 10.3609 25.7305 10.3635 25.7238 10.3661C25.7172 10.3686 25.7104 10.3709 25.7036 10.3731C25.6968 10.3752 25.69 10.3772 25.6831 10.3791C25.6762 10.3809 25.6693 10.3826 25.6624 10.384C25.6554 10.3855 25.6485 10.3868 25.6415 10.388C25.6345 10.3891 25.6275 10.3901 25.6205 10.3909C25.6134 10.3917 25.6063 10.3923 25.5993 10.3928C25.5922 10.3932 25.5851 10.3935 25.578 10.3936C25.571 10.3937 25.5639 10.3937 25.5568 10.3934C25.5497 10.3932 25.5426 10.3928 25.5355 10.3922C25.5285 10.3916 25.5215 10.3908 25.5144 10.3899C25.5074 10.389 25.5004 10.3879 25.4934 10.3866C25.4865 10.3853 25.4795 10.3839 25.4726 10.3823C25.4657 10.3807 25.4589 10.3789 25.452 10.3769C25.4452 10.375 25.4385 10.3729 25.4318 10.3706C25.425 10.3683 25.4184 10.3659 25.4118 10.3633C25.4052 10.3607 25.3987 10.358 25.3922 10.355C25.3858 10.3521 25.3794 10.349 25.3731 10.3458C25.3668 10.3426 25.3606 10.3392 25.3544 10.3356C25.3483 10.3321 25.3422 10.3284 25.3363 10.3246C25.3303 10.3207 25.3244 10.3168 25.3187 10.3126C25.3129 10.3085 25.3073 10.3043 25.3017 10.2999C25.2961 10.2955 25.2907 10.2909 25.2854 10.2863C25.28 10.2816 25.2748 10.2768 25.2697 10.2719C25.2646 10.267 25.2596 10.2619 25.2548 10.2568C25.2499 10.2516 25.2452 10.2463 25.2406 10.2409C25.236 10.2355 25.2315 10.23 25.2272 10.2244C25.2229 10.2188 25.2187 10.2131 25.2146 10.2073C25.2106 10.2015 25.2067 10.1955 25.2029 10.1896C25.1992 10.1835 25.1955 10.1774 25.1921 10.1713C25.1886 10.1651 25.1853 10.1588 25.1822 10.1525C25.179 10.1461 25.176 10.1397 25.1732 10.1332C25.1703 10.1267 25.1676 10.1201 25.1651 10.1135C25.1626 10.1069 25.1603 10.1002 25.158 10.0935C25.1559 10.0868 25.1538 10.08 25.152 10.0731C25.1501 10.0663 25.1484 10.0594 25.1469 10.0525C25.1454 10.0456 25.144 10.0386 25.1429 10.0316C25.1417 10.0246 25.1406 10.0176 25.1398 10.0106C25.139 10.0035 25.1383 9.9965 25.1378 9.98945C25.1373 9.98236 25.137 9.97528 25.1368 9.9682C25.1367 9.96111 25.1367 9.95403 25.1369 9.94695C25.1371 9.93986 25.1375 9.93279 25.138 9.92574C25.1385 9.91866 25.1392 9.9116 25.1401 9.90458C25.141 9.89755 25.1421 9.89054 25.1433 9.88355C25.1445 9.87658 25.1459 9.86965 25.1475 9.86274C25.1491 9.85581 25.1508 9.84893 25.1527 9.84211C25.1546 9.8353 25.1567 9.82852 25.1589 9.82179C25.1612 9.81506 25.1636 9.80839 25.1661 9.80178C25.1687 9.79517 25.1714 9.78863 25.1743 9.78217C25.1772 9.77571 25.1802 9.7693 25.1834 9.76296C25.1866 9.75664 25.19 9.7504 25.1935 9.74423C25.1969 9.73809 25.2006 9.73203 25.2044 9.72603C25.2082 9.72004 25.2121 9.71415 25.2162 9.70837C25.2203 9.70259 25.2245 9.6969 25.2289 9.69133C25.2332 9.68572 25.2377 9.68024 25.2424 9.6749C25.247 9.66953 25.2518 9.66428 25.2567 9.65914C25.2616 9.65401 25.2666 9.649 25.2717 9.64413C25.2768 9.63923 25.2821 9.63447 25.2875 9.62983C25.2928 9.6252 25.2983 9.62072 25.3039 9.61638C25.3095 9.61201 25.3151 9.60777 25.3209 9.60367C25.3267 9.5996 25.3326 9.59566 25.3386 9.59185C25.3446 9.58807 25.3507 9.58443 25.3568 9.58091C25.363 9.57743 25.3692 9.5741 25.3755 9.57091C25.3819 9.56769 25.3883 9.56465 25.3948 9.56179C25.4012 9.5589 25.4078 9.55618 25.4144 9.55364C25.421 9.55108 25.4277 9.54867 25.4344 9.54643C25.4411 9.54418 25.4479 9.54212 25.4547 9.54023Z" fill="#223E79"/>
</g>
</g>
<rect x="0.25" y="0.75" width="37.5" height="23.5" rx="7.75" stroke="#757575" stroke-width="0.5"/>
<defs>
<clipPath id="clip0_511_11448">
<rect y="0.5" width="38" height="24" rx="8" fill="white"/>
</clipPath>
<clipPath id="clip1_511_11448">
<rect width="34" height="34" fill="white" transform="translate(2 -4)"/>
</clipPath>
</defs>
</svg>
