<svg width="22" height="22" viewBox="0 0 22 22" fill="none" xmlns="http://www.w3.org/2000/svg">
<path d="M20.1667 11.0007C20.1667 5.93804 16.0626 1.83398 11 1.83398C5.93743 1.83398 1.83337 5.93804 1.83337 11.0007C1.83337 16.0632 5.93743 20.1673 11 20.1673C11.7716 20.1673 12.8334 20.2739 12.8334 19.2507C12.8334 18.6924 12.543 18.2618 12.2546 17.8339C11.8326 17.2079 11.4146 16.588 11.9167 15.584C12.5278 14.3618 13.5464 14.3618 15.1081 14.3618C15.889 14.3618 16.8057 14.3618 17.875 14.209C19.801 13.9339 20.1667 12.75 20.1667 11.0007Z" stroke="#A9A9A9" stroke-width="1.375"/>
<path d="M6.41663 13.7524L6.42531 13.75" stroke="#A9A9A9" stroke-width="1.83333" stroke-linecap="round" stroke-linejoin="round"/>
<path d="M8.70837 9.16602C9.46777 9.16602 10.0834 8.55041 10.0834 7.79102C10.0834 7.03162 9.46777 6.41602 8.70837 6.41602C7.94898 6.41602 7.33337 7.03162 7.33337 7.79102C7.33337 8.55041 7.94898 9.16602 8.70837 9.16602Z" stroke="#A9A9A9" stroke-width="1.375"/>
<path d="M15.125 10.084C15.8844 10.084 16.5 9.46838 16.5 8.70898C16.5 7.94959 15.8844 7.33398 15.125 7.33398C14.3656 7.33398 13.75 7.94959 13.75 8.70898C13.75 9.46838 14.3656 10.084 15.125 10.084Z" stroke="#A9A9A9" stroke-width="1.375"/>
</svg>
