<svg width="35" height="35" viewBox="0 0 35 35" fill="none" xmlns="http://www.w3.org/2000/svg">
<path d="M32.0833 17.5013C32.0833 9.44715 25.554 2.91797 17.5 2.91797C9.4458 2.91797 2.91663 9.44715 2.91663 17.5013C2.91663 25.5554 9.4458 32.0846 17.5 32.0846C18.7274 32.0846 20.4166 32.2542 20.4166 30.6263C20.4166 29.7382 19.9546 29.0531 19.4958 28.3723C18.8244 27.3764 18.1596 26.3903 18.9583 24.793C19.9306 22.8486 21.5509 22.8486 24.0355 22.8486C25.2778 22.8486 26.7362 22.8486 28.4375 22.6055C31.5014 22.1678 32.0833 20.2844 32.0833 17.5013Z" stroke="#CDFFAD" stroke-width="2.1875"/>
<path d="M10.2084 21.8788L10.2222 21.875" stroke="#CDFFAD" stroke-width="2.91667" stroke-linecap="round" stroke-linejoin="round"/>
<path d="M13.8541 14.582C15.0622 14.582 16.0416 13.6027 16.0416 12.3945C16.0416 11.1864 15.0622 10.207 13.8541 10.207C12.646 10.207 11.6666 11.1864 11.6666 12.3945C11.6666 13.6027 12.646 14.582 13.8541 14.582Z" stroke="#CDFFAD" stroke-width="2.1875"/>
<path d="M24.0625 16.043C25.2706 16.043 26.25 15.0636 26.25 13.8555C26.25 12.6473 25.2706 11.668 24.0625 11.668C22.8544 11.668 21.875 12.6473 21.875 13.8555C21.875 15.0636 22.8544 16.043 24.0625 16.043Z" stroke="#CDFFAD" stroke-width="2.1875"/>
</svg>
