<svg width="22" height="22" viewBox="0 0 22 22" fill="none" xmlns="http://www.w3.org/2000/svg">
<path d="M20.1667 11.0007C20.1667 5.93804 16.0626 1.83398 11 1.83398C5.9374 1.83398 1.83334 5.93804 1.83334 11.0007C1.83334 16.0632 5.9374 20.1673 11 20.1673C11.7716 20.1673 12.8333 20.2739 12.8333 19.2507C12.8333 18.6924 12.5429 18.2618 12.2546 17.8339C11.8325 17.2079 11.4146 16.588 11.9167 15.584C12.5278 14.3618 13.5463 14.3618 15.1081 14.3618C15.889 14.3618 16.8056 14.3618 17.875 14.209C19.8009 13.9339 20.1667 12.75 20.1667 11.0007Z" stroke="#0A0A0A" stroke-width="1.375"/>
<path d="M6.41666 13.7524L6.42534 13.75" stroke="#0A0A0A" stroke-width="1.83333" stroke-linecap="round" stroke-linejoin="round"/>
<path d="M8.70834 9.16602C9.46774 9.16602 10.0833 8.55041 10.0833 7.79102C10.0833 7.03162 9.46774 6.41602 8.70834 6.41602C7.94895 6.41602 7.33334 7.03162 7.33334 7.79102C7.33334 8.55041 7.94895 9.16602 8.70834 9.16602Z" stroke="#0A0A0A" stroke-width="1.375"/>
<path d="M15.125 10.084C15.8844 10.084 16.5 9.46838 16.5 8.70898C16.5 7.94959 15.8844 7.33398 15.125 7.33398C14.3656 7.33398 13.75 7.94959 13.75 8.70898C13.75 9.46838 14.3656 10.084 15.125 10.084Z" stroke="#0A0A0A" stroke-width="1.375"/>
</svg>
