<svg width="32" height="32" viewBox="0 0 32 32" fill="none" xmlns="http://www.w3.org/2000/svg">
<rect width="32" height="32" rx="12" fill="#2B2B2B"/>
<path d="M10 15.9993C10 16.1854 10.067 16.3491 10.2083 16.4904L16.1086 22.2568C16.2351 22.3907 16.3988 22.4577 16.5923 22.4577C16.9792 22.4577 17.2768 22.1675 17.2768 21.7806C17.2768 21.5871 17.1949 21.4235 17.0759 21.297L11.6592 15.9993L17.0759 10.7017C17.1949 10.5752 17.2768 10.4041 17.2768 10.2181C17.2768 9.83119 16.9792 9.54102 16.5923 9.54102C16.3988 9.54102 16.2351 9.60798 16.1086 9.73447L10.2083 15.5083C10.067 15.6422 10 15.8133 10 15.9993Z" fill="#A9A9A9"/>
</svg>
