<svg width="24" height="25" viewBox="0 0 24 25" fill="none" xmlns="http://www.w3.org/2000/svg">
<path d="M16.0015 9.5C16.0015 10.0523 15.5538 10.5 15.0015 10.5C14.4492 10.5 14.0015 10.0523 14.0015 9.5C14.0015 8.94772 14.4492 8.5 15.0015 8.5C15.5538 8.5 16.0015 8.94772 16.0015 9.5Z" fill="white"/>
<path d="M10.0015 9.5C10.0015 10.0523 9.55381 10.5 9.00153 10.5C8.44924 10.5 8.00153 10.0523 8.00153 9.5C8.00153 8.94772 8.44924 8.5 9.00153 8.5C9.55381 8.5 10.0015 8.94772 10.0015 9.5Z" fill="white"/>
<path fill-rule="evenodd" clip-rule="evenodd" d="M12.0015 3.25C10.7589 3.25 9.75153 4.25736 9.75153 5.5V5.75447C10.169 5.74999 10.6197 5.75 11.1068 5.75H12.8963C13.3833 5.75 13.834 5.74999 14.2515 5.75447V5.5C14.2515 4.25736 13.2442 3.25 12.0015 3.25ZM15.7515 5.80694V5.5C15.7515 3.42893 14.0726 1.75 12.0015 1.75C9.93046 1.75 8.25153 3.42893 8.25153 5.5V5.80694C8.11653 5.81679 7.98626 5.82834 7.8605 5.84189C6.98215 5.93657 6.24761 6.13489 5.59531 6.58197C5.37096 6.73574 5.16024 6.90849 4.96546 7.09833C4.39913 7.65027 4.0606 8.33166 3.79551 9.17439C3.53814 9.99258 3.33013 11.0327 3.06876 12.3396L3.04968 12.435C2.67304 14.3181 2.37625 15.802 2.291 16.984C2.20391 18.1916 2.32562 19.2075 2.89765 20.088C3.08851 20.3817 3.31129 20.6534 3.5619 20.8982C4.31304 21.6318 5.28539 21.9504 6.48664 22.1018C7.66233 22.25 9.17564 22.25 11.0961 22.25H12.907C14.8274 22.25 16.3407 22.25 17.5164 22.1018C18.7177 21.9504 19.69 21.6318 20.4412 20.8982C20.6918 20.6534 20.9145 20.3817 21.1054 20.088C21.6774 19.2075 21.7992 18.1916 21.7121 16.984C21.6268 15.8021 21.33 14.3182 20.9534 12.4351L20.9343 12.3396C20.6729 11.0327 20.4649 9.99259 20.2075 9.17439C19.9425 8.33166 19.6039 7.65027 19.0376 7.09833C18.8428 6.90849 18.6321 6.73574 18.4077 6.58197C17.7555 6.13489 17.0209 5.93657 16.1426 5.84189C16.0168 5.82834 15.8865 5.81679 15.7515 5.80694ZM8.02124 7.33326C7.27454 7.41374 6.81323 7.56572 6.44334 7.81924C6.28984 7.92445 6.14566 8.04265 6.01239 8.17254C5.69125 8.48552 5.45175 8.90807 5.22639 9.62449C4.99609 10.3566 4.80293 11.3172 4.53114 12.6762C4.1416 14.6239 3.86476 16.0153 3.78712 17.0919C3.71053 18.1538 3.83985 18.7849 4.15547 19.2707C4.28606 19.4717 4.43848 19.6576 4.60996 19.8251C5.0244 20.2298 5.61793 20.4804 6.67425 20.6136C7.74514 20.7486 9.16377 20.75 11.1501 20.75H12.853C14.8393 20.75 16.2579 20.7486 17.3288 20.6136C18.3851 20.4804 18.9787 20.2298 19.3931 19.8251C19.5646 19.6576 19.717 19.4717 19.8476 19.2707C20.1632 18.7849 20.2925 18.1538 20.2159 17.0919C20.1383 16.0153 19.8615 14.6239 19.4719 12.6762C19.2001 11.3173 19.007 10.3566 18.7767 9.62449C18.5513 8.90807 18.3118 8.48552 17.9907 8.17254C17.8574 8.04265 17.7132 7.92445 17.5597 7.81924C17.1898 7.56572 16.7285 7.41374 15.9818 7.33326C15.2187 7.25101 14.2389 7.25 12.853 7.25H11.1501C9.76418 7.25 8.78431 7.25101 8.02124 7.33326Z" fill="white"/>
</svg>
