<svg width="18" height="18" viewBox="0 0 18 18" fill="none" xmlns="http://www.w3.org/2000/svg">
<path d="M0.459274 0.795121C-0.0280411 1.28244 -0.0180962 2.088 0.459273 2.56537L6.89382 8.99991L0.459274 15.4345C-0.0180958 15.9118 -0.0280411 16.7174 0.459274 17.2047C0.946588 17.692 1.7621 17.692 2.23946 17.2146L8.67401 10.7801L15.0986 17.2047C15.576 17.6821 16.3815 17.692 16.8689 17.2047C17.3562 16.7174 17.3562 15.9019 16.8788 15.4245L10.4542 8.99991L16.8788 2.57531C17.3562 2.09794 17.3562 1.28244 16.8689 0.795121C16.3815 0.307806 15.576 0.317751 15.0986 0.795121L8.67401 7.21972L2.23946 0.785175C1.76209 0.307806 0.946588 0.307806 0.459274 0.795121Z" fill="white"/>
</svg>
