<svg width="39" height="36" viewBox="0 0 39 36" fill="none" xmlns="http://www.w3.org/2000/svg">
<path d="M11.1307 9.79463C10.6433 10.2819 10.6533 11.0875 11.1307 11.5649L17.5652 17.9994L11.1307 24.434C10.6533 24.9113 10.6433 25.7169 11.1307 26.2042C11.618 26.6915 12.4335 26.6915 12.9109 26.2142L19.3454 19.7796L25.77 26.2042C26.2474 26.6816 27.0529 26.6915 27.5402 26.2042C28.0276 25.7169 28.0276 24.9014 27.5502 24.424L21.1256 17.9994L27.5502 11.5748C28.0276 11.0975 28.0276 10.2819 27.5402 9.79463C27.0529 9.30732 26.2474 9.31726 25.77 9.79463L19.3454 16.2192L12.9109 9.78469C12.4335 9.30732 11.618 9.30732 11.1307 9.79463Z" fill="#666666"/>
</svg>
