<svg width="56" height="55" viewBox="0 0 56 55" fill="none" xmlns="http://www.w3.org/2000/svg">
<path d="M28 43.5417H14.25C12.4266 43.5417 10.678 42.8174 9.38864 41.5281C8.09933 40.2388 7.375 38.4901 7.375 36.6667V18.3334C7.375 16.51 8.09933 14.7613 9.38864 13.472C10.678 12.1827 12.4266 11.4584 14.25 11.4584H41.75C43.5734 11.4584 45.322 12.1827 46.6114 13.472C47.9007 14.7613 48.625 16.51 48.625 18.3334V28.6459M7.375 22.9167H48.625M37.1667 43.5417H50.9167M50.9167 43.5417L44.0417 36.6667M50.9167 43.5417L44.0417 50.4167M16.5531 34.375H16.5646M25.7083 34.375H30.2917" stroke="#A9A9A9" stroke-width="2" stroke-linecap="round" stroke-linejoin="round"/>
</svg>
