<svg width="19" height="20" viewBox="0 0 19 20" fill="none" xmlns="http://www.w3.org/2000/svg">
<path d="M6.33337 11.1868H12.6667M6.33337 7.22852H9.50004" stroke="#A9A9A9" stroke-width="1.1875" stroke-linecap="round" stroke-linejoin="round"/>
<path d="M4.82827 15.541C3.79901 15.4398 3.02797 15.1306 2.51087 14.6135C1.58337 13.6861 1.58337 12.1932 1.58337 9.20768V8.81185C1.58337 5.82628 1.58337 4.33351 2.51087 3.40601C3.43837 2.47852 4.93114 2.47852 7.91671 2.47852H11.0834C14.0689 2.47852 15.5618 2.47852 16.4892 3.40601C17.4167 4.33351 17.4167 5.82628 17.4167 8.81185V9.20768C17.4167 12.1932 17.4167 13.6861 16.4892 14.6135C15.5618 15.541 14.0689 15.541 11.0834 15.541C10.6396 15.5509 10.2862 15.5846 9.9391 15.6637C8.99037 15.8821 8.11185 16.3676 7.24369 16.791C6.00664 17.3941 5.38812 17.6958 4.99996 17.4134C4.25738 16.8603 4.98322 15.1467 5.14587 14.3535" stroke="#A9A9A9" stroke-width="1.1875" stroke-linecap="round"/>
</svg>
