<svg width="39" height="36" viewBox="0 0 39 36" fill="none" xmlns="http://www.w3.org/2000/svg">
<path d="M29.8868 10.2371H9.44174C8.77547 10.2371 8.23535 10.7772 8.23535 11.4434V11.5704C8.23535 12.2367 8.77547 12.7768 9.44174 12.7768H29.8868C30.5531 12.7768 31.0932 12.2367 31.0932 11.5704V11.4434C31.0932 10.7772 30.5531 10.2371 29.8868 10.2371Z" fill="white"/>
<path d="M29.8868 16.7302H9.44174C8.77547 16.7302 8.23535 17.2703 8.23535 17.9366V18.0636C8.23535 18.7299 8.77547 19.27 9.44174 19.27H29.8868C30.5531 19.27 31.0932 18.7299 31.0932 18.0636V17.9366C31.0932 17.2703 30.5531 16.7302 29.8868 16.7302Z" fill="white"/>
<path d="M29.8868 23.2231H9.44174C8.77547 23.2231 8.23535 23.7633 8.23535 24.4295V24.5565C8.23535 25.2228 8.77547 25.7629 9.44174 25.7629H29.8868C30.5531 25.7629 31.0932 25.2228 31.0932 24.5565V24.4295C31.0932 23.7633 30.5531 23.2231 29.8868 23.2231Z" fill="white"/>
</svg>
