<svg width="24" height="25" viewBox="0 0 24 25" fill="none" xmlns="http://www.w3.org/2000/svg">
<path fill-rule="evenodd" clip-rule="evenodd" d="M5.62436 4.92417C3.96537 5.68249 2.75 7.4862 2.75 9.63707C2.75 11.8345 3.64922 13.5282 4.93829 14.9797C6.00072 16.1761 7.28684 17.1676 8.54113 18.1346C8.83904 18.3643 9.13515 18.5925 9.42605 18.8219C9.95208 19.2365 10.4213 19.6005 10.8736 19.8648C11.3261 20.1292 11.6904 20.25 12 20.25C12.3096 20.25 12.6739 20.1292 13.1264 19.8648C13.5787 19.6005 14.0479 19.2365 14.574 18.8219C14.8649 18.5925 15.161 18.3643 15.4589 18.1346C16.7132 17.1676 17.9993 16.1761 19.0617 14.9797C20.3508 13.5282 21.25 11.8345 21.25 9.63707C21.25 7.4862 20.0346 5.68249 18.3756 4.92417C16.7639 4.18745 14.5983 4.38255 12.5404 6.52071C12.399 6.6676 12.2039 6.75061 12 6.75061C11.7961 6.75061 11.601 6.6676 11.4596 6.52071C9.40166 4.38255 7.23607 4.18745 5.62436 4.92417ZM12 4.95879C9.68795 2.89021 7.09896 2.60084 5.00076 3.55993C2.78471 4.5729 1.25 6.925 1.25 9.63707C1.25 12.3026 2.3605 14.336 3.81672 15.9758C4.98287 17.2889 6.41022 18.3879 7.67083 19.3586C7.95659 19.5786 8.23378 19.792 8.49742 19.9998C9.00965 20.4037 9.55954 20.8342 10.1168 21.1599C10.6739 21.4854 11.3096 21.75 12 21.75C12.6904 21.75 13.3261 21.4854 13.8832 21.1599C14.4405 20.8342 14.9903 20.4036 15.5026 19.9998C15.7662 19.792 16.0434 19.5786 16.3292 19.3586C17.5898 18.3879 19.0171 17.2889 20.1833 15.9758C21.6395 14.336 22.75 12.3026 22.75 9.63707C22.75 6.925 21.2153 4.5729 18.9992 3.55993C16.901 2.60084 14.3121 2.89021 12 4.95879Z" fill="white"/>
</svg>
