<svg width="38" height="25" viewBox="0 0 38 25" fill="none" xmlns="http://www.w3.org/2000/svg">
<rect x="0.25" y="0.75" width="37.5" height="23.5" rx="7.75" fill="white"/>
<rect x="0.25" y="0.75" width="37.5" height="23.5" rx="7.75" stroke="#757575" stroke-width="0.5"/>
<g clip-path="url(#clip0_511_11447)">
<path d="M14.9336 4.82068H23.0371V19.3813H14.9336V4.82068Z" fill="#FF5F00"/>
<path d="M15.4479 12.1011C15.4479 9.14266 16.8371 6.51859 18.9722 4.82066C17.4031 3.58586 15.4223 2.83984 13.2613 2.83984C8.14176 2.83984 4 6.9816 4 12.1011C4 17.2205 8.14176 21.3623 13.2612 21.3623C15.4221 21.3623 17.403 20.6163 18.9722 19.3813C16.8371 17.7092 15.4479 15.0595 15.4479 12.1011Z" fill="#EB001B"/>
<path d="M33.9683 12.1011C33.9683 17.2204 29.8266 21.3623 24.7071 21.3623C22.5462 21.3623 20.5654 20.6163 18.9961 19.3813C21.157 17.6835 22.5205 15.0595 22.5205 12.1011C22.5205 9.14266 21.1312 6.51859 18.9961 4.82066C20.5652 3.58586 22.5462 2.83984 24.7071 2.83984C29.8266 2.83984 33.9683 7.00738 33.9683 12.1011Z" fill="#F79E1B"/>
</g>
<defs>
<clipPath id="clip0_511_11447">
<rect width="30" height="19" fill="white" transform="translate(4 3)"/>
</clipPath>
</defs>
</svg>
