<svg width="39" height="32" viewBox="0 0 39 32" fill="none" xmlns="http://www.w3.org/2000/svg">
<path d="M29.8868 8.23712H9.44174C8.77547 8.23712 8.23535 8.77724 8.23535 9.44351V9.57049C8.23535 10.2368 8.77547 10.7769 9.44174 10.7769H29.8868C30.5531 10.7769 31.0932 10.2368 31.0932 9.57049V9.44351C31.0932 8.77724 30.5531 8.23712 29.8868 8.23712Z" fill="white"/>
<path d="M29.8868 14.7301H9.44174C8.77547 14.7301 8.23535 15.2702 8.23535 15.9365V16.0635C8.23535 16.7298 8.77547 17.2699 9.44174 17.2699H29.8868C30.5531 17.2699 31.0932 16.7298 31.0932 16.0635V15.9365C31.0932 15.2702 30.5531 14.7301 29.8868 14.7301Z" fill="white"/>
<path d="M29.8868 21.2234H9.44174C8.77547 21.2234 8.23535 21.7635 8.23535 22.4297V22.5567C8.23535 23.223 8.77547 23.7631 9.44174 23.7631H29.8868C30.5531 23.7631 31.0932 23.223 31.0932 22.5567V22.4297C31.0932 21.7635 30.5531 21.2234 29.8868 21.2234Z" fill="white"/>
</svg>
