<svg width="38" height="25" viewBox="0 0 38 25" fill="none" xmlns="http://www.w3.org/2000/svg">
<rect x="0.25" y="0.75" width="37.5" height="23.5" rx="7.75" fill="white"/>
<rect x="0.25" y="0.75" width="37.5" height="23.5" rx="7.75" stroke="#757575" stroke-width="0.5"/>
<g clip-path="url(#clip0_511_11449)">
<path d="M2 3H35.9499C36.0009 3.07808 35.9974 3.14897 35.999 3.23912C36.0253 4.80791 36.0003 6.38145 36.0005 7.95065V17.3106L36 21.0074C36 21.3048 36.0459 22.1275 35.99 22.3742C35.9828 22.4059 35.9675 22.4343 35.9499 22.4613H2V3Z" fill="#F9F8F8"/>
<path d="M4.76953 6.65657L18.9223 6.65649C18.8834 7.29339 18.9106 7.94753 18.9106 8.58647L18.9108 12.1206C18.9111 15.0259 18.8634 17.9411 18.9196 20.8454C18.1299 20.8177 17.3341 20.837 16.5437 20.8369L12.2456 20.8364L7.48594 20.8366C6.58193 20.8367 5.67416 20.8203 4.77068 20.8461C4.80598 18.1852 4.77613 15.5198 4.77677 12.8585C4.77726 10.794 4.82018 8.72001 4.76953 6.65657Z" fill="#FECB04"/>
<path d="M11.4032 10.9689C13.3131 10.9142 16.4126 11.2335 17.8749 12.5508C18.1962 12.8401 18.4587 13.2078 18.4795 13.6537C18.4976 14.0403 18.3238 14.3855 18.0685 14.6657C16.8339 16.0206 14.091 16.3658 12.3524 16.446C10.389 16.4651 7.34044 16.2307 5.82289 14.8589C5.50351 14.5702 5.22725 14.2079 5.20811 13.7616C5.19096 13.3616 5.3809 13.0065 5.64618 12.7196C6.8745 11.3914 9.70031 11.0296 11.4032 10.9689Z" fill="#006A92"/>
<path d="M8.2489 12.2996C8.62758 12.3075 9.00804 12.3003 9.38689 12.3002C9.38655 12.8406 9.40885 13.3952 9.35396 13.9329C9.58801 13.3882 9.85614 12.8542 10.0685 12.3008L11.2398 12.3028C11.0569 13.2358 10.7528 14.1473 10.5681 15.0824L9.79181 15.0756L10.0461 14.0366C10.0963 13.8127 10.1503 13.5898 10.2082 13.3679C9.90706 13.9115 9.64538 14.5095 9.39386 15.0783L8.77601 15.0758C8.78238 14.5157 8.78054 13.9556 8.77049 13.3955C8.60756 13.944 8.48682 14.5212 8.36221 15.08L7.57031 15.0786C7.78862 14.1602 8.08936 13.2291 8.2489 12.2996Z" fill="#F9F8F8"/>
<path d="M15.4006 12.3019L16.1586 12.3018C15.9985 12.8866 15.859 13.4779 15.7126 14.0663C15.6295 14.4 15.5231 14.7418 15.4646 15.0793L14.684 15.0777L14.3071 13.5639C14.1992 14.0697 14.0498 14.5739 13.954 15.0807L13.1992 15.0778C13.3707 14.4182 13.4993 13.7377 13.6987 13.0866C13.7568 12.877 13.8151 12.6692 13.8541 12.455C13.8706 12.4026 13.8719 12.3521 13.9237 12.3254C14.1063 12.2315 14.5054 12.3061 14.7152 12.3035C14.8289 12.8087 14.9283 13.3144 15.0329 13.8205C15.1103 13.3082 15.2741 12.8041 15.4006 12.3019Z" fill="#F9F8F8"/>
<path d="M11.4365 12.3064C11.8671 12.3041 13.3642 12.2421 13.6764 12.3251C13.6408 12.5465 13.5597 12.7832 13.5435 13.0034C13.3011 13.0392 13.0422 13.018 12.7977 13.0134C12.6777 13.5257 12.5394 14.0345 12.4074 14.5438C12.1346 14.5266 11.8595 14.535 11.5863 14.5377C11.7272 14.0322 11.8586 13.5243 11.9803 13.0139C11.7406 13.0269 11.4979 13.0182 11.2578 13.0163C11.3212 12.7807 11.3808 12.544 11.4365 12.3064Z" fill="#FECB04"/>
<path d="M11.5404 14.6993L12.3566 14.6949C12.3206 14.835 12.2903 14.9822 12.2298 15.1138C11.9593 15.1097 11.6919 15.11 11.4219 15.1268C11.4556 14.9829 11.499 14.8411 11.5404 14.6993Z" fill="#EF1F1F"/>
<path d="M27.2406 6.3175C27.8525 6.35706 28.4748 6.33596 29.0882 6.3366C29.3805 6.33691 29.6901 6.31625 29.978 6.36767C30.1858 6.40477 30.4003 6.4887 30.5257 6.66899C30.88 6.62949 31.252 6.65241 31.6092 6.65165C32.146 6.65051 32.6857 6.6376 33.2221 6.65301C33.2661 6.72441 33.2669 6.78632 33.2694 6.86819C33.2905 7.60723 33.2746 8.35088 33.2745 9.0903L33.2667 13.7531L33.2698 15.7545C33.2705 16.0305 33.3198 16.4196 33.2548 16.6785C33.2494 16.7 33.241 16.7192 33.2291 16.7377C33.2131 16.8384 33.1087 16.9299 33.0409 17.0038C32.7273 17.3444 32.3879 17.6622 32.0607 17.9898C31.5585 18.5013 31.0536 19.0102 30.546 19.5163C30.2229 19.8397 29.5987 20.5333 29.2727 20.77C29.2335 20.7979 29.1914 20.8203 29.1463 20.837L23.02 20.8364C21.9343 20.8364 20.8201 20.7846 19.7375 20.8508L19.7344 6.65146C20.3151 6.64715 20.8958 6.64857 21.4765 6.65572C21.477 6.66101 21.4775 6.6663 21.4779 6.67161C21.4972 7.0277 19.7582 9.46465 20.0343 9.72708C20.2088 9.89281 20.738 9.92663 20.98 9.97792C21.8282 10.1577 22.6728 10.4418 23.4853 10.7403C23.672 10.8089 23.9728 10.8875 24.1173 11.0214C24.1782 11.0293 24.2232 11.0463 24.2785 11.0725C24.2963 11.0933 24.3103 11.1157 24.3183 11.1421C24.3691 11.3096 24.3134 11.6 24.2887 11.776C24.1821 12.5347 23.14 18.3941 23.0497 18.5546C23.1751 18.6517 23.2195 18.8586 23.3586 18.9404C23.6612 19.1183 24.4761 19.3016 24.8627 19.4212C25.5773 19.6424 26.4325 19.9654 27.1498 20.1197C27.3157 20.1554 27.4997 20.1763 27.6667 20.1386C27.7572 20.0754 27.7943 19.8975 27.8205 19.7958C28.015 19.0401 28.1194 18.2361 28.2616 17.4681L29.0132 13.5086L29.7901 9.39904C29.9281 8.67222 30.1059 7.93067 30.1966 7.19706C30.2186 7.01905 30.2305 6.90527 30.1371 6.74714C30.0396 6.67536 29.9187 6.6508 29.8003 6.63707C29.507 6.60308 29.1902 6.62807 28.8947 6.63018L27.4109 6.63167C27.4121 6.61991 27.412 6.62419 27.4117 6.6083C27.4097 6.48266 27.3261 6.39772 27.2406 6.3175Z" fill="url(#paint0_linear_511_11449)"/>
<path d="M27.2416 6.3175C27.8535 6.35706 28.4758 6.33596 29.0891 6.3366C29.3815 6.33691 29.6911 6.31625 29.979 6.36767C30.1868 6.40477 30.4013 6.4887 30.5266 6.66899C30.7984 6.8767 31.2314 7.27629 31.2792 7.63108C31.333 8.02948 31.0378 9.35607 30.9534 9.84463L30.432 12.8978L29.7061 17.1363C29.5724 17.9244 29.4669 18.7326 29.295 19.5125C29.2637 19.6547 29.2127 19.8104 29.1194 19.9252C28.8853 20.2133 28.1383 20.5148 27.7705 20.542C27.6377 20.5519 27.5042 20.5333 27.3751 20.5029C26.7379 20.352 26.105 20.1131 25.4767 19.9236C24.8227 19.7264 24.1188 19.566 23.4845 19.3167C23.3423 19.2607 23.2037 19.1833 23.0883 19.0827C22.9085 18.9258 22.8521 18.749 22.8383 18.5166C22.8083 18.0175 23.0731 16.9283 23.1683 16.4038L23.8966 12.3748C23.9515 12.069 24.1386 11.2893 24.1183 11.0214C24.1792 11.0293 24.2242 11.0463 24.2795 11.0725C24.2973 11.0933 24.3113 11.1157 24.3193 11.1421C24.3701 11.3096 24.3144 11.6 24.2896 11.776C24.1831 12.5347 23.141 18.3941 23.0506 18.5546C23.1761 18.6517 23.2205 18.8586 23.3596 18.9404C23.6622 19.1183 24.477 19.3016 24.8636 19.4212C25.5783 19.6424 26.4335 19.9654 27.1508 20.1197C27.3167 20.1554 27.5006 20.1763 27.6677 20.1386C27.7582 20.0754 27.7953 19.8975 27.8215 19.7958C28.016 19.0401 28.1204 18.2361 28.2626 17.4681L29.0142 13.5086L29.7911 9.39904C29.9291 8.67222 30.1068 7.93067 30.1976 7.19706C30.2196 7.01905 30.2315 6.90527 30.1381 6.74714C30.0406 6.67536 29.9197 6.6508 29.8013 6.63707C29.508 6.60308 29.1911 6.62807 28.8957 6.63018L27.4119 6.63167C27.4131 6.61991 27.413 6.62419 27.4127 6.6083C27.4107 6.48266 27.3271 6.39772 27.2416 6.3175Z" fill="black"/>
<path d="M24.0321 6.10611C24.0678 6.10337 24.1035 6.10152 24.1392 6.10054C24.1749 6.09957 24.2106 6.09947 24.2463 6.10026C24.282 6.10104 24.3177 6.10271 24.3534 6.10525C24.389 6.10779 24.4246 6.11121 24.4601 6.11551C24.4955 6.11979 24.5308 6.12496 24.5661 6.13099C24.6012 6.13703 24.6363 6.14393 24.6712 6.1517C24.706 6.15947 24.7407 6.16808 24.7752 6.17755C24.8096 6.18702 24.8438 6.19734 24.8778 6.2085C24.9117 6.21965 24.9453 6.23164 24.9786 6.24445C25.012 6.25727 25.045 6.27089 25.0778 6.28533C25.1104 6.29978 25.1427 6.31502 25.1746 6.33106C25.2066 6.34709 25.2381 6.3639 25.2692 6.38148C25.3003 6.39908 25.331 6.41742 25.3611 6.43651C25.3913 6.45561 25.4211 6.47544 25.4503 6.496C25.4795 6.51656 25.5082 6.53783 25.5364 6.55981C25.5645 6.58179 25.5921 6.60444 25.6191 6.62777C25.6462 6.65111 25.6727 6.6751 25.6986 6.69974C25.7245 6.72438 25.7497 6.74964 25.7744 6.77553C25.799 6.80142 25.8229 6.82789 25.8463 6.85495C25.8696 6.88202 25.8923 6.90965 25.9142 6.93784C25.9361 6.96601 25.9574 6.99472 25.9779 7.02395C25.9985 7.05318 26.0184 7.0829 26.0374 7.1131C26.0565 7.14331 26.0748 7.17397 26.0924 7.20507C26.1099 7.23619 26.1267 7.26771 26.1428 7.29964C26.1588 7.33158 26.174 7.3639 26.1884 7.39658C26.2029 7.42927 26.2165 7.4623 26.2293 7.49565C26.2421 7.52901 26.254 7.56267 26.2651 7.59661C26.2763 7.63056 26.2866 7.66476 26.2961 7.69922C26.3055 7.73368 26.3141 7.76834 26.3219 7.80322C26.3296 7.8381 26.3365 7.87315 26.3425 7.90837C26.3486 7.94358 26.3537 7.97893 26.358 8.0144C26.3623 8.04987 26.3657 8.08543 26.3682 8.12107C26.3707 8.15671 26.3723 8.19239 26.3731 8.22812C26.3739 8.26384 26.3737 8.29955 26.3728 8.33527C26.3718 8.37099 26.3699 8.40666 26.3671 8.44229C26.3644 8.4779 26.3608 8.51344 26.3563 8.54889C26.3518 8.58433 26.3464 8.61964 26.3401 8.65482C26.3339 8.69 26.3268 8.725 26.3188 8.75984C26.3109 8.79467 26.3021 8.82928 26.2924 8.86368C26.2827 8.89808 26.2722 8.93221 26.2608 8.96608C26.2495 8.99996 26.2373 9.03354 26.2243 9.06682C26.2113 9.1001 26.1975 9.13303 26.1828 9.16563C26.1682 9.19822 26.1528 9.23044 26.1366 9.26227C26.1203 9.29411 26.1033 9.32553 26.0855 9.35652C26.0677 9.38752 26.0492 9.41806 26.03 9.44815C26.0107 9.47823 25.9907 9.50782 25.97 9.53692C25.9493 9.56603 25.9278 9.59459 25.9057 9.62263C25.8835 9.65068 25.8607 9.67816 25.8372 9.70508C25.8137 9.732 25.7896 9.75832 25.7648 9.78405C25.74 9.80978 25.7145 9.83488 25.6885 9.85935C25.6625 9.88383 25.6359 9.90765 25.6087 9.93082C25.5815 9.95398 25.5537 9.97646 25.5254 9.99826C25.4971 10.0201 25.4683 10.0411 25.439 10.0615C25.4096 10.0819 25.3797 10.1015 25.3494 10.1204C25.3191 10.1393 25.2884 10.1575 25.2572 10.1749C25.226 10.1923 25.1943 10.2089 25.1623 10.2247C25.1302 10.2405 25.0978 10.2556 25.0651 10.2698C25.0323 10.284 24.9991 10.2975 24.9657 10.3101C24.9323 10.3227 24.8986 10.3344 24.8646 10.3454C24.8306 10.3563 24.7963 10.3664 24.7618 10.3757C24.7273 10.3849 24.6926 10.3933 24.6576 10.4009C24.6227 10.4084 24.5876 10.4151 24.5523 10.4209C24.5171 10.4267 24.4817 10.4316 24.4462 10.4357C24.4107 10.4398 24.3751 10.443 24.3395 10.4453C24.3041 10.4476 24.2687 10.449 24.2333 10.4496C24.1978 10.4502 24.1623 10.4499 24.1269 10.4487C24.0914 10.4475 24.056 10.4455 24.0207 10.4426C23.9853 10.4397 23.9501 10.4359 23.9149 10.4313C23.8798 10.4267 23.8448 10.4212 23.8098 10.4149C23.7749 10.4085 23.7403 10.4013 23.7058 10.3933C23.6712 10.3853 23.6368 10.3764 23.6027 10.3667C23.5686 10.357 23.5348 10.3464 23.5012 10.3351C23.4676 10.3237 23.4343 10.3115 23.4012 10.2985C23.3683 10.2855 23.3356 10.2717 23.3034 10.2571C23.271 10.2425 23.2391 10.2271 23.2075 10.211C23.176 10.1948 23.1448 10.1779 23.114 10.1602C23.0833 10.1425 23.053 10.1241 23.0231 10.105C22.9933 10.0858 22.9639 10.0659 22.9351 10.0453C22.9062 10.0247 22.8779 10.0034 22.85 9.98143C22.8223 9.95944 22.795 9.93679 22.7683 9.91348C22.7415 9.89015 22.7154 9.86619 22.6899 9.8416C22.6643 9.817 22.6394 9.79179 22.615 9.76597C22.5907 9.74015 22.5671 9.71376 22.544 9.68679C22.5211 9.65981 22.4987 9.63229 22.4771 9.60422C22.4554 9.57615 22.4344 9.54757 22.4141 9.51847C22.3938 9.48938 22.3742 9.45981 22.3554 9.42976C22.3366 9.39971 22.3185 9.36921 22.3011 9.33828C22.2838 9.30734 22.2672 9.276 22.2514 9.24426C22.2356 9.21251 22.2206 9.1804 22.2063 9.14792C22.1921 9.11544 22.1787 9.08263 22.166 9.04949C22.1534 9.01635 22.1416 8.98292 22.1307 8.94921C22.1197 8.91549 22.1095 8.88153 22.1001 8.84732C22.0908 8.81311 22.0823 8.77868 22.0747 8.74405C22.067 8.70942 22.0602 8.67463 22.0543 8.63967C22.0483 8.60471 22.0432 8.56962 22.039 8.53442C22.0348 8.4992 22.0314 8.46391 22.0289 8.42854C22.0264 8.39316 22.0247 8.35775 22.024 8.32229C22.0232 8.28683 22.0233 8.25138 22.0242 8.21593C22.0252 8.18048 22.027 8.14507 22.0297 8.1097C22.0324 8.07434 22.036 8.03907 22.0403 8.00388C22.0448 7.96869 22.0501 7.93363 22.0562 7.8987C22.0623 7.86377 22.0693 7.82901 22.0772 7.79442C22.085 7.75983 22.0936 7.72546 22.1032 7.6913C22.1127 7.65713 22.1231 7.62322 22.1342 7.58956C22.1453 7.5559 22.1573 7.52254 22.1701 7.48946C22.183 7.45639 22.1966 7.42365 22.211 7.39125C22.2254 7.35884 22.2406 7.3268 22.2566 7.29513C22.2725 7.26348 22.2892 7.23222 22.3067 7.20138C22.3243 7.17053 22.3426 7.14013 22.3616 7.11018C22.3805 7.08023 22.4002 7.05076 22.4206 7.02177C22.4411 6.99278 22.4622 6.96431 22.484 6.93636C22.5059 6.9084 22.5283 6.881 22.5515 6.85414C22.5747 6.82728 22.5985 6.80101 22.6229 6.77532C22.6473 6.74963 22.6724 6.72456 22.6981 6.70009C22.7238 6.67563 22.75 6.65181 22.7769 6.62863C22.8037 6.60545 22.8311 6.58294 22.8591 6.5611C22.887 6.53926 22.9155 6.51811 22.9445 6.49767C22.9734 6.47722 23.0029 6.45749 23.0329 6.43848C23.0628 6.41948 23.0931 6.40122 23.124 6.38369C23.1548 6.36617 23.1861 6.34942 23.2177 6.33343C23.2493 6.31743 23.2813 6.30222 23.3138 6.2878C23.3461 6.27337 23.3789 6.25975 23.412 6.24693C23.4451 6.2341 23.4784 6.22209 23.5121 6.2109C23.5457 6.1997 23.5796 6.18934 23.6137 6.17981C23.6479 6.17028 23.6823 6.16158 23.7169 6.15373C23.7514 6.14588 23.7862 6.13887 23.8212 6.13272C23.8561 6.12656 23.8912 6.12127 23.9264 6.11683C23.9615 6.11239 23.9968 6.10882 24.0321 6.10611Z" fill="#006A92"/>
<path d="M23.9224 6.33395C23.9542 6.32944 23.9862 6.32571 24.0182 6.32277C24.0503 6.31983 24.0824 6.31769 24.1145 6.31633C24.1466 6.31497 24.1788 6.3144 24.211 6.31462C24.2431 6.31484 24.2753 6.31584 24.3074 6.31764C24.3395 6.31945 24.3716 6.32204 24.4036 6.32542C24.4355 6.32879 24.4674 6.33295 24.4993 6.3379C24.5311 6.34284 24.5627 6.34856 24.5942 6.35507C24.6257 6.36156 24.657 6.36883 24.6881 6.37687C24.7194 6.38491 24.7503 6.39371 24.781 6.40327C24.8117 6.41284 24.8422 6.42315 24.8723 6.43421C24.9026 6.44526 24.9325 6.45706 24.9621 6.46959C24.9918 6.48212 25.0211 6.49537 25.05 6.50934C25.079 6.52331 25.1076 6.53799 25.1359 6.55337C25.1642 6.56874 25.1921 6.5848 25.2196 6.60155C25.247 6.61829 25.274 6.63571 25.3006 6.65379C25.3272 6.67186 25.3534 6.69058 25.3791 6.70994C25.4048 6.7293 25.43 6.74928 25.4547 6.76989C25.4794 6.79049 25.5036 6.81168 25.5273 6.83347C25.5509 6.85527 25.5741 6.87763 25.5966 6.90056C25.6192 6.92348 25.6411 6.94695 25.6626 6.97096C25.684 6.99496 25.7048 7.01948 25.725 7.04451C25.7452 7.06954 25.7648 7.09506 25.7838 7.12105C25.8027 7.14705 25.821 7.17349 25.8387 7.20038C25.8564 7.22728 25.8733 7.25459 25.8896 7.28232C25.9059 7.31004 25.9216 7.33816 25.9365 7.36665C25.9514 7.39515 25.9656 7.424 25.9791 7.4532C25.9926 7.48239 26.0055 7.5119 26.0176 7.54172C26.0296 7.57155 26.0409 7.60165 26.0515 7.63204C26.0621 7.66242 26.0719 7.69304 26.081 7.7239C26.0901 7.75477 26.0984 7.78584 26.106 7.81711C26.1134 7.84838 26.1202 7.87982 26.1262 7.91143C26.1323 7.94303 26.1375 7.97477 26.1419 8.00663C26.1463 8.03849 26.15 8.07045 26.1529 8.10248C26.1557 8.13453 26.1578 8.16663 26.1591 8.19877C26.1604 8.23091 26.1609 8.26307 26.1607 8.29524C26.1604 8.32741 26.1593 8.35955 26.1574 8.39167C26.1555 8.42378 26.1529 8.45583 26.1495 8.48782C26.146 8.5198 26.1418 8.55168 26.1368 8.58346C26.1317 8.61524 26.1259 8.64688 26.1194 8.67838C26.1128 8.70987 26.1055 8.74118 26.0974 8.77232C26.0893 8.80345 26.0804 8.83436 26.0708 8.86506C26.0612 8.89575 26.0508 8.9262 26.0397 8.95639C26.0285 8.98657 26.0167 9.01647 26.0041 9.04607C25.9915 9.07567 25.9782 9.10495 25.9642 9.13391C25.9502 9.16286 25.9355 9.19144 25.92 9.21966C25.9046 9.24789 25.8884 9.27572 25.8716 9.30315C25.8548 9.33059 25.8374 9.35759 25.8192 9.38417C25.8011 9.41074 25.7823 9.43686 25.7629 9.46251C25.7435 9.48816 25.7235 9.51332 25.7028 9.53798C25.6822 9.56265 25.6609 9.58679 25.6391 9.61041C25.6172 9.63404 25.5948 9.65712 25.5718 9.67964C25.5488 9.70216 25.5253 9.7241 25.5013 9.74546C25.4772 9.76682 25.4527 9.78759 25.4277 9.80775C25.4026 9.82791 25.377 9.84744 25.351 9.86634C25.325 9.88524 25.2985 9.90348 25.2715 9.92108C25.2446 9.93868 25.2172 9.95561 25.1894 9.97187C25.1617 9.98812 25.1336 10.0037 25.1051 10.0186C25.0765 10.0334 25.0477 10.0476 25.0184 10.061C24.9892 10.0745 24.9597 10.0872 24.9298 10.0992C24.9 10.1112 24.8699 10.1225 24.8395 10.133C24.809 10.1435 24.7784 10.1533 24.7476 10.1623C24.7167 10.1713 24.6856 10.1796 24.6543 10.1871C24.623 10.1945 24.5915 10.2012 24.5599 10.2072C24.5283 10.2131 24.4966 10.2183 24.4647 10.2227C24.4329 10.227 24.401 10.2306 24.3691 10.2334C24.3371 10.2362 24.3051 10.2382 24.2731 10.2395C24.241 10.2407 24.2089 10.2411 24.1768 10.2408C24.1447 10.2405 24.1127 10.2393 24.0806 10.2374C24.0486 10.2355 24.0166 10.2328 23.9847 10.2293C23.9528 10.2259 23.921 10.2216 23.8893 10.2166C23.8576 10.2115 23.8261 10.2057 23.7948 10.1991C23.7633 10.1926 23.7321 10.1852 23.701 10.1771C23.67 10.169 23.6392 10.1601 23.6086 10.1505C23.5779 10.1408 23.5476 10.1305 23.5175 10.1194C23.4874 10.1082 23.4576 10.0964 23.4281 10.0838C23.3986 10.0712 23.3694 10.058 23.3405 10.0439C23.3117 10.0299 23.2832 10.0152 23.255 9.99982C23.2268 9.98441 23.1991 9.96832 23.1717 9.95156C23.1443 9.93479 23.1174 9.91737 23.091 9.89929C23.0644 9.8812 23.0383 9.86247 23.0128 9.8431C22.9872 9.82374 22.9621 9.80376 22.9376 9.78316C22.9129 9.76257 22.8888 9.74139 22.8652 9.71961C22.8417 9.69783 22.8187 9.67549 22.7962 9.65259C22.7737 9.62968 22.7518 9.60624 22.7305 9.58226C22.7092 9.55828 22.6884 9.5338 22.6683 9.50881C22.6482 9.48382 22.6287 9.45834 22.6098 9.43239C22.5909 9.40644 22.5727 9.38004 22.5552 9.3532C22.5376 9.32636 22.5207 9.2991 22.5045 9.27143C22.4882 9.24376 22.4727 9.2157 22.4578 9.18727C22.4429 9.15883 22.4287 9.13005 22.4153 9.10092C22.4019 9.07178 22.3891 9.04234 22.3771 9.01258C22.3651 8.98284 22.3538 8.95281 22.3433 8.9225C22.3328 8.8922 22.323 8.86165 22.3139 8.83086C22.3049 8.80007 22.2966 8.76908 22.289 8.73788C22.2816 8.70669 22.2748 8.67534 22.2688 8.64382C22.2628 8.61229 22.2576 8.58064 22.2532 8.54886C22.2488 8.51708 22.2451 8.48521 22.2422 8.45326C22.2394 8.42129 22.2373 8.38928 22.236 8.35722C22.2347 8.32517 22.2342 8.2931 22.2344 8.26101C22.2347 8.22892 22.2358 8.19686 22.2376 8.16483C22.2395 8.1328 22.2421 8.10083 22.2455 8.06892C22.249 8.03702 22.2532 8.00522 22.2581 7.97352C22.2631 7.94182 22.2688 7.91026 22.2753 7.87885C22.2819 7.84743 22.2891 7.81619 22.2972 7.78513C22.3052 7.75407 22.3141 7.72323 22.3236 7.69259C22.3331 7.66197 22.3434 7.63159 22.3545 7.60147C22.3656 7.57135 22.3774 7.54151 22.3899 7.51197C22.4024 7.48243 22.4156 7.45321 22.4296 7.42432C22.4436 7.39542 22.4582 7.36688 22.4736 7.3387C22.4889 7.31052 22.5049 7.28274 22.5217 7.25535C22.5384 7.22795 22.5557 7.20099 22.5737 7.17446C22.5917 7.14791 22.6104 7.12183 22.6297 7.09621C22.649 7.07058 22.669 7.04545 22.6896 7.0208C22.7101 6.99615 22.7312 6.97202 22.7529 6.94841C22.7746 6.92479 22.797 6.90173 22.8199 6.87922C22.8427 6.85669 22.8661 6.83475 22.89 6.81338C22.9139 6.79201 22.9384 6.77124 22.9633 6.75107C22.9883 6.7309 23.0137 6.71135 23.0397 6.69242C23.0655 6.6735 23.0919 6.65522 23.1187 6.63759C23.1455 6.61995 23.1728 6.60298 23.2004 6.58669C23.228 6.57039 23.256 6.55478 23.2844 6.53986C23.3128 6.52493 23.3416 6.51071 23.3707 6.49719C23.3998 6.48368 23.4292 6.47089 23.4589 6.45882C23.4886 6.44674 23.5187 6.43541 23.549 6.42481C23.5793 6.41421 23.6098 6.40435 23.6406 6.39525C23.6713 6.38614 23.7023 6.3778 23.7334 6.37021C23.7646 6.36263 23.796 6.35581 23.8275 6.34977C23.859 6.34371 23.8907 6.33844 23.9224 6.33395Z" fill="#F9F8F8"/>
<path d="M23.9737 7.36388C23.9774 7.36382 23.9811 7.36354 23.9846 7.3637C23.9906 7.36395 23.9965 7.36474 24.0025 7.36513C24.0287 7.36682 24.0535 7.36881 24.0767 7.38238C24.2832 7.50367 24.8877 7.96977 24.9401 8.17383C24.9254 8.2453 24.9173 8.257 24.862 8.30467C24.716 8.27055 24.5821 8.09159 24.4398 8.01716L24.431 8.01263C24.4252 8.13054 24.2777 8.3199 24.1916 8.40064C24.2979 8.45732 24.4064 8.536 24.5011 8.61028C24.5719 8.66572 24.6125 8.71155 24.6231 8.80146L24.5604 8.86565C24.5545 8.88331 24.5378 8.90062 24.5266 8.91569C24.5084 8.91331 24.4881 8.90996 24.4713 8.90219C24.2874 8.81685 23.6737 8.31646 23.6055 8.12564C23.6098 8.0528 23.6144 8.04407 23.666 7.99254C23.683 7.995 23.7 7.99829 23.7162 8.00399C23.7931 8.03119 23.978 8.17636 24.0112 8.24852C24.0131 8.25252 24.0147 8.2566 24.0164 8.26063C24.1384 8.16315 24.2238 8.00837 24.2443 7.85436C24.2127 7.754 24.0382 7.67869 23.9628 7.60273C23.9308 7.49839 23.9454 7.46582 23.9737 7.36388Z" fill="#006A92"/>
<path d="M23.3725 8.50836C23.3944 8.50319 23.4183 8.49681 23.441 8.49721C23.5014 8.49826 23.5198 8.51587 23.5582 8.56017C23.5748 8.68494 23.4794 8.82336 23.4234 8.93067C23.3748 9.02403 23.3404 9.10915 23.3767 9.21495C23.4208 9.34357 23.5668 9.47421 23.6899 9.52805C23.7646 9.56073 23.8343 9.56708 23.9095 9.53756C23.9885 9.50662 24.0685 9.42253 24.0979 9.34294C24.1243 9.27188 24.1115 9.2336 24.0846 9.16743C24.0484 9.13957 24.0182 9.11673 23.9719 9.10995C23.897 9.099 23.8471 9.15799 23.7884 9.20136L23.7345 9.1826C23.7102 9.12353 23.7099 9.09734 23.7299 9.03588C23.7578 8.95031 23.8099 8.80276 23.8933 8.76081C23.9647 8.77551 23.9717 8.79562 24.0187 8.84912C24.1279 8.9054 24.3132 9.03607 24.3575 9.15135C24.362 9.1717 24.3646 9.19176 24.3615 9.2125C24.3355 9.38994 24.2483 9.60569 24.0982 9.70985C24.0834 9.72021 24.0681 9.7298 24.0523 9.73863C24.0365 9.74746 24.0203 9.75549 24.0037 9.76271C23.9871 9.76992 23.9702 9.77629 23.9529 9.7818C23.9357 9.78733 23.9183 9.79198 23.9006 9.79577C23.8829 9.79955 23.8651 9.80244 23.8471 9.80444C23.8291 9.80643 23.8111 9.80752 23.793 9.80772C23.7749 9.80792 23.7568 9.80721 23.7388 9.8056C23.7208 9.804 23.7029 9.8015 23.6851 9.79811C23.6642 9.7941 23.6434 9.78906 23.623 9.78298C23.6024 9.77691 23.5823 9.76983 23.5625 9.76174C23.5428 9.75365 23.5235 9.7446 23.5046 9.73458C23.4857 9.72457 23.4673 9.71364 23.4495 9.70178C23.4318 9.68994 23.4146 9.67724 23.3981 9.66367C23.3816 9.65011 23.3658 9.63576 23.3507 9.62063C23.3356 9.6055 23.3213 9.58964 23.3078 9.57308C23.2943 9.55651 23.2817 9.53932 23.2699 9.52149C22.9716 9.06601 23.3088 8.84554 23.3707 8.51968C23.3714 8.51593 23.3718 8.51214 23.3725 8.50836Z" fill="#006A92"/>
<path d="M24.6081 7.48617C24.457 7.30272 24.3543 6.91781 24.3639 6.68043L24.3977 6.66162L24.496 6.7131C24.5463 6.69637 24.5957 6.68673 24.6478 6.67743C24.757 6.76254 24.6047 7.01545 24.6304 7.16798C24.6311 7.17158 24.6318 7.17515 24.6324 7.17873C24.7282 7.23403 24.8396 7.32587 24.9527 7.31607C25.0434 7.25658 25.1077 7.09378 25.2019 7.0698C25.3041 7.14921 25.3141 7.34287 25.3411 7.46876L25.3145 7.50692C25.0591 7.53558 24.8462 7.61377 24.6081 7.48617Z" fill="#006A92"/>
<path d="M26.5145 7.73621L26.5699 7.76049C26.9112 8.17757 27.3244 9.17335 27.4954 9.69153C27.6294 10.0989 27.7417 10.5122 27.8323 10.9315C27.9354 11.403 28.307 13.4634 28.1181 13.8384C28.1265 13.795 28.1309 13.7485 28.12 13.7052C28.0307 13.3537 27.5544 12.6678 27.2333 12.4873C27.2313 12.4748 27.2316 12.4721 27.225 12.4591C27.1764 12.3649 27.0392 12.2671 26.9571 12.198C26.3146 11.6569 25.0976 10.9039 24.2891 10.6955C24.4358 10.6788 24.5893 10.6457 24.7325 10.6086C25.3695 10.4438 25.9191 10.0525 26.2547 9.48208C26.5601 8.96303 26.6659 8.32099 26.5145 7.73621Z" fill="#006A92"/>
<path d="M24.6171 11.2563C24.6408 11.2512 24.6646 11.2493 24.6886 11.2536C24.8869 11.2891 25.1471 11.4625 25.324 11.5621C26.1892 12.0491 27.0406 12.5993 27.6127 13.432C27.7543 13.6382 28.1184 14.2987 28.0719 14.5503L27.9957 14.5806C27.6741 14.454 27.2778 14.399 26.9379 14.3125L25.5487 13.956C25.2372 13.8763 24.9073 13.7684 24.5859 13.7485C24.6065 13.7179 24.6227 13.6851 24.6347 13.6502C24.7612 13.2868 24.7635 11.5736 24.6171 11.2563Z" fill="url(#paint1_linear_511_11449)"/>
<path d="M27.6016 7.03784C27.9572 7.07099 29.366 7.00883 29.5682 7.14883C29.6289 7.26491 29.6313 7.412 29.6235 7.54056C29.5947 8.01496 29.4577 8.52164 29.3691 8.99066C29.2897 9.41151 29.2369 9.87524 29.114 10.2838C29.1035 10.3187 29.0836 10.35 29.0623 10.3793C29.0662 10.3875 29.0676 10.3899 29.0707 10.3995C29.1156 10.5394 29.0023 10.7819 28.9381 10.9068C28.9336 10.894 28.9345 10.8948 28.9261 10.8811C28.826 10.719 28.5593 10.6867 28.387 10.6439C28.4107 10.5185 28.334 10.2004 28.2671 10.0931C28.4237 9.72573 27.8452 7.56778 27.6815 7.16526C27.6629 7.11984 27.6368 7.07245 27.6016 7.03784Z" fill="url(#paint2_linear_511_11449)"/>
<path d="M28.2656 10.093C28.3654 10.1984 28.8677 10.389 29.0168 10.3922C29.0395 10.3927 29.043 10.3919 29.0608 10.3792C29.0647 10.3874 29.0661 10.3898 29.0691 10.3994C29.1141 10.5393 29.0008 10.7818 28.9366 10.9067C28.9321 10.8939 28.933 10.8947 28.9246 10.881C28.8245 10.7189 28.5578 10.6866 28.3855 10.6438C28.4092 10.5184 28.3325 10.2003 28.2656 10.093Z" fill="#A8A8A8"/>
<path d="M22.6358 5.24578C22.6483 5.24281 22.6604 5.23999 22.6732 5.23808C23.0393 5.18297 24.2552 5.68561 24.5682 5.91107C24.2132 5.87076 23.8588 5.88551 23.5154 5.98821C23.478 5.99936 23.441 6.01141 23.4043 6.02436C23.3676 6.03732 23.3312 6.05116 23.2951 6.06589C23.2591 6.08062 23.2234 6.09622 23.1882 6.11269C23.1529 6.12916 23.118 6.14648 23.0836 6.16464C23.0491 6.18281 23.0151 6.20181 22.9816 6.22164C22.9481 6.24147 22.915 6.2621 22.8825 6.28354C22.85 6.30498 22.818 6.32719 22.7866 6.35019C22.7552 6.37318 22.7244 6.39693 22.6941 6.42144C22.6638 6.44594 22.6342 6.47116 22.6052 6.49711C22.5761 6.52305 22.5477 6.54969 22.52 6.57702C22.4922 6.60435 22.4651 6.63234 22.4388 6.66099C22.4124 6.68964 22.3867 6.71892 22.3618 6.74883C22.3368 6.77874 22.3126 6.80923 22.2892 6.84031C22.2658 6.87139 22.2431 6.90302 22.2211 6.93522C22.1992 6.96741 22.1781 7.00011 22.1578 7.03333C22.1375 7.06656 22.118 7.10025 22.0993 7.13442C21.7776 7.73191 21.7036 8.60654 22.0115 9.22748C22.0922 9.39028 22.2978 9.64913 22.3385 9.79848C22.3397 9.8027 22.3407 9.80697 22.3417 9.8112C22.3788 9.83081 22.4167 9.85449 22.4483 9.88208C22.5105 9.93633 22.5504 9.99096 22.5573 10.0739C22.2926 9.85611 20.7261 9.56799 20.3125 9.47852C20.6146 8.8805 22.6078 5.52224 22.6358 5.24578Z" fill="#006A92"/>
<path d="M25.1825 4.67395L25.2688 4.67599C26.2562 5.20432 27.094 6.50822 27.4553 7.541C27.6159 7.99995 28.0248 9.40777 27.8215 9.83078C27.8305 9.79174 27.8381 9.75212 27.8406 9.71206C27.8493 9.57262 27.7492 9.32667 27.6574 9.22499C27.702 9.05968 27.3794 8.51157 27.292 8.337C27.2282 8.21094 27.1605 8.08705 27.0888 7.96531C27.0171 7.84357 26.9417 7.72423 26.8624 7.60731C26.7831 7.49039 26.7002 7.37611 26.6136 7.26448C26.5271 7.15284 26.437 7.04408 26.3434 6.93819C26.25 6.8323 26.1532 6.7295 26.0531 6.62979C25.9531 6.53007 25.8499 6.43364 25.7437 6.3405C25.6375 6.24737 25.5284 6.15771 25.4164 6.07152C25.3045 5.98534 25.19 5.90282 25.0727 5.82395C24.8776 5.6941 24.661 5.55088 24.4375 5.47664C24.4423 5.47413 24.447 5.47157 24.4518 5.46914C24.6462 5.37055 25.0999 4.87068 25.1825 4.67395Z" fill="#006A92"/>
<path d="M25.8907 17.839C25.9348 17.831 25.9809 17.824 26.0258 17.8244C26.2631 17.8265 27.2332 18.088 27.3972 18.2582C27.4482 18.3781 27.3708 18.8054 27.3215 18.933C27.2884 19.0181 27.2689 19.0251 27.1906 19.0611C27.1415 19.0889 27.0802 19.0716 27.0274 19.0609C26.8408 19.0235 25.8468 18.748 25.7805 18.6341C25.6835 18.4677 25.8447 18.0183 25.8907 17.839Z" fill="black"/>
<path d="M26.1803 16.4653C26.2259 16.4557 26.2721 16.4504 26.3187 16.4548C26.5449 16.4756 27.544 16.7113 27.6628 16.8643C27.7069 16.9211 27.693 17.054 27.6853 17.1232C27.6643 17.3107 27.6328 17.559 27.481 17.6788C27.3006 17.7195 26.6089 17.49 26.3951 17.4216C26.3208 17.3979 26.0777 17.3289 26.0452 17.2557C25.9784 17.1055 26.1158 16.6186 26.1803 16.4653Z" fill="black"/>
<path d="M26.4567 15.1202C26.4689 15.117 26.4805 15.1147 26.4928 15.112C26.5409 15.1014 26.5855 15.095 26.6349 15.1006C26.8571 15.1257 27.8583 15.3365 27.9672 15.4857C27.9982 15.5284 27.9973 15.5999 27.9904 15.6512C27.966 15.8327 27.9403 16.1829 27.7927 16.2938C27.5934 16.3429 26.8859 16.1186 26.6565 16.0459C26.5922 16.0256 26.3781 15.9623 26.3468 15.8996C26.2547 15.7154 26.3955 15.3074 26.4567 15.1202Z" fill="black"/>
<path d="M23.6966 17.1805C23.7403 17.1676 23.7851 17.1575 23.8309 17.1581C24.044 17.1604 24.9872 17.4157 25.1144 17.562C25.1539 17.6073 25.1549 17.665 25.1513 17.7226C25.1411 17.8833 25.078 18.2398 24.9579 18.3426C24.9396 18.3582 24.9347 18.3647 24.9105 18.368C24.708 18.3955 23.7717 18.0818 23.6002 17.9519C23.5072 17.7617 23.6572 17.3867 23.6966 17.1805Z" fill="black"/>
<path d="M23.9732 15.8355C24.0175 15.8259 24.0643 15.8204 24.1094 15.826C24.3218 15.8524 25.2891 16.0703 25.3959 16.2206C25.4708 16.3259 25.3854 16.6395 25.3596 16.7658C25.3388 16.8682 25.3091 16.9318 25.2197 16.991C25.2007 17.004 25.1941 17.0128 25.1705 17.014C24.9991 17.0234 23.9775 16.7367 23.8784 16.6309C23.7435 16.487 23.973 16.038 23.9733 15.8503C23.9733 15.8453 23.9732 15.8404 23.9732 15.8355Z" fill="black"/>
<path d="M24.2879 14.519C24.3163 14.514 24.3442 14.5111 24.3732 14.5112C24.5721 14.5119 25.5534 14.7405 25.6676 14.8666C25.7073 14.9105 25.7145 14.9712 25.7094 15.0288C25.691 15.23 25.662 15.5201 25.5016 15.6521C25.4461 15.6763 25.3914 15.6663 25.3324 15.6551C25.134 15.6171 24.248 15.4261 24.1561 15.2939C24.1055 15.0806 24.1866 14.7135 24.2879 14.519Z" fill="black"/>
<path d="M28.3984 11.561L28.4021 11.5429C28.4237 11.4314 28.382 11.2475 28.4432 11.1588C28.5451 11.1316 28.7249 11.2376 28.8163 11.2921C28.845 11.3093 28.8622 11.3331 28.8781 11.3621C28.88 11.4286 28.8701 11.4913 28.8237 11.5434C28.8206 11.5469 28.8172 11.5503 28.8139 11.5537C28.8446 11.664 28.8539 11.816 28.7878 11.917C28.777 11.9334 28.7652 11.9459 28.7499 11.9577C28.763 11.9857 28.7724 12.0129 28.7736 12.0442C28.7841 12.3346 28.6015 13.2858 28.4229 13.4912L28.4277 13.4803C28.5339 13.235 28.532 12.2153 28.4296 11.9586C28.4706 11.8335 28.4526 11.679 28.3984 11.561Z" fill="url(#paint3_linear_511_11449)"/>
<path d="M28.3984 11.561L28.4021 11.5429C28.4237 11.4314 28.382 11.2475 28.4432 11.1588C28.5451 11.1316 28.7249 11.2376 28.8163 11.2921C28.845 11.3093 28.8622 11.3331 28.8781 11.3621C28.88 11.4286 28.8701 11.4913 28.8237 11.5434C28.8206 11.5469 28.8172 11.5503 28.8139 11.5537C28.8446 11.664 28.8539 11.816 28.7878 11.917C28.777 11.9334 28.7652 11.9459 28.7499 11.9577C28.7126 11.9357 28.6838 11.9524 28.6434 11.9623C28.5632 11.9189 28.599 11.8038 28.5247 11.7327C28.4756 11.7606 28.4551 11.8978 28.4296 11.9586C28.4706 11.8335 28.4526 11.679 28.3984 11.561Z" fill="#A8A8A8"/>
<path d="M28.3984 11.561L28.4021 11.5429C28.4237 11.4314 28.382 11.2475 28.4432 11.1588C28.5451 11.1316 28.7249 11.2376 28.8163 11.2921C28.845 11.3093 28.8622 11.3331 28.8781 11.3621C28.88 11.4286 28.8701 11.4913 28.8237 11.5434C28.8206 11.5469 28.8172 11.5503 28.8139 11.5537C28.7706 11.5355 28.706 11.5674 28.6494 11.5465C28.6309 11.5397 28.5885 11.4269 28.5777 11.4025L28.5293 11.3849C28.4471 11.4286 28.4374 11.4794 28.3984 11.561Z" fill="#C8C7C6"/>
</g>
<defs>
<linearGradient id="paint0_linear_511_11449" x1="27.7648" y1="20.9898" x2="25.0822" y2="5.77098" gradientUnits="userSpaceOnUse">
<stop stop-color="#FFE200"/>
<stop offset="1" stop-color="#FFB515"/>
</linearGradient>
<linearGradient id="paint1_linear_511_11449" x1="24.7286" y1="12.9367" x2="27.9806" y2="12.9253" gradientUnits="userSpaceOnUse">
<stop stop-color="#BD1418"/>
<stop offset="1" stop-color="#FF2329"/>
</linearGradient>
<linearGradient id="paint2_linear_511_11449" x1="28.7983" y1="6.97991" x2="28.0467" y2="10.1219" gradientUnits="userSpaceOnUse">
<stop stop-color="#343334"/>
<stop offset="1" stop-color="#6F6E6F"/>
</linearGradient>
<linearGradient id="paint3_linear_511_11449" x1="28.3669" y1="12.9196" x2="28.776" y2="12.2377" gradientUnits="userSpaceOnUse">
<stop stop-color="#5C5D5B"/>
<stop offset="1" stop-color="#777577"/>
</linearGradient>
<clipPath id="clip0_511_11449">
<rect width="34" height="19.4613" fill="white" transform="translate(2 3)"/>
</clipPath>
</defs>
</svg>
