<svg width="22" height="22" viewBox="0 0 22 22" fill="none" xmlns="http://www.w3.org/2000/svg">
<path d="M4.125 9.40986V5.5H17.875V9.40986C17.875 12.3201 17.875 13.7752 16.9801 14.6792C16.0851 15.5833 14.6447 15.5833 11.7639 15.5833H10.2361C7.35531 15.5833 5.9149 15.5833 5.01995 14.6792C4.125 13.7752 4.125 12.3201 4.125 9.40986Z" stroke="#A9A9A9" stroke-width="1.375" stroke-linecap="round" stroke-linejoin="round"/>
<path d="M4.125 5.50065L4.78605 4.0904C5.29875 2.99667 5.55508 2.4498 6.07468 2.14189C6.59427 1.83398 7.26077 1.83398 8.59375 1.83398H13.4063C14.7393 1.83398 15.4057 1.83398 15.9253 2.14189C16.4449 2.4498 16.7013 2.99667 17.2139 4.0904L17.875 5.50065" stroke="#A9A9A9" stroke-width="1.375" stroke-linecap="round"/>
<path d="M9.625 8.25H12.375" stroke="#A9A9A9" stroke-width="1.375" stroke-linecap="round"/>
<path d="M11 17.875V20.1667M11 17.875H6.41671M11 17.875H15.5834M6.41671 17.875H4.12504C2.85939 17.875 1.83337 18.901 1.83337 20.1667M6.41671 17.875V20.1667M15.5834 17.875H17.875C19.1407 17.875 20.1667 18.901 20.1667 20.1667M15.5834 17.875V20.1667" stroke="#A9A9A9" stroke-width="1.375" stroke-linecap="round" stroke-linejoin="round"/>
</svg>
