<svg width="26" height="26" viewBox="0 0 26 26" fill="none" xmlns="http://www.w3.org/2000/svg">
<path d="M20.9291 14.6263H16.7312C16.1749 14.6263 15.6413 14.8466 15.247 15.239C14.8528 15.6315 14.63 16.1641 14.6274 16.7204V20.9183C14.6274 21.4763 14.849 22.0114 15.2436 22.4059C15.6381 22.8005 16.1732 23.0221 16.7312 23.0221H20.9291C21.4852 23.0193 22.0176 22.7964 22.4098 22.4021C22.802 22.0079 23.0221 21.4744 23.0221 20.9183V16.7204C23.0221 16.1653 22.8016 15.6329 22.4091 15.2404C22.0166 14.8479 21.4842 14.6274 20.9291 14.6274M9.27139 14.6263H5.07347C4.51728 14.6295 3.98494 14.8526 3.59277 15.247C3.20059 15.6414 2.98046 16.175 2.98047 16.7312V20.9291C2.98047 21.4842 3.20098 22.0166 3.59349 22.4091C3.98601 22.8016 4.51837 23.0221 5.07347 23.0221H9.27139C9.82749 23.0221 10.361 22.802 10.7552 22.4098C11.1494 22.0176 11.3724 21.4852 11.3752 20.9291V16.7312C11.3752 16.1732 11.1536 15.6381 10.759 15.2436C10.3645 14.849 9.82936 14.6274 9.27139 14.6274M9.27139 2.98047H5.07347C4.79861 2.98047 4.52645 3.03461 4.27251 3.13979C4.01858 3.24497 3.78785 3.39914 3.59349 3.59349C3.39914 3.78785 3.24497 4.01858 3.13979 4.27251C3.03461 4.52645 2.98047 4.79861 2.98047 5.07347V9.27139C2.98046 9.82749 3.20063 10.361 3.59283 10.7552C3.98504 11.1494 4.51738 11.3724 5.07347 11.3752H9.27139C9.82936 11.3752 10.3645 11.1536 10.759 10.759C11.1536 10.3645 11.3752 9.82936 11.3752 9.27139V5.07347C11.3724 4.51738 11.1494 3.98504 10.7552 3.59283C10.361 3.20063 9.82749 2.98046 9.27139 2.98047ZM20.9291 2.98047H16.7312C16.1751 2.98046 15.6416 3.20063 15.2474 3.59283C14.8532 3.98504 14.6302 4.51738 14.6274 5.07347V9.27139C14.6277 9.82927 14.8494 10.3642 15.2439 10.7587C15.6384 11.1532 16.1733 11.3749 16.7312 11.3752H20.9291C21.4852 11.3724 22.0176 11.1494 22.4098 10.7552C22.802 10.361 23.0221 9.82749 23.0221 9.27139V5.07347C23.0221 4.51837 22.8016 3.98601 22.4091 3.59349C22.0166 3.20098 21.4842 2.98047 20.9291 2.98047Z" stroke="#757575" stroke-width="1.5" stroke-linecap="round" stroke-linejoin="round"/>
</svg>
