<svg width="38" height="25" viewBox="0 0 38 25" fill="none" xmlns="http://www.w3.org/2000/svg">
<rect x="0.25" y="0.75" width="37.5" height="23.5" rx="7.75" fill="white"/>
<rect x="0.25" y="0.75" width="37.5" height="23.5" rx="7.75" stroke="#757575" stroke-width="0.5"/>
<path d="M16.0887 8.49348C16.1268 8.48956 16.165 8.48658 16.2031 8.48453C16.2414 8.48249 16.2796 8.48139 16.3179 8.48122C16.3562 8.48106 16.3944 8.48184 16.4327 8.48356C16.4709 8.48528 16.5091 8.48793 16.5472 8.49153C16.5853 8.49512 16.6233 8.49964 16.6612 8.5051C16.6991 8.51057 16.7368 8.51696 16.7743 8.52427C16.8119 8.53159 16.8492 8.53982 16.8864 8.54897C16.9235 8.55812 16.9605 8.56818 16.9972 8.57915C17.0338 8.59012 17.0702 8.60198 17.1063 8.61474C17.1424 8.6275 17.1782 8.64113 17.2136 8.65564C17.249 8.67016 17.284 8.68553 17.3187 8.70177C17.3534 8.718 17.3876 8.73508 17.4213 8.753C17.4552 8.77092 17.4885 8.78966 17.5214 8.80921C17.5544 8.82877 17.5868 8.84913 17.6186 8.87029C17.6506 8.89144 17.6819 8.91336 17.7128 8.93605C17.7436 8.95875 17.7738 8.98218 17.8035 9.00636C17.8332 9.03054 17.8622 9.05544 17.8906 9.08105C17.9191 9.10665 17.9469 9.13294 17.9741 9.15992C18.0012 9.1869 18.0277 9.21452 18.0535 9.2428C18.0793 9.27108 18.1043 9.29997 18.1288 9.32948C18.1531 9.35899 18.1767 9.38908 18.1996 9.41975C18.2226 9.45042 18.2447 9.48163 18.266 9.5134C18.2874 9.54516 18.3079 9.57742 18.3277 9.61019C18.3475 9.64297 18.3665 9.6762 18.3845 9.7099C18.4027 9.7436 18.42 9.77773 18.4365 9.81228C18.453 9.84684 18.4686 9.88178 18.4833 9.9171C18.4981 9.95241 18.512 9.98807 18.5249 10.0241C18.5379 10.0601 18.55 10.0964 18.5612 10.133C18.5724 10.1696 18.5827 10.2064 18.5921 10.2435C18.6015 10.2806 18.61 10.3179 18.6176 10.3555C18.6252 10.393 18.6318 10.4307 18.6375 10.4685C18.6432 10.5064 18.648 10.5443 18.6518 10.5824C18.6556 10.6205 18.6585 10.6586 18.6605 10.6969C18.6625 10.7351 18.6635 10.7733 18.6636 10.8116C18.6637 10.8499 18.6628 10.8881 18.6611 10.9264C18.6592 10.9646 18.6565 11.0028 18.6529 11.0409C18.6492 11.079 18.6446 11.1169 18.639 11.1548C18.6335 11.1927 18.627 11.2304 18.6197 11.268C18.6123 11.3055 18.604 11.3429 18.5948 11.38C18.5855 11.4172 18.5753 11.454 18.5643 11.4907C18.5533 11.5273 18.5413 11.5637 18.5285 11.5998C18.5157 11.6358 18.502 11.6715 18.4874 11.7069C18.4728 11.7423 18.4574 11.7773 18.441 11.8119C18.4248 11.8466 18.4076 11.8808 18.3896 11.9146C18.3717 11.9484 18.3529 11.9817 18.3332 12.0145C18.3136 12.0474 18.2932 12.0798 18.272 12.1116C18.2507 12.1435 18.2287 12.1748 18.206 12.2056C18.1833 12.2363 18.1598 12.2665 18.1355 12.2962C18.1113 12.3258 18.0864 12.3548 18.0607 12.3832C18.035 12.4116 18.0086 12.4393 17.9816 12.4664C17.9546 12.4935 17.9269 12.5199 17.8986 12.5457C17.8703 12.5714 17.8413 12.5964 17.8117 12.6208C17.7822 12.6451 17.7521 12.6687 17.7214 12.6915C17.6906 12.7143 17.6594 12.7364 17.6276 12.7577C17.5957 12.779 17.5634 12.7995 17.5306 12.8192C17.4978 12.8389 17.4645 12.8578 17.4308 12.8759C17.3971 12.8939 17.3629 12.9112 17.3283 12.9276C17.2938 12.944 17.2588 12.9595 17.2234 12.9742C17.1881 12.9888 17.1524 13.0026 17.1164 13.0156C17.0803 13.0285 17.044 13.0405 17.0074 13.0516C16.9708 13.0628 16.9339 13.073 16.8968 13.0823C16.8597 13.0916 16.8224 13.1001 16.7848 13.1075C16.7473 13.115 16.7096 13.1216 16.6717 13.1272C16.6339 13.1329 16.5959 13.1376 16.5578 13.1413C16.5198 13.1451 16.4818 13.1479 16.4436 13.1498C16.4055 13.1517 16.3673 13.1526 16.3292 13.1527C16.291 13.1527 16.2528 13.1518 16.2147 13.1499C16.1765 13.1481 16.1385 13.1453 16.1005 13.1416C16.0625 13.1378 16.0246 13.1332 15.9869 13.1276C15.9491 13.1221 15.9114 13.1156 15.874 13.1081C15.8365 13.1007 15.7993 13.0924 15.7623 13.0831C15.7252 13.0739 15.6884 13.0637 15.6519 13.0527C15.6154 13.0416 15.5791 13.0297 15.5432 13.0169C15.5072 13.0041 15.4716 12.9904 15.4362 12.9758C15.401 12.9612 15.3661 12.9458 15.3315 12.9295C15.297 12.9132 15.2629 12.8961 15.2292 12.8781C15.1955 12.8602 15.1623 12.8414 15.1296 12.8218C15.0968 12.8022 15.0645 12.7819 15.0327 12.7607C15.0009 12.7395 14.9697 12.7176 14.939 12.6949C14.9084 12.6722 14.8782 12.6487 14.8487 12.6246C14.8192 12.6004 14.7902 12.5755 14.7619 12.5499C14.7335 12.5243 14.7058 12.498 14.6788 12.4711C14.6518 12.4441 14.6254 12.4165 14.5997 12.3883C14.574 12.36 14.5491 12.3312 14.5248 12.3017C14.5005 12.2722 14.477 12.2422 14.4543 12.2115C14.4315 12.1809 14.4094 12.1498 14.3882 12.1181C14.3669 12.0863 14.3464 12.0541 14.3267 12.0214C14.307 11.9887 14.2881 11.9556 14.2701 11.9219C14.252 11.8883 14.2348 11.8542 14.2184 11.8197C14.202 11.7853 14.1865 11.7504 14.1718 11.7152C14.1571 11.6799 14.1433 11.6443 14.1304 11.6084C14.1175 11.5725 14.1054 11.5363 14.0942 11.4998C14.083 11.4633 14.0728 11.4265 14.0634 11.3895C14.0541 11.3525 14.0456 11.3153 14.0381 11.2778C14.0306 11.2404 14.024 11.2028 14.0183 11.1651C14.0126 11.1273 14.0078 11.0895 14.004 11.0515C14.0002 11.0135 13.9973 10.9754 13.9953 10.9373C13.9933 10.8992 13.9923 10.861 13.9922 10.8228C13.9921 10.7847 13.9929 10.7465 13.9947 10.7084C13.9965 10.6702 13.9992 10.6322 14.0028 10.5942C14.0065 10.5562 14.011 10.5183 14.0165 10.4805C14.022 10.4427 14.0285 10.4051 14.0359 10.3676C14.0431 10.3302 14.0514 10.2929 14.0606 10.2559C14.0698 10.2188 14.0798 10.182 14.0908 10.1454C14.1018 10.1088 14.1136 10.0726 14.1263 10.0366C14.1391 10.0006 14.1528 9.96496 14.1673 9.92964C14.1818 9.89432 14.1971 9.85938 14.2134 9.82482C14.2296 9.79026 14.2466 9.75612 14.2645 9.72239C14.2824 9.68867 14.3011 9.65541 14.3207 9.6226C14.3402 9.58979 14.3605 9.55747 14.3816 9.52566C14.4027 9.49385 14.4246 9.46257 14.4472 9.43183C14.4698 9.40109 14.4932 9.37092 14.5173 9.34133C14.5414 9.31173 14.5662 9.28275 14.5918 9.25437C14.6174 9.226 14.6436 9.19827 14.6705 9.17117C14.6974 9.14408 14.7249 9.11767 14.7531 9.09193C14.7813 9.06619 14.8101 9.04115 14.8395 9.01682C14.8689 8.9925 14.8989 8.96891 14.9295 8.94605C14.9601 8.92319 14.9913 8.9011 15.0229 8.87978C15.0546 8.85844 15.0868 8.8379 15.1194 8.81815C15.1521 8.7984 15.1852 8.77945 15.2188 8.76132C15.2524 8.7432 15.2864 8.7259 15.3208 8.70945C15.3553 8.69298 15.3902 8.67738 15.4253 8.66263C15.4606 8.64787 15.4961 8.63399 15.532 8.62098C15.5679 8.60798 15.6041 8.59586 15.6406 8.58462C15.6771 8.57338 15.7138 8.56305 15.7508 8.55362C15.7878 8.54419 15.825 8.53567 15.8624 8.52805C15.8998 8.52045 15.9374 8.51376 15.9752 8.50799C16.0129 8.50222 16.0508 8.49739 16.0887 8.49348ZM16.5292 12.1113C16.5503 12.108 16.5713 12.1042 16.5922 12.1C16.6131 12.0957 16.6339 12.0909 16.6547 12.0856C16.6753 12.0802 16.6959 12.0744 16.7162 12.0681C16.7366 12.0618 16.7569 12.055 16.7769 12.0477C16.797 12.0404 16.8169 12.0326 16.8365 12.0243C16.8562 12.0161 16.8757 12.0073 16.895 11.9981C16.9142 11.9889 16.9332 11.9792 16.9521 11.969C16.9708 11.9589 16.9893 11.9483 17.0076 11.9372C17.0258 11.9261 17.0438 11.9146 17.0615 11.9027C17.0792 11.8907 17.0966 11.8784 17.1137 11.8656C17.1308 11.8528 17.1475 11.8396 17.164 11.826C17.1805 11.8124 17.1966 11.7984 17.2124 11.784C17.2281 11.7696 17.2435 11.7548 17.2586 11.7396C17.2736 11.7245 17.2882 11.709 17.3025 11.6931C17.3169 11.6772 17.3308 11.661 17.3442 11.6445C17.3577 11.6279 17.3708 11.611 17.3835 11.5939C17.3962 11.5767 17.4084 11.5592 17.4201 11.5414C17.432 11.5236 17.4433 11.5055 17.4542 11.4872C17.4652 11.4689 17.4757 11.4503 17.4857 11.4314C17.4957 11.4125 17.5052 11.3935 17.5144 11.3741C17.5234 11.3548 17.532 11.3353 17.5402 11.3155C17.5483 11.2958 17.5559 11.2759 17.563 11.2557C17.5702 11.2356 17.5769 11.2153 17.583 11.1949C17.5892 11.1745 17.5948 11.1539 17.6 11.1332C17.6051 11.1124 17.6098 11.0916 17.614 11.0707C17.6181 11.0497 17.6217 11.0287 17.6248 11.0075C17.6279 10.9864 17.6305 10.9652 17.6325 10.944C17.6347 10.9227 17.6363 10.9015 17.6373 10.8801C17.6383 10.8588 17.6388 10.8375 17.6387 10.8161C17.6387 10.7948 17.6382 10.7734 17.6372 10.7521C17.6362 10.7308 17.6346 10.7095 17.6324 10.6882C17.6304 10.667 17.6278 10.6458 17.6246 10.6247C17.6214 10.6036 17.6178 10.5825 17.6137 10.5616C17.6095 10.5406 17.6048 10.5198 17.5997 10.4991C17.5944 10.4784 17.5887 10.4578 17.5826 10.4374C17.5764 10.4169 17.5697 10.3967 17.5626 10.3766C17.5554 10.3564 17.5477 10.3365 17.5395 10.3168C17.5314 10.2971 17.5228 10.2775 17.5137 10.2582C17.5046 10.2389 17.495 10.2198 17.4849 10.201C17.4749 10.1821 17.4644 10.1636 17.4535 10.1452C17.4425 10.1269 17.4311 10.1088 17.4193 10.0911C17.4075 10.0733 17.3952 10.0558 17.3825 10.0386C17.3699 10.0215 17.3568 10.0046 17.3432 9.98808C17.3297 9.97154 17.3158 9.95535 17.3015 9.93949C17.2872 9.92364 17.2726 9.90815 17.2575 9.89302C17.2424 9.87788 17.227 9.86312 17.2113 9.84874C17.1954 9.83435 17.1793 9.82037 17.1628 9.80677C17.1463 9.79318 17.1296 9.78 17.1125 9.76722C17.0954 9.75445 17.0779 9.74211 17.0602 9.73019C17.0425 9.71827 17.0245 9.70679 17.0062 9.69574C16.988 9.6847 16.9694 9.67412 16.9506 9.66399C16.9319 9.65385 16.9128 9.64418 16.8936 9.63498C16.8743 9.62577 16.8548 9.61705 16.8351 9.6088C16.8154 9.60055 16.7955 9.59278 16.7755 9.58551C16.7554 9.57823 16.7352 9.57144 16.7147 9.56515C16.6943 9.55886 16.6738 9.55307 16.6531 9.54779C16.6325 9.54251 16.6116 9.53774 16.5907 9.53347C16.5698 9.5292 16.5488 9.52545 16.5277 9.52221C16.5066 9.51898 16.4854 9.51626 16.4641 9.51405C16.4429 9.51184 16.4217 9.51016 16.4003 9.509C16.379 9.50783 16.3577 9.50719 16.3363 9.50708C16.3149 9.50696 16.2936 9.50736 16.2722 9.50829C16.2509 9.50921 16.2296 9.51065 16.2083 9.51263C16.1871 9.51459 16.1659 9.51707 16.1448 9.52007C16.1234 9.5231 16.1022 9.52665 16.0811 9.53072C16.06 9.5348 16.039 9.53939 16.0181 9.54449C15.9972 9.54961 15.9764 9.55523 15.9557 9.56135C15.9352 9.56749 15.9147 9.57413 15.8944 9.58127C15.8741 9.58841 15.854 9.59604 15.834 9.60418C15.8141 9.61231 15.7944 9.62093 15.7749 9.63003C15.7554 9.63913 15.7361 9.64871 15.7171 9.65877C15.6981 9.66882 15.6793 9.67934 15.6608 9.69031C15.6423 9.70129 15.624 9.71272 15.6061 9.7246C15.5882 9.73647 15.5706 9.74878 15.5532 9.76153C15.5358 9.77428 15.5188 9.78745 15.5021 9.80103C15.4854 9.81461 15.4691 9.8286 15.4531 9.843C15.4371 9.85739 15.4215 9.87216 15.4062 9.88732C15.3909 9.90249 15.376 9.91801 15.3615 9.93391C15.347 9.9498 15.3329 9.96604 15.3192 9.98264C15.3055 9.99923 15.2922 10.0161 15.2793 10.0334C15.2665 10.0506 15.254 10.0682 15.242 10.086C15.23 10.1039 15.2185 10.122 15.2074 10.1405C15.1963 10.1589 15.1856 10.1776 15.1754 10.1966C15.1652 10.2155 15.1555 10.2347 15.1463 10.2541C15.137 10.2736 15.1282 10.2932 15.12 10.3131C15.1117 10.3329 15.1039 10.353 15.0966 10.3732C15.0893 10.3935 15.0826 10.4139 15.0763 10.4345C15.07 10.4551 15.0642 10.4758 15.059 10.4967C15.0537 10.5175 15.0489 10.5385 15.0447 10.5596C15.0405 10.5807 15.0368 10.6019 15.0336 10.6232C15.0304 10.6445 15.0278 10.6658 15.0257 10.6872C15.0235 10.7087 15.0219 10.7301 15.0208 10.7516C15.0198 10.7731 15.0192 10.7946 15.0191 10.8161C15.0191 10.8376 15.0197 10.8592 15.0208 10.8806C15.0218 10.9021 15.0234 10.9236 15.0254 10.945C15.0276 10.9664 15.0302 10.9878 15.0334 11.0091C15.0365 11.0304 15.0402 11.0516 15.0444 11.0727C15.0486 11.0938 15.0533 11.1148 15.0585 11.1356C15.0638 11.1565 15.0696 11.1772 15.0759 11.1978C15.0821 11.2184 15.0889 11.2388 15.0962 11.2591C15.1034 11.2793 15.1111 11.2994 15.1193 11.3193C15.1276 11.3392 15.1364 11.3588 15.1456 11.3783C15.1548 11.3977 15.1645 11.4169 15.1747 11.4359C15.1849 11.4548 15.1955 11.4735 15.2066 11.492C15.2177 11.5104 15.2293 11.5286 15.2413 11.5465C15.2532 11.5643 15.2656 11.5819 15.2785 11.5992C15.2913 11.6164 15.3046 11.6334 15.3183 11.65C15.332 11.6666 15.3461 11.6828 15.3605 11.6987C15.375 11.7147 15.3899 11.7302 15.4051 11.7454C15.4204 11.7606 15.4361 11.7754 15.452 11.7898C15.468 11.8042 15.4843 11.8182 15.501 11.8318C15.5177 11.8454 15.5347 11.8586 15.552 11.8713C15.5694 11.8841 15.587 11.8964 15.6049 11.9083C15.6228 11.9202 15.641 11.9317 15.6596 11.9427C15.678 11.9537 15.6968 11.9642 15.7159 11.9743C15.7348 11.9844 15.7541 11.994 15.7736 12.0031C15.7931 12.0122 15.8128 12.0209 15.8327 12.029C15.8526 12.0372 15.8727 12.0448 15.893 12.052C15.9133 12.0591 15.9338 12.0658 15.9544 12.072C15.975 12.0781 15.9958 12.0838 16.0167 12.0889C16.0376 12.094 16.0586 12.0986 16.0797 12.1027C16.1008 12.1068 16.122 12.1104 16.1433 12.1135C16.1647 12.1165 16.186 12.119 16.2074 12.121C16.2289 12.123 16.2503 12.1245 16.2718 12.1254C16.2933 12.1264 16.3148 12.1268 16.3363 12.1267C16.3579 12.1265 16.3794 12.1259 16.4009 12.1247C16.4224 12.1235 16.4438 12.1218 16.4652 12.1196C16.4866 12.1173 16.508 12.1146 16.5292 12.1113Z" fill="#202531"/>
<path d="M25.2924 8.49508C25.3303 8.49093 25.3683 8.48771 25.4064 8.48541C25.4444 8.48313 25.4825 8.48177 25.5207 8.48134C25.5588 8.48092 25.5969 8.48143 25.635 8.48288C25.6731 8.48432 25.7112 8.48669 25.7491 8.49001C25.7872 8.49331 25.8251 8.49754 25.8629 8.50271C25.9006 8.50787 25.9383 8.51395 25.9758 8.52096C26.0132 8.52796 26.0505 8.53588 26.0877 8.54471C26.1248 8.55355 26.1616 8.56329 26.1982 8.57392C26.2349 8.58456 26.2712 8.59609 26.3073 8.6085C26.3433 8.62092 26.379 8.63421 26.4144 8.64838C26.4498 8.66255 26.4848 8.67758 26.5196 8.69346C26.5542 8.70934 26.5885 8.72607 26.6223 8.74363C26.6561 8.76119 26.6895 8.77957 26.7225 8.79877C26.7554 8.81796 26.7879 8.83796 26.8199 8.85874C26.8519 8.87953 26.8833 8.90109 26.9143 8.92342C26.9452 8.94575 26.9755 8.96882 27.0053 8.99264C27.0351 9.01645 27.0643 9.04098 27.0928 9.06623C27.1214 9.09147 27.1494 9.11739 27.1767 9.14401C27.204 9.17062 27.2306 9.19789 27.2566 9.22581C27.2826 9.25372 27.3079 9.28226 27.3325 9.31142C27.357 9.34058 27.3809 9.37031 27.404 9.40064C27.4272 9.43096 27.4495 9.46183 27.4711 9.49326C27.4927 9.52468 27.5136 9.55661 27.5336 9.58905C27.5536 9.62149 27.5729 9.6544 27.5913 9.68779C27.6097 9.72117 27.6273 9.75498 27.6441 9.78923C27.6609 9.82347 27.6769 9.8581 27.692 9.89313C27.7071 9.92816 27.7213 9.96353 27.7346 9.99926C27.748 10.035 27.7604 10.071 27.772 10.1073C27.7836 10.1437 27.7943 10.1803 27.8041 10.2171C27.8139 10.254 27.8227 10.291 27.8307 10.3283C27.8387 10.3656 27.8458 10.4031 27.8519 10.4407C27.8581 10.4784 27.8633 10.5161 27.8675 10.554C27.8718 10.5919 27.8752 10.6299 27.8776 10.6679C27.88 10.706 27.8815 10.7441 27.8821 10.7822C27.8827 10.8204 27.8823 10.8585 27.881 10.8966C27.8797 10.9347 27.8774 10.9728 27.8743 11.0108C27.8711 11.0488 27.867 11.0867 27.862 11.1245C27.857 11.1623 27.8511 11.1999 27.8443 11.2375C27.8373 11.275 27.8295 11.3123 27.8209 11.3494C27.8122 11.3866 27.8026 11.4234 27.7921 11.4601C27.7815 11.4968 27.7701 11.5331 27.7579 11.5693C27.7456 11.6054 27.7324 11.6411 27.7185 11.6766C27.7044 11.7121 27.6895 11.7471 27.6738 11.7819C27.658 11.8166 27.6414 11.8509 27.624 11.8848C27.6066 11.9188 27.5883 11.9522 27.5692 11.9853C27.5501 12.0183 27.5303 12.0508 27.5096 12.0829C27.4889 12.1149 27.4675 12.1464 27.4453 12.1774C27.423 12.2084 27.4001 12.2389 27.3764 12.2687C27.3527 12.2986 27.3283 12.3279 27.3031 12.3566C27.278 12.3852 27.2521 12.4133 27.2257 12.4407C27.1991 12.4681 27.1719 12.4949 27.1441 12.5209C27.1163 12.547 27.0879 12.5724 27.0588 12.5971C27.0298 12.6218 27.0001 12.6457 26.9699 12.669C26.9396 12.6922 26.9089 12.7147 26.8775 12.7364C26.8462 12.7582 26.8143 12.7791 26.782 12.7993C26.7496 12.8194 26.7168 12.8388 26.6834 12.8574C26.6501 12.8759 26.6163 12.8937 26.5821 12.9106C26.548 12.9275 26.5134 12.9435 26.4784 12.9588C26.4435 12.974 26.4082 12.9883 26.3725 13.0018C26.3368 13.0153 26.3008 13.0279 26.2646 13.0396C26.2283 13.0513 26.1917 13.0622 26.1549 13.0721C26.1181 13.082 26.0811 13.091 26.0438 13.0992C26.0065 13.1073 25.969 13.1145 25.9314 13.1207C25.8938 13.127 25.8561 13.1324 25.8182 13.1368C25.7802 13.1413 25.742 13.1448 25.7038 13.1474C25.6655 13.1499 25.6272 13.1516 25.5889 13.1523C25.5507 13.153 25.5124 13.1527 25.474 13.1515C25.4357 13.1503 25.3975 13.1482 25.3593 13.1451C25.3211 13.1421 25.283 13.1381 25.2451 13.1331C25.2071 13.1282 25.1692 13.1223 25.1315 13.1155C25.0938 13.1087 25.0563 13.1009 25.019 13.0923C24.9816 13.0836 24.9445 13.074 24.9076 13.0636C24.8708 13.0531 24.8342 13.0417 24.798 13.0294C24.7616 13.0171 24.7257 13.004 24.69 12.9899C24.6544 12.9759 24.6191 12.9609 24.5842 12.9451C24.5493 12.9294 24.5148 12.9127 24.4807 12.8952C24.4466 12.8777 24.4129 12.8594 24.3798 12.8403C24.3466 12.8211 24.3139 12.8012 24.2817 12.7804C24.2494 12.7597 24.2177 12.7382 24.1865 12.7158C24.1554 12.6935 24.1249 12.6705 24.0949 12.6467C24.0648 12.6228 24.0354 12.5983 24.0066 12.573C23.9778 12.5478 23.9497 12.5218 23.9222 12.4952C23.8946 12.4685 23.8677 12.4412 23.8415 12.4132C23.8153 12.3853 23.7898 12.3567 23.765 12.3274C23.7403 12.2982 23.7163 12.2684 23.693 12.238C23.6697 12.2076 23.6471 12.1766 23.6253 12.1451C23.6035 12.1136 23.5825 12.0815 23.5623 12.049C23.5421 12.0164 23.5227 11.9834 23.5041 11.9499C23.4855 11.9164 23.4678 11.8824 23.4509 11.8481C23.434 11.8137 23.4179 11.7789 23.4027 11.7437C23.3874 11.7086 23.3731 11.673 23.3597 11.6372C23.3463 11.6013 23.3337 11.5651 23.322 11.5286C23.3103 11.4921 23.2995 11.4553 23.2897 11.4183C23.2798 11.3813 23.2709 11.344 23.2628 11.3066C23.2548 11.2691 23.2477 11.2315 23.2416 11.1937C23.2354 11.1559 23.2301 11.1179 23.2258 11.0798C23.2214 11.0418 23.218 11.0036 23.2156 10.9654C23.2132 10.9271 23.2117 10.8888 23.2112 10.8505C23.2106 10.8122 23.211 10.7739 23.2123 10.7356C23.2136 10.6973 23.2159 10.6591 23.2192 10.6209C23.2224 10.5827 23.2265 10.5446 23.2316 10.5067C23.2367 10.4687 23.2427 10.4309 23.2497 10.3932C23.2566 10.3555 23.2645 10.318 23.2733 10.2807C23.2821 10.2434 23.2918 10.2064 23.3025 10.1696C23.3131 10.1327 23.3246 10.0962 23.337 10.06C23.3494 10.0237 23.3627 9.98779 23.3769 9.9522C23.3911 9.91661 23.4061 9.88138 23.4221 9.84653C23.438 9.81167 23.4547 9.77723 23.4724 9.7432C23.49 9.70917 23.5084 9.6756 23.5277 9.64248C23.547 9.60936 23.567 9.57674 23.5879 9.5446C23.6087 9.51247 23.6304 9.48087 23.6528 9.4498C23.6752 9.41873 23.6984 9.38823 23.7223 9.35831C23.7463 9.32838 23.771 9.29906 23.7964 9.27034C23.8217 9.24163 23.8477 9.21356 23.8745 9.18613C23.9013 9.15869 23.9287 9.13194 23.9567 9.10586C23.9848 9.07978 24.0135 9.0544 24.0428 9.02973C24.0721 9.00506 24.1021 8.98113 24.1326 8.95793C24.163 8.93473 24.1941 8.91229 24.2257 8.89062C24.2573 8.86896 24.2894 8.84808 24.3221 8.82799C24.3546 8.8079 24.3877 8.78862 24.4214 8.77016C24.4549 8.7517 24.4889 8.73408 24.5233 8.71729C24.5578 8.70051 24.5927 8.68458 24.6278 8.6695C24.6631 8.65443 24.6987 8.64023 24.7346 8.62691C24.7705 8.61359 24.8068 8.60116 24.8433 8.58962C24.8798 8.57808 24.9166 8.56745 24.9537 8.55772C24.9907 8.548 25.028 8.53919 25.0656 8.5313C25.103 8.5234 25.1407 8.51644 25.1785 8.5104C25.2164 8.50436 25.2543 8.49925 25.2924 8.49508ZM25.747 12.1117C25.7681 12.1084 25.789 12.1046 25.8099 12.1003C25.8308 12.096 25.8515 12.0912 25.8722 12.0859C25.8928 12.0806 25.9133 12.0748 25.9336 12.0685C25.954 12.0622 25.9742 12.0554 25.9942 12.0481C26.0142 12.0408 26.034 12.0331 26.0537 12.0248C26.0733 12.0166 26.0928 12.0078 26.112 11.9986C26.1312 11.9894 26.1501 11.9797 26.1689 11.9696C26.1877 11.9595 26.2062 11.9489 26.2244 11.9379C26.2426 11.9268 26.2605 11.9154 26.2781 11.9035C26.2959 11.8916 26.3133 11.8792 26.3303 11.8665C26.3474 11.8537 26.3641 11.8406 26.3805 11.827C26.3969 11.8134 26.413 11.7995 26.4288 11.7851C26.4445 11.7708 26.4599 11.756 26.4749 11.7409C26.4899 11.7258 26.5045 11.7104 26.5188 11.6945C26.5331 11.6787 26.547 11.6626 26.5605 11.6461C26.574 11.6296 26.587 11.6128 26.5997 11.5956C26.6123 11.5785 26.6246 11.5611 26.6364 11.5433C26.6482 11.5256 26.6596 11.5076 26.6705 11.4893C26.6815 11.471 26.692 11.4525 26.702 11.4337C26.712 11.4149 26.7215 11.3959 26.7307 11.3766C26.7398 11.3573 26.7484 11.3379 26.7565 11.3182C26.7646 11.2985 26.7723 11.2786 26.7795 11.2586C26.7867 11.2385 26.7934 11.2183 26.7996 11.1979C26.8058 11.1775 26.8115 11.157 26.8166 11.1363C26.8218 11.1157 26.8265 11.0949 26.8307 11.074C26.8349 11.0531 26.8386 11.0321 26.8418 11.0111C26.8449 10.99 26.8475 10.9689 26.8496 10.9477C26.8517 10.9265 26.8534 10.9052 26.8545 10.884C26.8556 10.8627 26.8562 10.8414 26.8562 10.8201C26.8562 10.7988 26.8558 10.7775 26.8548 10.7562C26.8538 10.7349 26.8523 10.7137 26.8503 10.6925C26.8482 10.6713 26.8457 10.6501 26.8427 10.6291C26.8396 10.608 26.836 10.587 26.832 10.5661C26.8279 10.5451 26.8233 10.5244 26.8182 10.5037C26.8131 10.483 26.8075 10.4624 26.8014 10.442C26.7953 10.4216 26.7887 10.4013 26.7816 10.3813C26.7746 10.3612 26.767 10.3413 26.7589 10.3215C26.7509 10.3018 26.7424 10.2823 26.7333 10.263C26.7243 10.2437 26.7149 10.2246 26.7049 10.2058C26.695 10.1869 26.6846 10.1683 26.6737 10.15C26.6629 10.1316 26.6517 10.1136 26.64 10.0958C26.6282 10.078 26.616 10.0605 26.6034 10.0433C26.5908 10.0261 26.5779 10.0093 26.5645 9.99269C26.5511 9.97613 26.5373 9.95991 26.5231 9.94402C26.5089 9.92813 26.4943 9.9126 26.4794 9.89742C26.4645 9.88224 26.4492 9.86744 26.4335 9.85301C26.4178 9.83858 26.4017 9.82454 26.3854 9.81089C26.3691 9.79724 26.3524 9.784 26.3354 9.77116C26.3183 9.75833 26.301 9.74591 26.2834 9.73392C26.2658 9.72192 26.248 9.71037 26.2298 9.69925C26.2116 9.68813 26.1932 9.67746 26.1745 9.66724C26.1558 9.65702 26.1368 9.64726 26.1177 9.63797C26.0985 9.62867 26.0791 9.61984 26.0595 9.61149C26.0399 9.60315 26.0201 9.59528 26.0002 9.58789C25.9802 9.58051 25.96 9.57361 25.9397 9.5672C25.9194 9.5608 25.899 9.5549 25.8784 9.54949C25.8578 9.54409 25.837 9.53919 25.8161 9.53479C25.7953 9.5304 25.7744 9.52652 25.7533 9.52315C25.7323 9.51978 25.7112 9.51692 25.69 9.51458C25.6688 9.51223 25.6476 9.5104 25.6263 9.50909C25.6051 9.50778 25.5838 9.507 25.5625 9.50673C25.5412 9.50646 25.5199 9.50671 25.4987 9.50748C25.4773 9.50825 25.4561 9.50954 25.4349 9.51135C25.4136 9.51315 25.3924 9.51547 25.3713 9.51831C25.3428 9.52214 25.3144 9.52691 25.2862 9.53261C25.258 9.53832 25.23 9.54495 25.2023 9.55249C25.1745 9.56004 25.147 9.56849 25.1197 9.57785C25.0925 9.58721 25.0656 9.59746 25.0391 9.60859C25.0125 9.61972 24.9864 9.63172 24.9606 9.64458C24.9349 9.65743 24.9096 9.67112 24.8847 9.68565C24.8598 9.70017 24.8355 9.71549 24.8117 9.73162C24.7878 9.74774 24.7645 9.76463 24.7418 9.7823C24.7191 9.79996 24.697 9.81835 24.6755 9.83747C24.6539 9.85659 24.6331 9.8764 24.6129 9.89689C24.5927 9.91739 24.5732 9.93852 24.5543 9.96031C24.5355 9.98209 24.5174 10.0045 24.5001 10.0274C24.4828 10.0504 24.4662 10.0739 24.4504 10.098C24.4346 10.1221 24.4196 10.1466 24.4055 10.1717C24.3913 10.1967 24.3779 10.2222 24.3654 10.2481C24.3529 10.2741 24.3413 10.3004 24.3305 10.3271C24.3198 10.3538 24.3099 10.3808 24.301 10.4082C24.292 10.4355 24.2839 10.4631 24.2767 10.491C24.2696 10.5189 24.2633 10.547 24.2581 10.5752C24.2528 10.6035 24.2484 10.632 24.2449 10.6605C24.2415 10.6891 24.239 10.7178 24.2374 10.7465C24.2359 10.7753 24.2353 10.804 24.2357 10.8328C24.236 10.8616 24.2373 10.8903 24.2395 10.919C24.2418 10.9477 24.245 10.9763 24.2491 11.0048C24.2532 11.0333 24.2583 11.0616 24.2642 11.0898C24.2703 11.1179 24.2772 11.1458 24.285 11.1735C24.2928 11.2012 24.3016 11.2286 24.3112 11.2558C24.3209 11.2829 24.3314 11.3097 24.3428 11.3361C24.3542 11.3625 24.3664 11.3885 24.3795 11.4142C24.3927 11.4398 24.4067 11.4649 24.4215 11.4896C24.4363 11.5143 24.4518 11.5385 24.4681 11.5622C24.4846 11.5859 24.5017 11.609 24.5196 11.6315C24.5374 11.6541 24.5561 11.676 24.5754 11.6973C24.5947 11.7186 24.6148 11.7393 24.6354 11.7593C24.6562 11.7793 24.6775 11.7986 24.6995 11.8172C24.7215 11.8358 24.744 11.8536 24.7672 11.8707C24.7904 11.8878 24.814 11.9042 24.8382 11.9197C24.8624 11.9353 24.8872 11.95 24.9124 11.9639C24.9376 11.9778 24.9632 11.9909 24.9892 12.0031C25.0153 12.0153 25.0418 12.0267 25.0685 12.0372C25.0953 12.0477 25.1224 12.0573 25.1499 12.0659C25.1773 12.0747 25.205 12.0824 25.2329 12.0893C25.2609 12.0962 25.2891 12.1021 25.3175 12.1072C25.3458 12.1122 25.3743 12.1162 25.4029 12.1194C25.4315 12.1225 25.4602 12.1247 25.4889 12.126C25.5177 12.1272 25.5465 12.1275 25.5752 12.1269C25.604 12.1262 25.6327 12.1247 25.6614 12.1221C25.69 12.1196 25.7186 12.1161 25.747 12.1117Z" fill="#202531"/>
<path d="M27.9219 8.60681C28.1295 8.55101 28.4729 8.56746 28.6882 8.59562C28.8479 8.6165 29.0141 8.66012 29.1149 8.79481C29.2895 9.02797 29.9876 11.0482 29.9505 11.2951C29.9673 11.2809 29.9826 11.2652 29.9962 11.2479C30.0568 11.1719 30.8798 8.66914 30.8687 8.58557L31.7806 8.59178C31.7987 8.6087 31.8168 8.62726 31.83 8.64846C31.9493 8.84232 32.6002 10.8488 32.674 11.1621C32.6846 11.2071 32.6822 11.2459 32.6711 11.2907C33.021 10.9035 33.2134 9.1916 33.6378 8.76535C33.8932 8.50888 34.4167 8.58642 34.7534 8.58383C34.7565 8.59624 34.7585 8.60657 34.759 8.61939C34.7634 8.77405 34.4041 9.82538 34.305 9.93155C34.3124 9.95501 34.3128 9.97712 34.3106 10.0014C34.2929 10.2031 33.4612 12.6357 33.3312 12.9498C33.3122 12.9956 33.287 13.0264 33.2489 13.0579C32.8958 13.045 32.548 13.0439 32.1946 13.0493C32.1965 13.0376 32.1975 13.026 32.1976 13.0142C32.199 12.8889 31.5098 10.8275 31.4026 10.5678C31.3796 10.5122 31.3419 10.4646 31.2993 10.4227C31.3069 10.4521 31.3131 10.4824 31.3138 10.5129C31.3181 10.6963 30.5567 12.9499 30.4558 13.0516C30.0977 13.038 29.7397 13.0407 29.3818 13.0598C29.4071 12.8948 28.0647 8.92575 27.9219 8.60681Z" fill="#202531"/>
<path d="M9.52398 10.1101C9.55697 10.11 9.58985 10.1108 9.62256 10.1156C9.84484 10.1482 10.0417 10.3779 10.1664 10.5481C10.6568 11.2177 10.9071 12.0047 10.7786 12.8359C10.6589 13.6106 10.2328 14.3402 9.59828 14.8043C9.55787 14.8338 9.51674 14.8624 9.47491 14.89C9.43306 14.9175 9.39056 14.944 9.3474 14.9695C9.30425 14.9949 9.26049 15.0193 9.21611 15.0425C9.17175 15.0657 9.12683 15.0879 9.08136 15.1088C9.03589 15.1299 8.98992 15.1498 8.94346 15.1685C8.897 15.1872 8.8501 15.2047 8.80276 15.2211C8.75543 15.2376 8.70772 15.2527 8.65962 15.2667C8.61154 15.2808 8.56312 15.2936 8.51439 15.3052C8.46566 15.3168 8.41667 15.3272 8.36743 15.3363C8.31818 15.3455 8.26873 15.3535 8.21909 15.3602C8.16945 15.3669 8.11968 15.3723 8.06976 15.3765C8.01985 15.3808 7.96986 15.3838 7.91979 15.3855C7.86973 15.3872 7.81966 15.3877 7.76957 15.387C7.71949 15.3863 7.66945 15.3842 7.61946 15.3809C7.56947 15.3777 7.5196 15.3732 7.46983 15.3675C7.42007 15.3617 7.37048 15.3548 7.32106 15.3466C6.43328 15.2068 5.78653 14.7251 5.26916 14.0142C5.16148 14.2277 4.93936 14.4014 4.76693 14.5633C4.93723 14.7822 5.1265 14.9833 5.33474 15.1665C6.62323 16.3015 8.46397 16.4215 9.88997 15.4643C10.1564 15.2856 10.7639 14.5648 11.0116 14.5551C11.1282 14.5506 11.2599 14.6338 11.3419 14.7106C11.407 14.7716 11.4477 14.8512 11.449 14.9412C11.4532 15.2198 11.1156 15.4987 10.9365 15.6796C10.6097 16.0482 10.0693 16.3661 9.61832 16.5572C8.51931 17.0229 7.19624 17.0379 6.09 16.5875C5.18197 16.2179 4.19002 15.4317 3.80078 14.5098C3.84628 14.3973 3.89816 14.299 3.97218 14.2026C4.16088 13.9565 4.94936 13.1419 5.189 13.0079C5.2922 12.9502 5.45538 12.9093 5.56158 12.9814C5.67792 13.0603 5.7638 13.2071 5.83729 13.323C6.20066 13.8965 6.49914 14.3001 7.19882 14.4983C7.26725 14.5175 7.33645 14.5333 7.40643 14.5457C7.4764 14.5581 7.54682 14.567 7.61768 14.5724C7.68854 14.5779 7.75949 14.5798 7.83054 14.5783C7.90159 14.5768 7.9724 14.5718 8.04295 14.5633C8.1135 14.5547 8.18347 14.5428 8.25285 14.5274C8.32223 14.512 8.39068 14.4932 8.4582 14.471C8.52573 14.4489 8.592 14.4235 8.65702 14.3948C8.72204 14.3661 8.7855 14.3343 8.84739 14.2993C9.35294 14.0122 9.75711 13.5017 9.90779 12.9397C10.05 12.4093 9.9902 11.7441 9.66695 11.2857C9.53535 11.0991 9.35558 10.929 9.24393 10.7313C9.19271 10.6406 9.16685 10.5427 9.19753 10.4402C9.24554 10.2799 9.38429 10.184 9.52398 10.1101Z" fill="url(#paint0_linear_511_11442)"/>
<path d="M19.0097 8.58887L22.9224 8.59072C22.9353 8.6112 22.9467 8.63184 22.955 8.65473C23.0031 8.78801 22.9983 9.2241 22.9347 9.35417C22.9348 9.35712 22.9353 9.36006 22.9351 9.36299C22.9256 9.50526 20.8023 11.7257 20.4565 12.0863C20.8527 12.0489 22.5393 11.9691 22.7967 12.1606C22.8931 12.2322 22.9407 12.3622 22.9563 12.4774C22.9792 12.649 23.0159 12.8793 22.9072 13.0217C22.774 13.0778 22.4016 13.032 22.2464 13.0313L20.2295 13.0281C19.8329 13.0279 19.4035 12.9968 19.0125 13.0605C19.0106 12.7915 19.0076 12.5238 19.0277 12.2553C19.2882 11.8922 19.6157 11.5609 19.9122 11.2266L21.3968 9.55092C21.3424 9.55714 21.2878 9.56212 21.233 9.56586C20.8664 9.58933 19.3677 9.65388 19.1409 9.44095C18.9615 9.27233 19.0099 8.81067 19.0097 8.58887Z" fill="#202531"/>
<path d="M7.52678 7.88766C7.62963 7.87865 7.73537 7.88083 7.83864 7.88089C9.07965 7.88175 10.1999 8.38566 11.0706 9.25976C11.6314 9.82276 12.0025 10.5078 12.214 11.2708C12.2584 11.4308 12.3183 11.6076 12.3165 11.7746C12.3147 11.9475 12.2473 12.1175 12.1209 12.237C12.0604 12.2941 11.9841 12.3353 11.8991 12.3317C11.8101 12.3279 11.6652 12.2607 11.617 12.182C11.5069 12.0025 11.4673 11.7339 11.4134 11.5311C11.2417 10.8864 10.95 10.3363 10.4966 9.84486C10.3432 9.68588 10.1723 9.53724 9.99605 9.40416C8.72384 8.44373 6.98548 8.47289 5.68184 9.35158C5.47068 9.49391 5.15016 9.90036 4.90878 9.92875C4.79855 9.94171 4.69458 9.90073 4.60911 9.83247C4.52214 9.76299 4.45154 9.65358 4.44239 9.54082C4.4308 9.39793 4.52333 9.29781 4.61014 9.1965C5.33192 8.35421 6.45184 7.9699 7.52678 7.88766Z" fill="url(#paint1_linear_511_11442)"/>
<path d="M7.68056 10.9469C7.70443 10.945 7.72835 10.9436 7.7523 10.9428C7.77625 10.942 7.8002 10.9418 7.82416 10.9422C7.84812 10.9426 7.87205 10.9436 7.89596 10.9452C7.91988 10.9467 7.94373 10.9489 7.96753 10.9517C7.99133 10.9544 8.01506 10.9578 8.03869 10.9617C8.06233 10.9656 8.08586 10.9701 8.10928 10.9752C8.13269 10.9803 8.15597 10.986 8.1791 10.9922C8.20224 10.9984 8.22521 11.0052 8.248 11.0126C8.27081 11.02 8.29341 11.0279 8.31582 11.0364C8.33824 11.0448 8.36042 11.0539 8.38238 11.0635C8.40435 11.073 8.42606 11.0832 8.44753 11.0938C8.469 11.1045 8.49018 11.1156 8.51109 11.1273C8.532 11.139 8.55261 11.1512 8.57293 11.1639C8.59324 11.1767 8.61322 11.1899 8.63289 11.2036C8.65254 11.2173 8.67185 11.2314 8.69081 11.2461C8.70976 11.2607 8.72835 11.2759 8.74656 11.2914C8.76478 11.307 8.7826 11.323 8.80003 11.3395C8.81745 11.3559 8.83445 11.3728 8.85104 11.3901C8.86763 11.4074 8.88378 11.425 8.8995 11.4431C8.91522 11.4612 8.93048 11.4797 8.94528 11.4985C8.96009 11.5174 8.97443 11.5366 8.98829 11.5561C9.00214 11.5757 9.01551 11.5955 9.02838 11.6157C9.04127 11.6359 9.05364 11.6565 9.0655 11.6773C9.07736 11.6981 9.08871 11.7192 9.09953 11.7406C9.11036 11.7619 9.12064 11.7836 9.1304 11.8055C9.14015 11.8274 9.14936 11.8495 9.15803 11.8718C9.16669 11.8941 9.1748 11.9167 9.18236 11.9394C9.18991 11.9622 9.19689 11.9851 9.20331 12.0082C9.20974 12.0313 9.21558 12.0545 9.22086 12.0779C9.22613 12.1012 9.23083 12.1247 9.23494 12.1483C9.23906 12.1719 9.24259 12.1956 9.24553 12.2194C9.24848 12.2432 9.25084 12.267 9.25261 12.2909C9.25437 12.3148 9.25555 12.3387 9.25614 12.3627C9.25673 12.3866 9.25672 12.4106 9.25613 12.4346C9.25554 12.4585 9.25435 12.4824 9.25257 12.5063C9.2508 12.5302 9.24844 12.5541 9.24549 12.5778C9.24254 12.6016 9.239 12.6253 9.23487 12.6489C9.23075 12.6725 9.22605 12.696 9.22077 12.7194C9.21549 12.7428 9.20964 12.766 9.20322 12.7891C9.19679 12.8122 9.18979 12.8351 9.18224 12.8578C9.17468 12.8805 9.16656 12.9031 9.1579 12.9254C9.14922 12.9478 9.14001 12.9699 9.13024 12.9918C9.12048 13.0136 9.11019 13.0353 9.09936 13.0566C9.08853 13.078 9.07718 13.0991 9.06531 13.1199C9.05344 13.1407 9.04106 13.1612 9.02818 13.1814C9.01529 13.2017 9.00192 13.2215 8.98805 13.2411C8.97419 13.2606 8.95986 13.2798 8.94505 13.2986C8.93024 13.3175 8.91497 13.3359 8.89925 13.354C8.88353 13.3721 8.86737 13.3898 8.85077 13.4071C8.83418 13.4244 8.81717 13.4412 8.79974 13.4577C8.78231 13.4741 8.76449 13.4901 8.74628 13.5057C8.72806 13.5212 8.70947 13.5364 8.69051 13.551C8.67154 13.5657 8.65223 13.5798 8.63257 13.5935C8.6129 13.6072 8.59292 13.6204 8.57261 13.6331C8.55229 13.6458 8.53167 13.658 8.51076 13.6697C8.48984 13.6814 8.46865 13.6926 8.44719 13.7032C8.42572 13.7139 8.404 13.724 8.38203 13.7336C8.36006 13.7431 8.33788 13.7522 8.31547 13.7606C8.29305 13.7691 8.27045 13.777 8.24765 13.7844C8.22485 13.7918 8.20188 13.7986 8.17874 13.8048C8.1556 13.811 8.13232 13.8167 8.1089 13.8217C8.08549 13.8268 8.06196 13.8313 8.03832 13.8353C8.01468 13.8392 7.99096 13.8425 7.96715 13.8452C7.94335 13.848 7.91949 13.8502 7.89558 13.8517C7.87193 13.8533 7.84825 13.8542 7.82454 13.8547C7.80084 13.8551 7.77713 13.8549 7.75344 13.8541C7.72974 13.8533 7.70608 13.852 7.68244 13.8501C7.65881 13.8481 7.63524 13.8456 7.61173 13.8426C7.58822 13.8395 7.5648 13.8359 7.54148 13.8317C7.51814 13.8275 7.49493 13.8227 7.47183 13.8174C7.44873 13.812 7.42577 13.8061 7.40296 13.7996C7.38015 13.7932 7.35751 13.7861 7.33504 13.7786C7.31258 13.771 7.29031 13.7629 7.26824 13.7542C7.24617 13.7456 7.22432 13.7364 7.2027 13.7266C7.18108 13.7169 7.15971 13.7067 7.13859 13.6959C7.11747 13.6851 7.09662 13.6739 7.07604 13.6621C7.05547 13.6503 7.0352 13.638 7.01523 13.6252C6.99527 13.6124 6.97562 13.5992 6.9563 13.5854C6.93697 13.5717 6.91799 13.5575 6.89936 13.5428C6.88073 13.5282 6.86247 13.5131 6.84458 13.4975C6.82669 13.482 6.80919 13.466 6.79208 13.4496C6.77496 13.4332 6.75826 13.4163 6.74197 13.3991C6.72569 13.3819 6.70983 13.3643 6.69439 13.3463C6.67897 13.3283 6.66399 13.3099 6.64945 13.2912C6.63491 13.2724 6.62084 13.2534 6.60724 13.2339C6.59365 13.2145 6.58053 13.1948 6.56789 13.1747C6.55526 13.1547 6.54311 13.1343 6.53147 13.1137C6.51982 13.093 6.50869 13.0721 6.49807 13.0509C6.48745 13.0297 6.47736 13.0082 6.46778 12.9866C6.45821 12.9649 6.44917 12.943 6.44067 12.9208C6.43216 12.8987 6.4242 12.8764 6.41679 12.8538C6.40937 12.8313 6.40251 12.8086 6.39621 12.7858C6.3899 12.7629 6.38416 12.7399 6.37897 12.7168C6.37379 12.6937 6.36917 12.6704 6.36512 12.6471C6.36108 12.6237 6.35761 12.6002 6.35471 12.5767C6.3518 12.5532 6.34947 12.5296 6.34772 12.506C6.34597 12.4823 6.3448 12.4586 6.3442 12.4349C6.34361 12.4112 6.3436 12.3875 6.34416 12.3638C6.34472 12.3401 6.34587 12.3165 6.34758 12.2928C6.3493 12.2692 6.3516 12.2456 6.35448 12.222C6.35734 12.1985 6.36079 12.1751 6.3648 12.1517C6.36882 12.1283 6.3734 12.1051 6.37855 12.0819C6.38371 12.0588 6.38943 12.0358 6.3957 12.0129C6.40198 11.9901 6.40881 11.9674 6.41619 11.9448C6.42358 11.9223 6.43151 11.9 6.43998 11.8778C6.44846 11.8557 6.45747 11.8338 6.46702 11.8121C6.47656 11.7904 6.48662 11.7689 6.49722 11.7477C6.50781 11.7265 6.51892 11.7055 6.53053 11.6849C6.54215 11.6642 6.55426 11.6438 6.56688 11.6238C6.57949 11.6037 6.59258 11.5839 6.60616 11.5645C6.61973 11.545 6.63377 11.5259 6.64828 11.5072C6.66279 11.4884 6.67775 11.4701 6.69316 11.452C6.70856 11.434 6.7244 11.4164 6.74067 11.3991C6.75694 11.3819 6.77361 11.365 6.7907 11.3486C6.80779 11.3322 6.82527 11.3162 6.84315 11.3006C6.86102 11.285 6.87926 11.2699 6.89787 11.2552C6.91648 11.2405 6.93544 11.2263 6.95474 11.2125C6.97405 11.1988 6.99368 11.1855 7.01363 11.1727C7.03359 11.1599 7.05385 11.1476 7.0744 11.1357C7.09495 11.1239 7.11579 11.1126 7.1369 11.1018C7.158 11.091 7.17936 11.0807 7.20098 11.071C7.22258 11.0612 7.24441 11.052 7.26648 11.0433C7.28854 11.0346 7.31079 11.0265 7.33325 11.0189C7.3557 11.0113 7.37834 11.0042 7.40114 10.9978C7.42394 10.9913 7.44688 10.9853 7.46997 10.9799C7.49307 10.9746 7.51627 10.9698 7.5396 10.9655C7.56293 10.9613 7.58635 10.9576 7.60986 10.9545C7.63336 10.9514 7.65693 10.9489 7.68056 10.9469ZM7.41781 12.9139C7.43665 12.928 7.45619 12.941 7.47645 12.9529C7.49671 12.9648 7.51756 12.9755 7.53901 12.9852C7.56045 12.9948 7.58236 13.0032 7.60473 13.0104C7.6271 13.0176 7.64979 13.0235 7.67281 13.0282C7.69583 13.0329 7.71905 13.0364 7.74245 13.0385C7.76584 13.0407 7.78929 13.0415 7.81278 13.0411C7.83628 13.0407 7.85968 13.039 7.88298 13.036C7.90629 13.033 7.92936 13.0287 7.9522 13.0232C7.96925 13.0191 7.98609 13.0143 8.00273 13.0087C8.01938 13.0032 8.03577 12.9971 8.05191 12.9902C8.06805 12.9833 8.08388 12.9758 8.0994 12.9677C8.11492 12.9595 8.13009 12.9507 8.14489 12.9413C8.1597 12.9319 8.17409 12.922 8.18808 12.9114C8.20206 12.9008 8.21558 12.8897 8.22865 12.878C8.24172 12.8663 8.25429 12.8541 8.26635 12.8414C8.27843 12.8286 8.28995 12.8154 8.30094 12.8018C8.31193 12.7881 8.32234 12.774 8.33216 12.7595C8.34199 12.745 8.35121 12.7301 8.35982 12.7148C8.36842 12.6995 8.37639 12.6839 8.38372 12.668C8.39105 12.6521 8.39772 12.6359 8.40371 12.6194C8.40971 12.6029 8.41502 12.5862 8.41965 12.5693C8.42428 12.5524 8.42821 12.5353 8.43143 12.5181C8.43466 12.5008 8.43718 12.4835 8.43898 12.4661C8.44079 12.4486 8.44188 12.4311 8.44224 12.4136C8.44255 12.3991 8.44237 12.3847 8.44169 12.3702C8.44102 12.3557 8.43985 12.3413 8.43821 12.3269C8.43655 12.3126 8.43441 12.2982 8.43179 12.284C8.42918 12.2698 8.42607 12.2556 8.42249 12.2416C8.41892 12.2276 8.41487 12.2137 8.41035 12.1999C8.40583 12.1862 8.40085 12.1726 8.39541 12.1592C8.38997 12.1458 8.38408 12.1325 8.37775 12.1195C8.37141 12.1065 8.36465 12.0937 8.35744 12.0812C8.35024 12.0686 8.34262 12.0563 8.33459 12.0443C8.32656 12.0322 8.31812 12.0205 8.30929 12.009C8.30046 11.9975 8.29126 11.9863 8.28167 11.9755C8.27208 11.9646 8.26214 11.9541 8.25183 11.944C8.24153 11.9338 8.2309 11.924 8.21994 11.9145C8.20898 11.9051 8.19771 11.896 8.18613 11.8873C8.17456 11.8786 8.16269 11.8703 8.15055 11.8624C8.13841 11.8545 8.12602 11.8471 8.11337 11.84C8.07997 11.8214 8.04519 11.8059 8.00902 11.7935C7.97286 11.7811 7.93588 11.772 7.89808 11.7663C7.86028 11.7605 7.82228 11.7581 7.78406 11.7592C7.74584 11.7602 7.70801 11.7646 7.67058 11.7724C7.65557 11.7755 7.64068 11.7792 7.62594 11.7834C7.61118 11.7875 7.59659 11.7923 7.58218 11.7975C7.56776 11.8027 7.55356 11.8085 7.53956 11.8147C7.52556 11.821 7.5118 11.8278 7.49828 11.835C7.48476 11.8423 7.47153 11.85 7.45856 11.8582C7.4456 11.8664 7.43295 11.875 7.42061 11.8841C7.40826 11.8932 7.39626 11.9028 7.38461 11.9127C7.37295 11.9227 7.36166 11.9331 7.35075 11.9438C7.33984 11.9546 7.32932 11.9658 7.31921 11.9773C7.30909 11.9888 7.29941 12.0007 7.29014 12.0129C7.28089 12.0252 7.27208 12.0377 7.26372 12.0506C7.25535 12.0634 7.24746 12.0766 7.24005 12.09C7.23263 12.1034 7.22571 12.1171 7.21927 12.131C7.21283 12.1449 7.2069 12.159 7.20148 12.1734C7.19606 12.1877 7.19116 12.2023 7.18677 12.217C7.1824 12.2317 7.17855 12.2465 7.17523 12.2615C7.17191 12.2764 7.16914 12.2915 7.16691 12.3067C7.16468 12.3219 7.16299 12.3371 7.16185 12.3524C7.16071 12.3677 7.16011 12.383 7.16007 12.3983C7.16003 12.4137 7.16054 12.429 7.1616 12.4443C7.16266 12.4596 7.16426 12.4748 7.16642 12.49C7.16856 12.5052 7.17126 12.5203 7.17449 12.5353C7.17773 12.5503 7.1815 12.5651 7.18579 12.5798C7.1901 12.5946 7.19492 12.6091 7.20026 12.6235C7.20561 12.6379 7.21146 12.652 7.21781 12.666C7.22418 12.6799 7.23103 12.6937 7.23838 12.7071C7.24572 12.7206 7.25354 12.7338 7.26183 12.7467C7.27012 12.7596 7.27886 12.7722 7.28806 12.7844C7.29725 12.7967 7.30688 12.8086 7.31693 12.8202C7.32697 12.8318 7.33743 12.843 7.34829 12.8539C7.35914 12.8647 7.37037 12.8751 7.38197 12.8851C7.39357 12.8952 7.40552 12.9048 7.41781 12.9139Z" fill="#06DC92"/>
<path d="M7.48209 9.42951C7.49976 9.42689 7.51637 9.42543 7.53426 9.42496C7.90992 9.4151 8.41522 9.38039 8.7061 9.66861C8.75707 9.71911 8.79202 9.78135 8.79176 9.85455C8.7913 9.99227 8.68211 10.1086 8.59153 10.2011C8.34632 10.3072 8.02316 10.2386 7.76231 10.2389C7.48909 10.2393 7.14738 10.2886 6.8997 10.4085C6.26443 10.7161 5.77446 11.3163 5.28306 11.809L4.04996 13.0445C3.89991 13.1965 3.72212 13.4212 3.53023 13.5123C3.45996 13.5457 3.41812 13.5391 3.34912 13.5139C3.28071 13.4416 3.25868 13.3653 3.2438 13.2692C3.20988 13.0501 3.18874 12.8171 3.32919 12.6281C3.58156 12.2886 5.77231 10.1141 6.10279 9.90641C6.53207 9.63659 6.98438 9.50214 7.48209 9.42951Z" fill="#06DC92"/>
<path d="M21.0282 14.5258C21.3141 14.5322 21.6948 14.498 21.9341 14.6861C22.0121 14.7474 22.0797 14.8398 22.0905 14.941C22.0988 15.018 22.0585 15.0987 22.0086 15.1548C21.8507 15.3327 21.6316 15.3548 21.4089 15.3659C21.3716 15.3582 21.3351 15.36 21.2973 15.3607C21.1984 15.5069 21.3219 15.7412 21.2265 15.8967C21.1599 15.9254 21.1382 15.9132 21.0686 15.8993C20.9738 15.7023 21.0046 14.7779 21.0282 14.5258ZM21.2692 15.1598C21.4227 15.1432 21.5948 15.1391 21.7416 15.0914C21.7722 15.021 21.7903 14.9686 21.7887 14.8912C21.7558 14.8322 21.7327 14.8039 21.6643 14.7831C21.536 14.7439 21.3938 14.7696 21.2643 14.7328L21.2692 15.1598Z" fill="#06DC92" fill-opacity="0.984314"/>
<path d="M22.4558 14.9511C22.6586 14.9244 22.8356 15.0184 23.0206 14.9312C23.0403 14.9219 23.0716 14.9358 23.093 14.9409C23.1042 14.9623 23.1133 14.9843 23.1185 15.0079C23.1534 15.1681 23.1859 15.7772 23.1031 15.9067C23.0118 15.8942 22.9206 15.8807 22.8296 15.8663C22.7561 15.8848 22.6757 15.9009 22.5998 15.8934C22.4708 15.8808 22.3438 15.823 22.2634 15.7192C22.1811 15.613 22.1591 15.4715 22.1784 15.341C22.206 15.1547 22.3123 15.0548 22.4558 14.9511ZM22.7121 15.6832C22.7207 15.6816 22.7292 15.6796 22.7375 15.6773C22.7459 15.6748 22.7542 15.672 22.7623 15.6688C22.7704 15.6656 22.7783 15.662 22.7861 15.6581C22.7939 15.654 22.8014 15.6496 22.8087 15.6449C22.8161 15.6402 22.8232 15.6352 22.83 15.6298C22.8369 15.6244 22.8435 15.6186 22.8498 15.6126C22.8561 15.6066 22.8621 15.6002 22.8677 15.5935C22.8734 15.5869 22.8787 15.58 22.8837 15.5729C22.8888 15.5657 22.8934 15.5584 22.8978 15.5508C22.902 15.5431 22.9059 15.5354 22.9095 15.5274C22.913 15.5194 22.9161 15.5113 22.9188 15.503C22.9216 15.4947 22.9239 15.4863 22.9259 15.4777C22.9278 15.4692 22.9293 15.4606 22.9304 15.452C22.9315 15.4434 22.9321 15.4346 22.9324 15.4259C22.9326 15.4172 22.9324 15.4085 22.9319 15.3997C22.9313 15.3911 22.9302 15.3824 22.9288 15.3738C22.9273 15.3652 22.9254 15.3567 22.9231 15.3482C22.9209 15.3398 22.9182 15.3315 22.9152 15.3234C22.9121 15.3152 22.9086 15.3072 22.9047 15.2994C22.9009 15.2916 22.8967 15.2839 22.892 15.2765C22.8875 15.2691 22.8825 15.262 22.8772 15.255C22.8719 15.248 22.8663 15.2414 22.8604 15.235C22.8544 15.2286 22.8481 15.2225 22.8416 15.2168C22.835 15.211 22.8282 15.2055 22.8212 15.2005C22.8141 15.1953 22.8068 15.1905 22.7993 15.1861C22.7918 15.1817 22.784 15.1776 22.7762 15.174C22.7682 15.1704 22.7601 15.1671 22.7519 15.1642C22.7436 15.1613 22.7353 15.1588 22.7267 15.1568C22.7183 15.1547 22.7097 15.1531 22.7011 15.1519C22.6924 15.1507 22.6838 15.1498 22.6751 15.1495C22.6663 15.1491 22.6576 15.1491 22.6489 15.1496C22.6402 15.15 22.6315 15.1509 22.6229 15.1522C22.6111 15.154 22.5995 15.1565 22.5881 15.1598C22.5767 15.1632 22.5656 15.1672 22.5547 15.172C22.5438 15.1768 22.5333 15.1822 22.5231 15.1884C22.513 15.1946 22.5033 15.2014 22.494 15.209C22.4847 15.2164 22.476 15.2244 22.4679 15.2331C22.4597 15.2417 22.4521 15.2508 22.4451 15.2605C22.4381 15.27 22.4318 15.2801 22.4261 15.2906C22.4205 15.3011 22.4156 15.3118 22.4114 15.3229C22.4072 15.334 22.4037 15.3454 22.401 15.3569C22.3983 15.3685 22.3963 15.3803 22.3951 15.3921C22.394 15.4039 22.3936 15.4157 22.394 15.4277C22.3944 15.4395 22.3956 15.4513 22.3976 15.4631C22.3996 15.4748 22.4023 15.4863 22.4057 15.4977C22.4093 15.5091 22.4135 15.5201 22.4184 15.5309C22.4234 15.5418 22.4291 15.5522 22.4354 15.5622C22.4418 15.5722 22.4488 15.5818 22.4564 15.591C22.464 15.6001 22.4722 15.6087 22.481 15.6167C22.4897 15.6248 22.499 15.6322 22.5087 15.639C22.5184 15.6458 22.5285 15.652 22.5391 15.6575C22.5497 15.6629 22.5605 15.6677 22.5717 15.6717C22.5829 15.6758 22.5943 15.6791 22.6059 15.6816C22.6175 15.6841 22.6293 15.6858 22.6411 15.6867C22.6529 15.6878 22.6648 15.688 22.6767 15.6874C22.6886 15.6867 22.7004 15.6853 22.7121 15.6832Z" fill="#06DC92" fill-opacity="0.988235"/>
<path d="M14.5072 14.5274C14.7036 14.5155 14.9566 14.5178 15.1151 14.6495C15.1424 14.7197 15.1399 14.7329 15.1169 14.8047C14.9464 14.8634 14.7136 14.708 14.5138 14.7695C14.4582 14.7866 14.4027 14.8222 14.377 14.8759C14.359 14.9137 14.3709 14.9237 14.3847 14.9612C14.5065 15.0874 14.8066 15.1067 14.9712 15.1821C15.0839 15.2337 15.1757 15.2946 15.2206 15.415C15.2215 15.4694 15.2187 15.519 15.1916 15.5676C15.0839 15.7602 14.9426 15.8411 14.738 15.8947C14.6722 15.8992 14.6068 15.9008 14.541 15.8956C14.4066 15.885 14.2411 15.8476 14.1524 15.737C14.1133 15.6882 14.1089 15.667 14.1163 15.6061C14.3044 15.5004 14.5623 15.72 14.8033 15.6323C14.8754 15.6061 14.9276 15.5765 14.9607 15.5072C14.9594 15.5043 14.9583 15.5014 14.9569 15.4985C14.898 15.3835 14.5719 15.3195 14.4492 15.277C14.3291 15.2355 14.1996 15.1631 14.1443 15.0428C14.1114 14.9713 14.1167 14.8937 14.1467 14.8221C14.2138 14.6615 14.3547 14.5872 14.5072 14.5274Z" fill="#06DC92" fill-opacity="0.988235"/>
<path d="M24.8438 14.9451C24.9396 14.9357 25.006 14.9288 25.0953 14.9727C25.3789 15.1117 25.8381 14.7239 25.9425 15.1571C25.9452 15.1683 25.9447 15.1687 25.9445 15.1785C26.0104 15.3313 25.9953 15.6818 25.9622 15.8502C25.9196 15.8903 25.8961 15.9094 25.8361 15.9176C25.7851 15.8777 25.7773 15.8493 25.7701 15.7843C25.7482 15.5876 25.8037 15.3569 25.6761 15.1895C25.6097 15.1447 25.5514 15.1265 25.4708 15.1442C25.4234 15.1545 25.3948 15.1671 25.3693 15.2105C25.2635 15.3909 25.4833 15.8259 25.2232 15.9046C25.2045 15.8995 25.1515 15.8908 25.1431 15.8755C25.0285 15.6655 25.2116 15.369 25.0279 15.1625L24.9032 15.136L24.8529 15.0927C24.8605 15.0433 24.8582 15.0086 24.8473 14.9603L24.8438 14.9451Z" fill="#06DC92"/>
<path d="M27.3496 14.9516C27.4131 14.9413 27.4702 14.9691 27.5332 14.9694C27.6316 14.9699 27.7288 14.9446 27.829 14.9464C27.9205 14.948 28.0244 14.9684 28.0889 15.0388C28.2168 15.1789 28.2103 15.4693 28.2021 15.6466C28.1972 15.7523 28.1837 15.8483 28.104 15.9215L28.0583 15.9116C27.8947 15.7665 28.0267 15.5433 27.9296 15.3654C27.9529 15.3086 27.9421 15.2729 27.9277 15.2157C27.8997 15.1892 27.8792 15.162 27.841 15.1522C27.7818 15.1369 27.722 15.1365 27.6687 15.1708C27.4935 15.2836 27.5868 15.6058 27.5432 15.7926C27.5277 15.8596 27.5134 15.8811 27.4555 15.9158C27.4324 15.907 27.3808 15.8945 27.3693 15.8745C27.2751 15.711 27.2978 15.1292 27.3496 14.9516Z" fill="#06DC92" fill-opacity="0.980392"/>
<path d="M24.1745 14.8962L24.2467 14.9073L24.2808 14.9537C24.2763 15.093 23.7519 16.038 23.6454 16.1684C23.5921 16.2336 23.5185 16.2887 23.4325 16.2952C23.4093 16.2971 23.3917 16.2732 23.3742 16.2586C23.3759 16.081 23.5854 15.9613 23.6006 15.7904C23.601 15.7866 23.601 15.7828 23.6012 15.779C23.6154 15.7647 23.663 15.7267 23.6691 15.7107C23.7288 15.5525 23.3162 15.1676 23.3243 14.9424L23.359 14.9142C23.4179 14.9175 23.4553 14.9367 23.5003 14.9749C23.6186 15.0753 23.7724 15.2961 23.7851 15.4512C23.948 15.3007 24.0137 15.0613 24.1745 14.8962Z" fill="#06DC92" fill-opacity="0.988235"/>
<path d="M19.4112 15.6731C19.3729 15.5824 19.3221 15.4826 19.3394 15.3822C19.3634 15.2428 19.4163 15.068 19.5395 14.9861C19.6304 14.9257 19.7318 14.9167 19.837 14.9378C19.992 14.9689 20.1382 15.0696 20.2219 15.204C20.2678 15.2776 20.2693 15.3325 20.25 15.4128C20.0937 15.6024 19.7496 15.4134 19.5535 15.5326L19.5397 15.6272C19.4971 15.6496 19.4573 15.6617 19.4112 15.6731Z" fill="#06DC92"/>
<path d="M18.3411 15.3358C18.3408 15.4971 18.3249 15.6843 18.2017 15.8037C18.1188 15.8839 17.9662 15.9132 17.8537 15.909C17.7587 15.9056 17.6771 15.8699 17.6138 15.798C17.4704 15.6351 17.4392 15.3018 17.4581 15.0953C17.4619 15.0552 17.4737 15.0202 17.4925 14.9849C17.555 14.9409 17.5722 14.9436 17.6488 14.9436C17.7715 15.1249 17.5657 15.6407 17.8552 15.6954C17.9267 15.709 17.9882 15.6871 18.0446 15.6452C18.076 15.5872 18.1057 15.5296 18.1316 15.4689C18.1127 15.3055 18.0828 15.1396 18.1796 14.9961C18.2082 14.9536 18.2128 14.9562 18.2629 14.9458C18.2728 14.954 18.2823 14.9623 18.2908 14.9719C18.3708 15.0627 18.3455 15.2238 18.3411 15.3358Z" fill="#06DC92"/>
<path d="M15.6154 14.9586C15.693 14.9428 15.7879 14.9164 15.8661 14.9352C16.0011 14.9675 16.2199 15.1049 16.2897 15.2266C16.3242 15.2865 16.3144 15.3213 16.2983 15.384C16.1136 15.614 15.8066 15.4014 15.5858 15.5258C15.5818 15.5281 15.5777 15.5306 15.5737 15.533L15.5547 15.6347L15.4322 15.6754C15.3924 15.584 15.3613 15.4792 15.3634 15.3791C15.3671 15.1971 15.4955 15.0775 15.6154 14.9586Z" fill="#06DC92"/>
<path d="M26.7301 15.4871L26.6568 15.489C26.5766 15.4915 26.4842 15.4799 26.4282 15.5392L26.4545 15.6201C26.6438 15.7763 26.8339 15.5989 27.025 15.6808L27.0348 15.7365C27.0203 15.7692 27.0123 15.7988 26.9838 15.8219C26.8882 15.8996 26.7467 15.9061 26.6282 15.8922C26.5012 15.8773 26.3875 15.8376 26.3066 15.7332C26.2223 15.6243 26.1774 15.5057 26.1953 15.367C26.2127 15.2306 26.2829 15.1002 26.3929 15.0162C26.4932 14.9396 26.5871 14.9256 26.7096 14.942C26.78 15.0308 26.895 15.1154 26.9432 15.2154C26.7901 15.2659 26.6255 15.0894 26.4655 15.2104L26.4433 15.2831L26.4703 15.3158C26.5455 15.3087 26.6178 15.2986 26.692 15.3183C26.721 15.3553 26.7491 15.4103 26.74 15.4595C26.738 15.4703 26.7345 15.4767 26.7301 15.4871Z" fill="#06DC92"/>
<path d="M16.4532 15.3504C16.4966 15.1914 16.5459 15.0668 16.6978 14.9795C16.8074 14.9166 16.9331 14.9058 17.0537 14.9415C17.1395 14.967 17.2033 15.0086 17.2489 15.0856L17.2545 15.1405C17.0771 15.246 16.7455 15.0526 16.6638 15.348C16.65 15.3977 16.6486 15.4558 16.646 15.5071C16.9662 15.821 17.0561 15.5476 17.2439 15.6932C17.2573 15.7036 17.2546 15.7327 17.2563 15.7495C17.2402 15.7785 17.2222 15.8062 17.1952 15.8263C17.0992 15.8979 16.9787 15.9189 16.8621 15.899C16.6613 15.8648 16.5603 15.7332 16.4492 15.5795L16.4532 15.3504Z" fill="#06DC92"/>
<path d="M28.5699 15.7334C28.6069 15.5376 28.522 15.3505 28.449 15.1792C28.4153 15.1003 28.4196 15.0375 28.4532 14.9594C28.4972 14.8572 28.5787 14.685 28.6843 14.6425C28.777 14.6999 28.7625 14.8571 28.7883 14.9529L28.792 14.9669C28.8467 15.0311 28.894 15.1024 28.98 15.1222C28.9853 15.1234 28.9904 15.1249 28.9957 15.1262C29.0077 15.129 29.0191 15.1311 29.0312 15.1328C28.9555 15.1797 28.8194 15.167 28.7314 15.1705C28.773 15.3045 28.7884 15.5185 28.761 15.6569C28.766 15.6588 28.771 15.6608 28.776 15.6626C28.9109 15.7106 29.0645 15.5944 29.1497 15.7267C29.1375 15.7962 29.1245 15.8233 29.0649 15.8677C28.9927 15.9218 28.8673 15.9131 28.784 15.8964C28.68 15.8757 28.63 15.8149 28.5699 15.7334Z" fill="#06DC92" fill-opacity="0.988235"/>
<path d="M29.5343 15.4855C29.4251 15.4389 29.3374 15.3913 29.2832 15.2815C29.2804 15.2158 29.2754 15.1855 29.3114 15.127C29.3582 15.0514 29.466 14.9714 29.5525 14.9521C29.6751 14.9246 29.888 14.9214 29.9929 14.9957C30.0457 15.033 30.0498 15.0597 30.0603 15.1195C29.9719 15.2163 29.7208 15.144 29.5923 15.1533C29.5639 15.1553 29.5588 15.1713 29.541 15.1918C29.5643 15.2614 29.6095 15.284 29.6699 15.3201C29.7663 15.3263 29.8766 15.3304 29.9458 15.4074C29.9534 15.4159 29.9603 15.4247 29.9672 15.4339C29.9639 15.4358 29.9605 15.4377 29.9571 15.4396C29.9181 15.4613 29.8829 15.4732 29.8402 15.4846L29.7986 15.5477C29.7106 15.5355 29.6208 15.5068 29.5343 15.4855Z" fill="#06DC92"/>
<path d="M19.1972 15.1416L19.1868 15.1424C19.1178 15.1492 19.0006 15.1453 18.9455 15.1897C18.7832 15.3203 18.8399 15.7157 18.8218 15.9053L18.7283 15.9269C18.7042 15.9071 18.65 15.8737 18.6393 15.8462C18.5822 15.6996 18.5746 15.1742 18.6407 15.0256C18.6759 14.9466 18.9783 14.9685 19.1203 14.9149C19.0741 14.9738 19.0319 15.0105 19.0231 15.0869C19.0794 15.1312 19.1276 15.1352 19.1972 15.1416Z" fill="#06DC92" fill-opacity="0.984314"/>
<path d="M24.9027 15.136C24.8947 15.1393 24.8867 15.1428 24.8787 15.1463C24.5486 15.2932 24.7944 15.5995 24.6935 15.8378C24.6725 15.8874 24.6427 15.8915 24.5972 15.9099C24.5443 15.8883 24.5281 15.8819 24.5022 15.8299C24.4127 15.6498 24.4308 15.1612 24.4994 14.9771C24.5224 14.9152 24.7244 15.0021 24.8432 14.9451L24.8467 14.9603C24.8577 15.0085 24.86 15.0433 24.8524 15.0927L24.9027 15.136Z" fill="#06DC92" fill-opacity="0.984314"/>
<path d="M29.9685 15.434L30.0809 15.4856L30.0968 15.5398L30.0568 15.6032C30.0655 15.661 30.0757 15.6968 30.0383 15.7477C29.9764 15.8318 29.7951 15.9092 29.6973 15.9202C29.5979 15.9314 29.4773 15.899 29.4021 15.8313C29.3461 15.781 29.33 15.7433 29.3164 15.6726C29.3396 15.6495 29.3468 15.6319 29.3811 15.6321C29.551 15.6331 29.6413 15.7937 29.8243 15.6905L29.8336 15.6234L29.7999 15.5477L29.8415 15.4847C29.8842 15.4732 29.9194 15.4613 29.9584 15.4397C29.9618 15.4378 29.9652 15.4358 29.9685 15.434Z" fill="#06DC92" fill-opacity="0.988235"/>
<path d="M26.7077 14.9421C26.8691 14.9704 26.9842 15.0458 27.0774 15.1813C27.1175 15.2394 27.1317 15.2866 27.1246 15.3566C27.0978 15.4107 27.0717 15.4581 27.0119 15.48C26.938 15.5069 26.809 15.4893 26.7282 15.4872C26.7326 15.4768 26.736 15.4704 26.738 15.4595C26.7472 15.4104 26.719 15.3554 26.69 15.3184C26.6159 15.2987 26.5436 15.3088 26.4683 15.3159L26.4414 15.2832L26.4636 15.2105C26.6236 15.0894 26.7881 15.266 26.9413 15.2155C26.893 15.1155 26.7781 15.0309 26.7077 14.9421Z" fill="#06DC92" fill-opacity="0.988235"/>
<path d="M15.4336 15.6753L15.5561 15.6346L15.5751 15.533C15.6467 15.6233 15.7333 15.677 15.8294 15.738C15.9159 15.6994 16.0108 15.6424 16.1079 15.6576L16.1637 15.6978C16.1572 15.7625 16.1464 15.7819 16.0962 15.8243C16.0194 15.8894 15.8967 15.918 15.7983 15.906C15.647 15.8877 15.5346 15.8127 15.445 15.6917C15.441 15.6863 15.4372 15.6808 15.4336 15.6753Z" fill="#06DC92" fill-opacity="0.988235"/>
<path d="M19.4062 15.6732C19.4524 15.6617 19.4922 15.6497 19.5348 15.6273L19.5486 15.5326C19.6231 15.6171 19.7023 15.6728 19.7959 15.7338C19.8897 15.699 19.9911 15.6465 20.0917 15.675L20.1346 15.7178C20.1183 15.7843 20.0984 15.8099 20.0384 15.8474C19.9407 15.9085 19.8097 15.9189 19.7002 15.8901C19.5672 15.8551 19.4892 15.7765 19.4062 15.6732Z" fill="#06DC92" fill-opacity="0.988235"/>
<path d="M28.7891 14.9669C28.8914 14.9489 29.0136 14.9358 29.105 14.9988C29.118 15.0078 29.1289 15.0187 29.1392 15.0308C29.1308 15.0649 29.1351 15.0731 29.1038 15.0921C29.0789 15.1072 29.0553 15.1221 29.0282 15.1328C29.0162 15.1311 29.0047 15.129 28.9928 15.1262C28.9875 15.1249 28.9823 15.1235 28.977 15.1222C28.891 15.1024 28.8437 15.0311 28.7891 14.9669Z" fill="#06DC92"/>
<path d="M19.1167 14.9149C19.1881 14.9418 19.2218 14.9464 19.2692 15.0075C19.2543 15.074 19.2407 15.0921 19.1937 15.1416C19.124 15.1352 19.0758 15.1312 19.0195 15.0869C19.0284 15.0105 19.0705 14.9738 19.1167 14.9149Z" fill="#06DC92"/>
<defs>
<linearGradient id="paint0_linear_511_11442" x1="6.40518" y1="11.9806" x2="10.1737" y2="16.2587" gradientUnits="userSpaceOnUse">
<stop stop-color="#00D399"/>
<stop offset="1" stop-color="#00BCAD"/>
</linearGradient>
<linearGradient id="paint1_linear_511_11442" x1="6.14206" y1="7.76325" x2="11.2" y2="13.0208" gradientUnits="userSpaceOnUse">
<stop stop-color="#00E18F" stop-opacity="0.988235"/>
<stop offset="1" stop-color="#00C5A8"/>
</linearGradient>
</defs>
</svg>
