<svg width="19" height="19" viewBox="0 0 19 19" fill="none" xmlns="http://www.w3.org/2000/svg">
<g clip-path="url(#clip0_507_11291)">
<path fill-rule="evenodd" clip-rule="evenodd" d="M9.5026 2.177C5.45827 2.177 2.17969 5.45558 2.17969 9.49992C2.17969 13.5443 5.45827 16.8228 9.5026 16.8228C13.5469 16.8228 16.8255 13.5443 16.8255 9.49992C16.8255 5.45558 13.5469 2.177 9.5026 2.177ZM0.992188 9.49992C0.992188 4.79975 4.80243 0.989502 9.5026 0.989502C14.2028 0.989502 18.013 4.79975 18.013 9.49992C18.013 14.2001 14.2028 18.0103 9.5026 18.0103C4.80243 18.0103 0.992188 14.2001 0.992188 9.49992ZM9.50391 6.13538C9.01203 6.13538 8.61328 6.53412 8.61328 7.026C8.61328 7.35392 8.34745 7.61975 8.01953 7.61975C7.69161 7.61975 7.42578 7.35392 7.42578 7.026C7.42578 5.87828 8.35619 4.94788 9.50391 4.94788C10.6516 4.94788 11.582 5.87828 11.582 7.026C11.582 7.78864 11.1709 8.45462 10.561 8.81546C10.4052 8.90761 10.2767 9.00823 10.1929 9.10695C10.1115 9.20279 10.0977 9.26531 10.0977 9.30204V10.2916C10.0977 10.6195 9.83183 10.8854 9.50391 10.8854C9.17599 10.8854 8.91016 10.6195 8.91016 10.2916V9.30204C8.91016 8.90155 9.08549 8.57659 9.28746 8.33859C9.48698 8.10348 9.73578 7.92391 9.95632 7.79343C10.2199 7.63748 10.3945 7.35181 10.3945 7.026C10.3945 6.53412 9.99578 6.13538 9.50391 6.13538ZM9.5026 13.4583C9.93983 13.4583 10.2943 13.1038 10.2943 12.6666C10.2943 12.2294 9.93983 11.8749 9.5026 11.8749C9.06538 11.8749 8.71094 12.2294 8.71094 12.6666C8.71094 13.1038 9.06538 13.4583 9.5026 13.4583Z" fill="#A9A9A9"/>
</g>
<defs>
<clipPath id="clip0_507_11291">
<rect width="19" height="19" fill="white"/>
</clipPath>
</defs>
</svg>
