<svg width="646" height="45" viewBox="0 0 646 45" fill="none" xmlns="http://www.w3.org/2000/svg">
<path d="M300.5 23C300.776 23 301 22.7761 301 22.5C301 22.2239 300.776 22 300.5 22V23ZM3.05102 23C3.32716 23 3.55102 22.7761 3.55102 22.5C3.55102 22.2239 3.32716 22 3.05102 22V23ZM12.2347 22C11.9586 22 11.7347 22.2239 11.7347 22.5C11.7347 22.7761 11.9586 23 12.2347 23V22ZM17.3367 23C17.6129 23 17.8367 22.7761 17.8367 22.5C17.8367 22.2239 17.6129 22 17.3367 22V23ZM26.5204 22C26.2443 22 26.0204 22.2239 26.0204 22.5C26.0204 22.7761 26.2443 23 26.5204 23V22ZM31.6224 23C31.8986 23 32.1224 22.7761 32.1224 22.5C32.1224 22.2239 31.8986 22 31.6224 22V23ZM40.8061 22C40.53 22 40.3061 22.2239 40.3061 22.5C40.3061 22.7761 40.53 23 40.8061 23V22ZM45.9082 23C46.1843 23 46.4082 22.7761 46.4082 22.5C46.4082 22.2239 46.1843 22 45.9082 22V23ZM55.0918 22C54.8157 22 54.5918 22.2239 54.5918 22.5C54.5918 22.7761 54.8157 23 55.0918 23V22ZM60.1939 23C60.47 23 60.6939 22.7761 60.6939 22.5C60.6939 22.2239 60.47 22 60.1939 22V23ZM69.3775 22C69.1014 22 68.8775 22.2239 68.8775 22.5C68.8775 22.7761 69.1014 23 69.3775 23V22ZM74.4796 23C74.7557 23 74.9796 22.7761 74.9796 22.5C74.9796 22.2239 74.7557 22 74.4796 22V23ZM83.6633 22C83.3871 22 83.1633 22.2239 83.1633 22.5C83.1633 22.7761 83.3871 23 83.6633 23V22ZM88.7653 23C89.0415 23 89.2653 22.7761 89.2653 22.5C89.2653 22.2239 89.0415 22 88.7653 22V23ZM97.949 22C97.6728 22 97.449 22.2239 97.449 22.5C97.449 22.7761 97.6728 23 97.949 23V22ZM103.051 23C103.327 23 103.551 22.7761 103.551 22.5C103.551 22.2239 103.327 22 103.051 22V23ZM112.235 22C111.959 22 111.735 22.2239 111.735 22.5C111.735 22.7761 111.959 23 112.235 23V22ZM117.337 23C117.613 23 117.837 22.7761 117.837 22.5C117.837 22.2239 117.613 22 117.337 22V23ZM126.52 22C126.244 22 126.02 22.2239 126.02 22.5C126.02 22.7761 126.244 23 126.52 23V22ZM131.622 23C131.899 23 132.122 22.7761 132.122 22.5C132.122 22.2239 131.899 22 131.622 22V23ZM140.806 22C140.53 22 140.306 22.2239 140.306 22.5C140.306 22.7761 140.53 23 140.806 23V22ZM145.908 23C146.184 23 146.408 22.7761 146.408 22.5C146.408 22.2239 146.184 22 145.908 22V23ZM155.092 22C154.816 22 154.592 22.2239 154.592 22.5C154.592 22.7761 154.816 23 155.092 23V22ZM160.194 23C160.47 23 160.694 22.7761 160.694 22.5C160.694 22.2239 160.47 22 160.194 22V23ZM169.378 22C169.101 22 168.878 22.2239 168.878 22.5C168.878 22.7761 169.101 23 169.378 23V22ZM174.48 23C174.756 23 174.98 22.7761 174.98 22.5C174.98 22.2239 174.756 22 174.48 22V23ZM183.663 22C183.387 22 183.163 22.2239 183.163 22.5C183.163 22.7761 183.387 23 183.663 23V22ZM188.765 23C189.041 23 189.265 22.7761 189.265 22.5C189.265 22.2239 189.041 22 188.765 22V23ZM197.949 22C197.673 22 197.449 22.2239 197.449 22.5C197.449 22.7761 197.673 23 197.949 23V22ZM203.051 23C203.327 23 203.551 22.7761 203.551 22.5C203.551 22.2239 203.327 22 203.051 22V23ZM212.235 22C211.959 22 211.735 22.2239 211.735 22.5C211.735 22.7761 211.959 23 212.235 23V22ZM217.337 23C217.613 23 217.837 22.7761 217.837 22.5C217.837 22.2239 217.613 22 217.337 22V23ZM226.52 22C226.244 22 226.02 22.2239 226.02 22.5C226.02 22.7761 226.244 23 226.52 23V22ZM231.622 23C231.899 23 232.122 22.7761 232.122 22.5C232.122 22.2239 231.899 22 231.622 22V23ZM240.806 22C240.53 22 240.306 22.2239 240.306 22.5C240.306 22.7761 240.53 23 240.806 23V22ZM245.908 23C246.184 23 246.408 22.7761 246.408 22.5C246.408 22.2239 246.184 22 245.908 22V23ZM255.092 22C254.816 22 254.592 22.2239 254.592 22.5C254.592 22.7761 254.816 23 255.092 23V22ZM260.194 23C260.47 23 260.694 22.7761 260.694 22.5C260.694 22.2239 260.47 22 260.194 22V23ZM269.378 22C269.101 22 268.878 22.2239 268.878 22.5C268.878 22.7761 269.101 23 269.378 23V22ZM274.48 23C274.756 23 274.98 22.7761 274.98 22.5C274.98 22.2239 274.756 22 274.48 22V23ZM283.663 22C283.387 22 283.163 22.2239 283.163 22.5C283.163 22.7761 283.387 23 283.663 23V22ZM288.765 23C289.041 23 289.265 22.7761 289.265 22.5C289.265 22.2239 289.041 22 288.765 22V23ZM297.949 22C297.673 22 297.449 22.2239 297.449 22.5C297.449 22.7761 297.673 23 297.949 23V22ZM0.5 23H3.05102V22H0.5V23ZM12.2347 23H17.3367V22H12.2347V23ZM26.5204 23H31.6224V22H26.5204V23ZM40.8061 23H45.9082V22H40.8061V23ZM55.0918 23H60.1939V22H55.0918V23ZM69.3775 23H74.4796V22H69.3775V23ZM83.6633 23H88.7653V22H83.6633V23ZM97.949 23H103.051V22H97.949V23ZM112.235 23H117.337V22H112.235V23ZM126.52 23H131.622V22H126.52V23ZM140.806 23H145.908V22H140.806V23ZM155.092 23H160.194V22H155.092V23ZM169.378 23H174.48V22H169.378V23ZM183.663 23H188.765V22H183.663V23ZM197.949 23H203.051V22H197.949V23ZM212.235 23H217.337V22H212.235V23ZM226.52 23H231.622V22H226.52V23ZM240.806 23H245.908V22H240.806V23ZM255.092 23H260.194V22H255.092V23ZM269.378 23H274.48V22H269.378V23ZM283.663 23H288.765V22H283.663V23ZM297.949 23H300.5V22H297.949V23Z" fill="#757575"/>
<rect x="300.5" width="45" height="45" rx="22.5" fill="#757575" fill-opacity="0.22"/>
<path d="M331.5 18V24C331.503 25.8104 330.959 27.5796 329.94 29.0759C328.921 30.5722 327.473 31.7259 325.788 32.3859C324.102 33.046 322.256 33.1817 320.492 32.7753C318.728 32.3688 317.127 31.4392 315.9 30.108C318.385 18.821 331.5 18 331.5 18ZM322.5 13C320.6 13.7479 318.989 15.0823 317.9 16.809C319.495 17.2543 321.037 17.8702 322.5 18.646C323.963 17.8702 325.505 17.2543 327.1 16.809C326.011 15.0823 324.4 13.7479 322.5 13ZM320.519 19.9C318.3 18.884 315.928 18.242 313.5 18V24C313.5 25.3724 313.819 26.726 314.432 27.954C315.542 24.6844 317.676 21.8599 320.519 19.9Z" fill="white"/>
<path d="M645.5 23C645.776 23 646 22.7761 646 22.5C646 22.2239 645.776 22 645.5 22V23ZM348.051 23C348.327 23 348.551 22.7761 348.551 22.5C348.551 22.2239 348.327 22 348.051 22V23ZM357.235 22C356.959 22 356.735 22.2239 356.735 22.5C356.735 22.7761 356.959 23 357.235 23V22ZM362.337 23C362.613 23 362.837 22.7761 362.837 22.5C362.837 22.2239 362.613 22 362.337 22V23ZM371.52 22C371.244 22 371.02 22.2239 371.02 22.5C371.02 22.7761 371.244 23 371.52 23V22ZM376.622 23C376.899 23 377.122 22.7761 377.122 22.5C377.122 22.2239 376.899 22 376.622 22V23ZM385.806 22C385.53 22 385.306 22.2239 385.306 22.5C385.306 22.7761 385.53 23 385.806 23V22ZM390.908 23C391.184 23 391.408 22.7761 391.408 22.5C391.408 22.2239 391.184 22 390.908 22V23ZM400.092 22C399.816 22 399.592 22.2239 399.592 22.5C399.592 22.7761 399.816 23 400.092 23V22ZM405.194 23C405.47 23 405.694 22.7761 405.694 22.5C405.694 22.2239 405.47 22 405.194 22V23ZM414.378 22C414.101 22 413.878 22.2239 413.878 22.5C413.878 22.7761 414.101 23 414.378 23V22ZM419.48 23C419.756 23 419.98 22.7761 419.98 22.5C419.98 22.2239 419.756 22 419.48 22V23ZM428.663 22C428.387 22 428.163 22.2239 428.163 22.5C428.163 22.7761 428.387 23 428.663 23V22ZM433.765 23C434.041 23 434.265 22.7761 434.265 22.5C434.265 22.2239 434.041 22 433.765 22V23ZM442.949 22C442.673 22 442.449 22.2239 442.449 22.5C442.449 22.7761 442.673 23 442.949 23V22ZM448.051 23C448.327 23 448.551 22.7761 448.551 22.5C448.551 22.2239 448.327 22 448.051 22V23ZM457.235 22C456.959 22 456.735 22.2239 456.735 22.5C456.735 22.7761 456.959 23 457.235 23V22ZM462.337 23C462.613 23 462.837 22.7761 462.837 22.5C462.837 22.2239 462.613 22 462.337 22V23ZM471.52 22C471.244 22 471.02 22.2239 471.02 22.5C471.02 22.7761 471.244 23 471.52 23V22ZM476.622 23C476.899 23 477.122 22.7761 477.122 22.5C477.122 22.2239 476.899 22 476.622 22V23ZM485.806 22C485.53 22 485.306 22.2239 485.306 22.5C485.306 22.7761 485.53 23 485.806 23V22ZM490.908 23C491.184 23 491.408 22.7761 491.408 22.5C491.408 22.2239 491.184 22 490.908 22V23ZM500.092 22C499.816 22 499.592 22.2239 499.592 22.5C499.592 22.7761 499.816 23 500.092 23V22ZM505.194 23C505.47 23 505.694 22.7761 505.694 22.5C505.694 22.2239 505.47 22 505.194 22V23ZM514.378 22C514.101 22 513.878 22.2239 513.878 22.5C513.878 22.7761 514.101 23 514.378 23V22ZM519.48 23C519.756 23 519.98 22.7761 519.98 22.5C519.98 22.2239 519.756 22 519.48 22V23ZM528.663 22C528.387 22 528.163 22.2239 528.163 22.5C528.163 22.7761 528.387 23 528.663 23V22ZM533.765 23C534.041 23 534.265 22.7761 534.265 22.5C534.265 22.2239 534.041 22 533.765 22V23ZM542.949 22C542.673 22 542.449 22.2239 542.449 22.5C542.449 22.7761 542.673 23 542.949 23V22ZM548.051 23C548.327 23 548.551 22.7761 548.551 22.5C548.551 22.2239 548.327 22 548.051 22V23ZM557.235 22C556.959 22 556.735 22.2239 556.735 22.5C556.735 22.7761 556.959 23 557.235 23V22ZM562.337 23C562.613 23 562.837 22.7761 562.837 22.5C562.837 22.2239 562.613 22 562.337 22V23ZM571.52 22C571.244 22 571.02 22.2239 571.02 22.5C571.02 22.7761 571.244 23 571.52 23V22ZM576.622 23C576.899 23 577.122 22.7761 577.122 22.5C577.122 22.2239 576.899 22 576.622 22V23ZM585.806 22C585.53 22 585.306 22.2239 585.306 22.5C585.306 22.7761 585.53 23 585.806 23V22ZM590.908 23C591.184 23 591.408 22.7761 591.408 22.5C591.408 22.2239 591.184 22 590.908 22V23ZM600.092 22C599.816 22 599.592 22.2239 599.592 22.5C599.592 22.7761 599.816 23 600.092 23V22ZM605.194 23C605.47 23 605.694 22.7761 605.694 22.5C605.694 22.2239 605.47 22 605.194 22V23ZM614.378 22C614.101 22 613.878 22.2239 613.878 22.5C613.878 22.7761 614.101 23 614.378 23V22ZM619.48 23C619.756 23 619.98 22.7761 619.98 22.5C619.98 22.2239 619.756 22 619.48 22V23ZM628.663 22C628.387 22 628.163 22.2239 628.163 22.5C628.163 22.7761 628.387 23 628.663 23V22ZM633.765 23C634.041 23 634.265 22.7761 634.265 22.5C634.265 22.2239 634.041 22 633.765 22V23ZM642.949 22C642.673 22 642.449 22.2239 642.449 22.5C642.449 22.7761 642.673 23 642.949 23V22ZM345.5 23H348.051V22H345.5V23ZM357.235 23H362.337V22H357.235V23ZM371.52 23H376.622V22H371.52V23ZM385.806 23H390.908V22H385.806V23ZM400.092 23H405.194V22H400.092V23ZM414.378 23H419.48V22H414.378V23ZM428.663 23H433.765V22H428.663V23ZM442.949 23H448.051V22H442.949V23ZM457.235 23H462.337V22H457.235V23ZM471.52 23H476.622V22H471.52V23ZM485.806 23H490.908V22H485.806V23ZM500.092 23H505.194V22H500.092V23ZM514.378 23H519.48V22H514.378V23ZM528.663 23H533.765V22H528.663V23ZM542.949 23H548.051V22H542.949V23ZM557.235 23H562.337V22H557.235V23ZM571.52 23H576.622V22H571.52V23ZM585.806 23H590.908V22H585.806V23ZM600.092 23H605.194V22H600.092V23ZM614.378 23H619.48V22H614.378V23ZM628.663 23H633.765V22H628.663V23ZM642.949 23H645.5V22H642.949V23Z" fill="#757575"/>
</svg>
