<svg width="33" height="33" viewBox="0 0 33 33" fill="none" xmlns="http://www.w3.org/2000/svg">
<path d="M26.6945 26.7077H26.7083M26.6945 26.7077C25.7864 27.6082 24.1406 27.3839 22.9865 27.3839C21.5699 27.3839 20.8877 27.661 19.8766 28.6721C19.0158 29.5331 17.8616 31.0827 16.5 31.0827C15.1383 31.0827 13.9842 29.5331 13.1233 28.6721C12.1123 27.661 11.4301 27.3839 10.0134 27.3839C8.85931 27.3839 7.21359 27.6082 6.3055 26.7077C5.39013 25.8 5.6154 24.1474 5.6154 22.9859C5.6154 21.5181 5.29439 20.8431 4.24909 19.7978C2.69415 18.2429 1.91669 17.4653 1.91666 16.4993C1.91667 15.5332 2.69412 14.7558 4.24904 13.2008C5.18216 12.2677 5.6154 11.3431 5.6154 10.0128C5.6154 8.85863 5.39112 7.21289 6.29166 6.30478C7.19937 5.38944 8.85191 5.61473 10.0134 5.61473C11.3437 5.61473 12.2684 5.18152 13.2015 4.24843C14.7564 2.69348 15.5338 1.91602 16.5 1.91602C17.4661 1.91602 18.2436 2.69348 19.7984 4.24843C20.7313 5.18133 21.6559 5.61473 22.9865 5.61473C24.1406 5.61473 25.7865 5.39045 26.6946 6.29102C27.6099 7.19873 27.3845 8.85125 27.3845 10.0128C27.3845 11.4806 27.7057 12.1555 28.7509 13.2008C30.3059 14.7558 31.0833 15.5332 31.0833 16.4993C31.0833 17.4653 30.3059 18.2429 28.7509 19.7978C27.7055 20.8431 27.3845 21.5181 27.3845 22.9859C27.3845 24.1474 27.6099 25.8 26.6945 26.7077Z" stroke="#CDFFAD" stroke-width="2.1875"/>
</svg>
