<svg width="36" height="36" viewBox="0 0 36 36" fill="none" xmlns="http://www.w3.org/2000/svg">
<path d="M7.0625 15.4702V9.25H28.9375V15.4702C28.9375 20.1001 28.9375 22.4151 27.5137 23.8533C26.09 25.2917 23.7983 25.2917 19.2152 25.2917H16.7848C12.2016 25.2917 9.91007 25.2917 8.48629 23.8533C7.0625 22.4151 7.0625 20.1001 7.0625 15.4702Z" stroke="#CDFFAD" stroke-width="2.1875" stroke-linecap="round" stroke-linejoin="round"/>
<path d="M7.0625 9.2513L8.11418 7.00772C8.92982 5.26769 9.33763 4.39768 10.1643 3.90782C10.9909 3.41797 12.0512 3.41797 14.1719 3.41797H21.8281C23.9488 3.41797 25.009 3.41797 25.8358 3.90782C26.6624 4.39768 27.0702 5.26769 27.8857 7.00772L28.9375 9.2513" stroke="#CDFFAD" stroke-width="2.1875" stroke-linecap="round"/>
<path d="M15.8125 13.625H20.1875" stroke="#CDFFAD" stroke-width="2.1875" stroke-linecap="round"/>
<path d="M18 28.9375V32.5833M18 28.9375H10.7083M18 28.9375H25.2916M10.7083 28.9375H7.06246C5.04892 28.9375 3.41663 30.5698 3.41663 32.5833M10.7083 28.9375V32.5833M25.2916 28.9375H28.9375C30.951 28.9375 32.5833 30.5698 32.5833 32.5833M25.2916 28.9375V32.5833" stroke="#CDFFAD" stroke-width="2.1875" stroke-linecap="round" stroke-linejoin="round"/>
</svg>
