<svg width="140" height="112" viewBox="0 0 140 112" fill="none" xmlns="http://www.w3.org/2000/svg">
<g clip-path="url(#clip0_893_16110)">
<path fill-rule="evenodd" clip-rule="evenodd" d="M55.7611 7.56658C62.7402 -2.20448 77.2623 -2.20448 84.2419 7.56658L85.3531 9.12216C86.581 10.8418 88.6437 11.7626 90.7437 11.5293L95.6962 10.979C106.843 9.74055 116.26 19.1585 115.022 30.3045L114.472 35.2571C114.239 37.3574 115.159 39.4197 116.879 40.6481L118.435 41.7592C128.205 48.7383 128.205 63.2603 118.435 70.2399L116.879 71.3512C115.159 72.5791 114.239 74.6418 114.472 76.7418L115.022 81.6942C116.26 92.8406 106.843 102.258 95.6962 101.02L90.7437 100.47C88.6437 100.237 86.581 101.157 85.3531 102.877L84.2419 104.433C77.2623 114.203 62.7408 114.203 55.7611 104.433L54.65 102.877C53.4217 101.157 51.3594 100.237 49.259 100.47L44.3065 101.02C33.1605 102.258 23.7425 92.8406 24.9809 81.6942L25.5312 76.7418C25.7646 74.6418 24.8438 72.5791 23.1241 71.3512L21.5685 70.2399C11.7975 63.2603 11.7975 48.7388 21.5685 41.7592L23.1241 40.6481C24.8438 39.4197 25.7646 37.3574 25.5312 35.2571L24.9809 30.3045C23.7425 19.1585 33.1605 9.74055 44.3065 10.979L49.2591 11.5293C51.3594 11.7626 53.4217 10.8418 54.65 9.12216L55.7611 7.56658ZM91.6263 40.2081C93.9042 42.4862 93.9042 46.1797 91.6263 48.4577L69.3494 70.7346C66.4881 73.5964 61.8483 73.5964 58.987 70.7346L48.3767 60.1243C46.0987 57.8464 46.0987 54.1527 48.3767 51.8748C50.6548 49.5969 54.3483 49.5969 56.6263 51.8748L64.1682 59.4168L83.3768 40.2081C85.6547 37.9301 89.3484 37.9301 91.6263 40.2081Z" fill="#CDFFAD"/>
</g>
<defs>
<clipPath id="clip0_893_16110">
<rect width="140" height="112" fill="white"/>
</clipPath>
</defs>
</svg>
