<svg width="24" height="25" viewBox="0 0 24 25" fill="none" xmlns="http://www.w3.org/2000/svg">
<path fill-rule="evenodd" clip-rule="evenodd" d="M12 1.75C9.37665 1.75 7.25 3.87665 7.25 6.5C7.25 9.12335 9.37665 11.25 12 11.25C14.6234 11.25 16.75 9.12335 16.75 6.5C16.75 3.87665 14.6234 1.75 12 1.75ZM8.75 6.5C8.75 4.70507 10.2051 3.25 12 3.25C13.7949 3.25 15.25 4.70507 15.25 6.5C15.25 8.29493 13.7949 9.75 12 9.75C10.2051 9.75 8.75 8.29493 8.75 6.5Z" fill="white"/>
<path fill-rule="evenodd" clip-rule="evenodd" d="M12 12.75C9.96067 12.75 8.07752 13.2208 6.67815 14.0204C5.3 14.8079 4.25 16.0101 4.25 17.5C4.25 18.9899 5.3 20.1921 6.67815 20.9796C8.07752 21.7792 9.96067 22.25 12 22.25C14.0393 22.25 15.9225 21.7792 17.3219 20.9796C18.7 20.1921 19.75 18.9899 19.75 17.5C19.75 16.0101 18.7 14.8079 17.3219 14.0204C15.9225 13.2208 14.0393 12.75 12 12.75ZM5.75 17.5C5.75 16.7807 6.26701 15.983 7.42236 15.3228C8.55649 14.6747 10.1733 14.25 12 14.25C13.8267 14.25 15.4435 14.6747 16.5776 15.3228C17.733 15.983 18.25 16.7807 18.25 17.5C18.25 18.2193 17.733 19.017 16.5776 19.6772C15.4435 20.3253 13.8267 20.75 12 20.75C10.1733 20.75 8.55649 20.3253 7.42236 19.6772C6.26701 19.017 5.75 18.2193 5.75 17.5Z" fill="white"/>
</svg>
