<svg width="38" height="25" viewBox="0 0 38 25" fill="none" xmlns="http://www.w3.org/2000/svg">
<rect x="0.25" y="0.75" width="37.5" height="23.5" rx="7.75" fill="white"/>
<rect x="0.25" y="0.75" width="37.5" height="23.5" rx="7.75" stroke="#757575" stroke-width="0.5"/>
<g clip-path="url(#clip0_511_11445)">
<path d="M19.584 10.4983C19.5646 12.0277 20.947 12.8812 21.9884 13.3887C23.0584 13.9093 23.4177 14.2432 23.4135 14.7088C23.4055 15.4214 22.56 15.7359 21.7689 15.7481C20.3886 15.7695 19.586 15.3754 18.9479 15.0774L18.4507 17.4041C19.0908 17.6991 20.2762 17.9564 21.5054 17.9677C24.3907 17.9677 26.2784 16.5434 26.2886 14.3351C26.2999 11.5325 22.4121 11.3774 22.4387 10.1247C22.4478 9.74483 22.8103 9.33949 23.6045 9.23643C23.9976 9.18436 25.0828 9.14452 26.3132 9.7111L26.7961 7.45993C26.1344 7.219 25.284 6.98831 24.2252 6.98831C21.5095 6.98831 19.5994 8.43198 19.584 10.4983ZM31.4363 7.18221C30.9094 7.18221 30.4654 7.48954 30.2673 7.96116L26.1457 17.8023H29.0289L29.6027 16.2167H33.1259L33.4588 17.8023H36L33.7824 7.18221H31.4363ZM31.8396 10.0511L32.6717 14.0391H30.3929L31.8396 10.0511ZM16.0882 7.18235L13.8155 17.8022H16.563L18.8346 7.18208L16.0882 7.18235ZM12.0238 7.18235L9.16404 14.4107L8.00724 8.2645C7.87151 7.57839 7.33548 7.18221 6.74021 7.18221H2.06548L2 7.4906C2.9597 7.69885 4.05009 8.03474 4.7107 8.39413C5.11498 8.61367 5.23027 8.80558 5.36308 9.32727L7.55409 17.8023H10.4575L14.9088 7.18221L12.0238 7.18235Z" fill="url(#paint0_linear_511_11445)"/>
</g>
<defs>
<linearGradient id="paint0_linear_511_11445" x1="1565.12" y1="39.9922" x2="1596.9" y2="-1087.6" gradientUnits="userSpaceOnUse">
<stop stop-color="#222357"/>
<stop offset="1" stop-color="#254AA5"/>
</linearGradient>
<clipPath id="clip0_511_11445">
<rect width="34" height="11.0234" fill="white" transform="translate(2 6.98828)"/>
</clipPath>
</defs>
</svg>
