<svg width="24" height="24" viewBox="0 0 24 24" fill="none" xmlns="http://www.w3.org/2000/svg">
<path d="M12 21.9998C17.5228 21.9998 22 17.5226 22 11.9998C22 6.47691 17.5228 1.99976 12 1.99976C6.47715 1.99976 2 6.47691 2 11.9998C2 13.3787 2.27907 14.6924 2.78382 15.8875C3.06278 16.5479 3.20226 16.8782 3.21953 17.1278C3.2368 17.3774 3.16334 17.6519 3.01642 18.201L2 21.9998L5.79877 20.9834C6.34788 20.8365 6.62244 20.763 6.87202 20.7803C7.12161 20.7975 7.45185 20.937 8.11235 21.216C9.30745 21.7207 10.6211 21.9998 12 21.9998Z" stroke="#EFEFEF" stroke-width="1.5" stroke-linejoin="round"/>
<path d="M8.5862 12.3773L9.45714 11.2956C9.82421 10.8397 10.2779 10.4153 10.3135 9.80826C10.3224 9.65494 10.2146 8.96657 9.99885 7.58986C9.91406 7.04881 9.40891 7 8.97137 7C8.40119 7 8.1161 7 7.833 7.12931C7.47519 7.29275 7.10784 7.75231 7.02722 8.13733C6.96344 8.44196 7.01084 8.65187 7.10564 9.07169C7.50828 10.8548 8.45286 12.6158 9.91753 14.0805C11.3822 15.5452 13.1432 16.4898 14.9263 16.8924C15.3461 16.9872 15.556 17.0346 15.8607 16.9708C16.2457 16.8902 16.7052 16.5229 16.8687 16.165C16.998 15.8819 16.998 15.5969 16.998 15.0267C16.998 14.5891 16.9492 14.084 16.4081 13.9992C15.0314 13.7834 14.3431 13.6756 14.1897 13.6845C13.5827 13.7201 13.1583 14.1738 12.7024 14.5409L11.6207 15.4118" stroke="#EFEFEF" stroke-width="1.5"/>
</svg>
