<svg width="135" height="136" viewBox="0 0 135 136" fill="none" xmlns="http://www.w3.org/2000/svg">
<path fill-rule="evenodd" clip-rule="evenodd" d="M31.637 25.3861C22.3052 29.6517 15.4688 39.7976 15.4688 51.8962C15.4688 64.2566 20.5268 73.7838 27.7779 81.9487C33.7541 88.6782 40.9885 94.2554 48.0438 99.6947C49.7196 100.987 51.3852 102.271 53.0215 103.561C55.9804 105.893 58.6199 107.94 61.1641 109.427C63.7095 110.915 65.7585 111.594 67.5 111.594C69.2415 111.594 71.2905 110.915 73.8359 109.427C76.3801 107.94 79.0196 105.893 81.9785 103.561C83.6148 102.271 85.2804 100.987 86.9562 99.6947C94.0115 94.2554 101.246 88.6782 107.222 81.9487C114.473 73.7838 119.531 64.2566 119.531 51.8962C119.531 39.7976 112.695 29.6517 103.363 25.3861C94.2971 21.2421 82.1157 22.3395 70.5396 34.3666C69.7443 35.1929 68.6468 35.6598 67.5 35.6598C66.3532 35.6598 65.2557 35.1929 64.4604 34.3666C52.8843 22.3395 40.7029 21.2421 31.637 25.3861ZM67.5 25.5809C54.4947 13.9451 39.9317 12.3174 28.1293 17.7123C15.664 23.4102 7.03125 36.6408 7.03125 51.8962C7.03125 66.8898 13.2778 78.3278 21.469 87.5514C28.0287 94.9378 36.0575 101.12 43.1484 106.58C44.7558 107.817 46.315 109.018 47.798 110.187C50.6793 112.458 53.7724 114.88 56.9071 116.712C60.0405 118.543 63.6165 120.031 67.5 120.031C71.3835 120.031 74.9595 118.543 78.0929 116.712C81.2276 114.88 84.3207 112.458 87.202 110.187C88.685 109.018 90.2442 107.817 91.8516 106.58C98.9425 101.12 106.971 94.9378 113.531 87.5514C121.722 78.3278 127.969 66.8898 127.969 51.8962C127.969 36.6408 119.336 23.4102 106.871 17.7123C95.0683 12.3174 80.5053 13.9451 67.5 25.5809Z" fill="#1C274C"/>
<path fill-rule="evenodd" clip-rule="evenodd" d="M31.637 25.3861C22.3052 29.6517 15.4688 39.7976 15.4688 51.8962C15.4688 64.2566 20.5268 73.7838 27.7779 81.9487C33.7541 88.6782 40.9885 94.2554 48.0438 99.6947C49.7196 100.987 51.3852 102.271 53.0215 103.561C55.9804 105.893 58.6199 107.94 61.1641 109.427C63.7095 110.915 65.7585 111.594 67.5 111.594C69.2415 111.594 71.2905 110.915 73.8359 109.427C76.3801 107.94 79.0196 105.893 81.9785 103.561C83.6148 102.271 85.2804 100.987 86.9562 99.6947C94.0115 94.2554 101.246 88.6782 107.222 81.9487C114.473 73.7838 119.531 64.2566 119.531 51.8962C119.531 39.7976 112.695 29.6517 103.363 25.3861C94.2971 21.2421 82.1157 22.3395 70.5396 34.3666C69.7443 35.1929 68.6468 35.6598 67.5 35.6598C66.3532 35.6598 65.2557 35.1929 64.4604 34.3666C52.8843 22.3395 40.7029 21.2421 31.637 25.3861ZM67.5 25.5809C54.4947 13.9451 39.9317 12.3174 28.1293 17.7123C15.664 23.4102 7.03125 36.6408 7.03125 51.8962C7.03125 66.8898 13.2778 78.3278 21.469 87.5514C28.0287 94.9378 36.0575 101.12 43.1484 106.58C44.7558 107.817 46.315 109.018 47.798 110.187C50.6793 112.458 53.7724 114.88 56.9071 116.712C60.0405 118.543 63.6165 120.031 67.5 120.031C71.3835 120.031 74.9595 118.543 78.0929 116.712C81.2276 114.88 84.3207 112.458 87.202 110.187C88.685 109.018 90.2442 107.817 91.8516 106.58C98.9425 101.12 106.971 94.9378 113.531 87.5514C121.722 78.3278 127.969 66.8898 127.969 51.8962C127.969 36.6408 119.336 23.4102 106.871 17.7123C95.0683 12.3174 80.5053 13.9451 67.5 25.5809Z" fill="url(#paint0_linear_534_12621)"/>
<defs>
<linearGradient id="paint0_linear_534_12621" x1="67.5" y1="14.7553" x2="67.5" y2="120.031" gradientUnits="userSpaceOnUse">
<stop stop-color="#A9A9A9"/>
<stop offset="0.988383" stop-color="#1C1C1C"/>
</linearGradient>
</defs>
</svg>
